SplineFontDB: 3.2
FontName: Dakkhinee-Regular
FullName: Dakkhinee Regular
FamilyName: Dakkhinee
Weight: Regular
Copyright: Copyright 2024 The Dakkhinee Project Authors (github.com/mitradranirban/font-dakkhinee)
FontLog: "Dakkhinee - A Bengali Bangla font with glyphs desig inspired by Kannada or Telegu letter forms "
Version: 1.021
ItalicAngle: 0
UnderlinePosition: -366
UnderlineWidth: 73
Ascent: 800
Descent: 200
InvalidEm: 0
LayerCount: 2
Layer: 0 0 "Back" 1
Layer: 1 0 "Fore" 0
XUID: [1021 498 675293083 873113]
UseXUID: 1
BaseVert: 2 'hang' 'romn'
BaseScript: 'beng' 0  1024 0
BaseScript: 'deva' 0  1024 0
BaseScript: 'latn' 1  0 0
StyleMap: 0x0040
FSType: 0
OS2Version: 4
OS2_WeightWidthSlopeOnly: 1
OS2_UseTypoMetrics: 1
CreationTime: 1638213189
ModificationTime: 1726139953
PfmFamily: 81
TTFWeight: 400
TTFWidth: 5
LineGap: 0
VLineGap: 0
OS2TypoAscent: 1200
OS2TypoAOffset: 0
OS2TypoDescent: -300
OS2TypoDOffset: 0
OS2TypoLinegap: 0
OS2WinAscent: 1295
OS2WinAOffset: 0
OS2WinDescent: 672
OS2WinDOffset: 0
HheadAscent: 1200
HheadAOffset: 0
HheadDescent: -300
HheadDOffset: 0
OS2CapHeight: 800
OS2XHeight: 508
OS2Vendor: 'anir'
OS2UnicodeRanges: 80018007.00002002.00000000.00000000
Lookup: 4 0 1 "'liga' Standard Ligatures in Latin lookup 0" { "'liga' Standard Ligatures in Latin lookup 0-1"  } ['liga' ('DFLT' <'dflt' > 'latn' <'dflt' > ) ]
Lookup: 1 0 0 "'init' Initial Forms in Bengali2 lookup 0" { "'init' Initial Forms in Bengali lookup 0 subtable"  } ['init' ('bng2' <'ASM ' 'dflt' > ) ]
Lookup: 4 0 0 "'nukt' Nukta Forms in Bengali2 lookup 1" { "'nukt' Nukta Forms in Bengali lookup 1 subtable"  } ['nukt' ('bng2' <'ASM ' 'dflt' > ) ]
Lookup: 4 0 0 "'akhn' Akhand in Bengali2 lookup 2" { "'akhn' Akhand in Bengali lookup 2 subtable"  } ['akhn' ('bng2' <'dflt' > ) ]
Lookup: 4 0 0 "'rphf' Reph Form in Bengali2 lookup 3" { "'rphf' Reph Form in Bengali lookup 3 subtable"  } ['rphf' ('bng2' <'dflt' > ) 'rphf' ('bng2' <'ASM ' > ) ]

StartChar: comma
Encoding: 44 44 1
GlifName: comma
Width: 226
GlyphClass: 2
Flags: W
HStem: -162 264<97.221 119.605>
VStem: 97 79<-86.637 37>
LayerCount: 2
Fore
SplineSet
50 47 m 0
 50 81 74 102 108 102 c 0
 153 102 176 61 176 13 c 0
 176 -52 148 -113 115 -146 c 0
 104 -157 92 -162 81 -162 c 0
 69 -162 60 -153 60 -142 c 0
 60 -118 78 -104 88 -88 c 0
 94 -79 97 -67 97 -54 c 0
 97 -3 50 -2 50 47 c 0
EndSplineSet
EndChar

StartChar: danda
Encoding: 2404 2404 2
GlifName: danda
Width: 254
GlyphClass: 2
Flags: W
VStem: 60 145<41 496>
LayerCount: 2
Fore
SplineSet
60 -113 m 1
 60 496 l 1
 205 676 l 1
 205 41 l 1
 60 -113 l 1
EndSplineSet
EndChar

StartChar: doubledanda
Encoding: 2405 2405 3
GlifName: doubledanda
Width: 625
GlyphClass: 2
Flags: W
VStem: 60 145<41 496> 348 145<41 496>
LayerCount: 2
Fore
SplineSet
348 -113 m 1
 348 496 l 1
 493 676 l 1
 493 41 l 1
 348 -113 l 1
60 -113 m 1
 60 496 l 1
 205 676 l 1
 205 41 l 1
 60 -113 l 1
EndSplineSet
EndChar

StartChar: u0981
Encoding: 2433 2433 4
GlifName: u0981
Width: 0
VWidth: 1024
GlyphClass: 4
Flags: W
HStem: 986 32<-272.489 -148.2> 1084 32<-240.482 -185.518> 1181 33<-241.402 -184.884>
VStem: -390 52<1070.06 1198.22> -278 32<1121.52 1176.12> -180 32<1121.52 1176.12> -84 59<1069.2 1196.59>
AnchorPoint: "Anchor-0" -197 968 mark 0
LayerCount: 2
Fore
SplineSet
-246 1149 m 0
 -246 1131 -231 1116 -213 1116 c 0
 -195 1116 -180 1131 -180 1149 c 0
 -180 1167 -195 1181 -213 1181 c 0
 -231 1181 -246 1167 -246 1149 c 0
-278 1149 m 0
 -278 1185 -249 1214 -213 1214 c 0
 -175 1214 -148 1185 -148 1149 c 0
 -148 1113 -177 1084 -213 1084 c 0
 -249 1084 -278 1113 -278 1149 c 0
-390 1132 m 0
 -390 1157 -383 1182 -368 1206 c 0
 -353 1230 -339 1252 -312 1272 c 1
 -262 1252 l 1
 -299 1225 -338 1186 -338 1132 c 0
 -338 1067 -278 1018 -211 1018 c 0
 -144 1018 -84 1067 -84 1132 c 0
 -84 1153 -91 1173 -104 1194 c 0
 -117 1215 -135 1234 -160 1252 c 1
 -110 1272 l 1
 -67 1241 -25 1196 -25 1132 c 0
 -25 1044 -119 986 -211 986 c 0
 -299 986 -390 1048 -390 1132 c 0
EndSplineSet
Substitution2: "Single Substitution Lookup 27" u0981.salt
EndChar

StartChar: u0982
Encoding: 2434 2434 5
GlifName: u0982
Width: 539
VWidth: 1024
GlyphClass: 2
Flags: W
HStem: 174 78<87.8922 168.185> 357 118<114.083 170.164> 524 56<185.049 280.951> 710 74<185.049 281.029>
VStem: 0 76<264.439 343.791> 103 65<597.201 692.942> 181 78<263.545 346.068> 298 65<597.201 694.009> 429 82<8.77483 224.469>
LayerCount: 2
Fore
SplineSet
168 645 m 0
 168 609 197 580 233 580 c 0
 269 580 298 609 298 645 c 0
 298 663 290 676 279 691 c 0
 266 709 251 710 233 710 c 0
 197 710 168 681 168 645 c 0
103 654 m 0
 103 726 161 784 233 784 c 0
 278 784 300 771 325 746 c 0
 350 721 363 690 363 654 c 0
 363 582 305 524 233 524 c 0
 161 524 103 582 103 654 c 0
76 305 m 0
 76 277 101 252 129 252 c 0
 156 252 181 278 181 305 c 0
 181 332 156 357 129 357 c 0
 102 357 76 332 76 305 c 0
0 299 m 2
 0 307 l 1
 5 410 117 475 215 475 c 2
 223 475 l 2
 293 473 353 447 404 396 c 0
 470 330 511 246 511 125 c 0
 511 87 506 49 496 10 c 1
 395 -91 l 1
 417 -29 429 30 429 89 c 0
 429 196 397 275 340 332 c 0
 309 363 270 391 220 396 c 1
 245 371 259 341 259 305 c 0
 259 235 199 174 129 174 c 0
 61 174 0 229 0 299 c 2
EndSplineSet
EndChar

StartChar: u0983
Encoding: 2435 2435 6
GlifName: u0983
Width: 423
VWidth: 1024
GlyphClass: 2
Flags: W
HStem: 0 65<185.049 280.951> 195 65<185.049 280.951> 325 65<185.049 280.951> 520 65<185.049 281.091>
VStem: 103 65<82.0494 177.951 407.049 502.951> 298 65<82.0494 177.951 407.049 503.415>
LayerCount: 2
Fore
SplineSet
168 455 m 0
 168 419 197 390 233 390 c 0
 269 390 298 419 298 455 c 0
 298 491 269 520 233 520 c 0
 197 520 168 491 168 455 c 0
168 130 m 0
 168 94 197 65 233 65 c 0
 269 65 298 94 298 130 c 0
 298 166 269 195 233 195 c 0
 197 195 168 166 168 130 c 0
103 455 m 0
 103 527 161 585 233 585 c 0
 278 585 300 572 325 547 c 0
 350 522 363 491 363 455 c 0
 363 383 305 325 233 325 c 0
 161 325 103 383 103 455 c 0
103 130 m 0
 103 202 161 260 233 260 c 0
 305 260 363 202 363 130 c 0
 363 58 305 0 233 0 c 0
 161 0 103 58 103 130 c 0
EndSplineSet
EndChar

StartChar: u09a4
Encoding: 2468 2468 7
GlifName: u09a4
Width: 790
GlyphClass: 2
Flags: W
HStem: 41 90<267.035 476.126> 384 95<129.606 196.641> 597 107<508.752 611.161> 610 95<131.177 193.861> 740 78<0 7 8 653.696> 1003 20G<703 727>
VStem: 0 100<286.427 482.61> 208 98<487.335 597.939> 385 107<504.291 580.036> 661 97<307.973 532.157> 712 78<828.058 941.758>
AnchorPoint: "Anchor-0" 361 872 basechar 0
AnchorPoint: "Anchor-1" 475 29 basechar 0
LayerCount: 2
Fore
SplineSet
116 544 m 0xdf80
 116 507 141 479 165 479 c 0
 191 479 208 512 208 541 c 0
 208 568 192 610 163 610 c 0
 139 610 116 579 116 544 c 0xdf80
0 420 m 0
 0 572 51 705 169 705 c 0xdfc0
 243 705 306 635 306 544 c 0
 304 451 251 384 166 384 c 0
 143 384 120 394 104 394 c 0
 101 394 100 392 100 385 c 0
 100 234 235 131 360 131 c 0
 366 131 373 132 379 132 c 0
 554 145 661 255 661 428 c 0
 661 516 619 597 566 597 c 0
 535 597 492 579 492 542 c 0
 492 513 537 490 562 446 c 2
 575 423 l 1
 532 424 488 426 445 427 c 1
 428 444 l 2
 405 468 386 513 385 543 c 0
 385 632 463 704 557 704 c 0
 695 704 758 571 758 427 c 0xefc0
 758 210 607 53 388 42 c 0
 380 42 372 41 364 41 c 0
 145 41 0 200 0 420 c 0
-69 742 m 1
 -69 742 -39 756 -20 775 c 0
 -14 781 -6 794 0 805 c 1
 0 818 l 1
 7 818 l 1
 8 819 l 1
 8 818 l 1
 403 818 l 2
 480 818 538 817 581 817 c 0
 705 817 712 825 712 885 c 0
 712 908 693 945 674 961 c 2
 657 975 l 1
 677 998 l 2
 689 1012 701 1022 705 1023 c 0
 749 1023 790 929 790 882 c 0xcfa0
 790 843 775 808 745 780 c 0
 705 741 710 742 413 740 c 2
 0 740 l 1
 0 741 l 1
 -11 741 l 2
 -30 741 -49 741 -69 742 c 1
EndSplineSet
EndChar

StartChar: u09ce
Encoding: 2510 2510 8
GlifName: u09ce
Width: 502
VWidth: 1024
GlyphClass: 2
Flags: W
HStem: 55 21G<283 403.5> 291 74<168.998 368.298> 428 63<330.513 403.509> 576 20G<276 309> 660 73<152.944 370.524>
VStem: 9 57<447.502 583.953> 230 126<500.658 579.356> 419 74<125.263 246.63> 430 63<516.736 613.665>
AnchorPoint: "Anchor-0" 256 765 basechar 0
AnchorPoint: "Anchor-1" 415 27 basechar 0
LayerCount: 2
Fore
SplineSet
9 512 m 0xff
 9 651 109 733 251 733 c 0
 371 733 493 676 493 565 c 0
 493 488 429 428 351 428 c 0
 289 428 230 472 230 533 c 0
 230 567 259 596 293 596 c 0
 325 596 356 575 356 544 c 0
 356 522 345 506 330 497 c 1
 334 495 340 491 346 491 c 0
 389 491 430 523 430 565 c 0xfe80
 430 636 332 660 249 660 c 0
 153 660 66 604 66 512 c 0
 66 472 87 437 129 408 c 0
 171 379 223 365 283 365 c 0
 341 365 391 348 432 314 c 0
 473 280 493 240 493 192 c 0
 493 121 435 66 372 55 c 1
 283 55 l 1
 349 67 419 119 419 192 c 0
 419 254 349 291 283 291 c 0
 208 291 142 313 89 356 c 0
 36 399 9 451 9 512 c 0xff
EndSplineSet
Ligature2: "'half' Half Forms in Bengali lookup 5 subtable" u09a4 u09cd zwj
Colour: ff0000
EndChar

StartChar: zwnj
Encoding: 8204 8204 9
GlifName: zwnj
Width: 0
GlyphClass: 2
Flags: W
VStem: -12 24<12 683>
LayerCount: 2
Fore
SplineSet
-12 12 m 1
 -12 683 l 1
 12 683 l 1
 12 12 l 1
 -12 12 l 1
EndSplineSet
EndChar

StartChar: zwj
Encoding: 8205 8205 10
GlifName: zwj
Width: 0
GlyphClass: 2
Flags: W
VStem: -19 39<15 601>
LayerCount: 2
Fore
SplineSet
-146 688 m 1
 -126 723 l 1
 0 645 l 1
 93 723 l 1
 123 698 l 1
 20 625 l 1
 127 557 l 1
 118 537 l 1
 20 601 l 1
 20 15 l 1
 -19 10 l 1
 -19 605 l 1
 -102 532 l 1
 -131 542 l 1
 -34 632 l 1
 -146 688 l 1
EndSplineSet
EndChar

StartChar: quotedblleft
Encoding: 8220 8220 11
GlifName: quotedblleft
Width: 273
GlyphClass: 2
Flags: W
HStem: 489 247
VStem: 18 76<644.15 692.062> 81 55<489.848 508> 132 75<686.5 732.596> 194 56<532.028 549>
LayerCount: 2
Fore
SplineSet
132 698 m 0x90
 132 721 148 736 171 736 c 0
 191 736 201 725 207 710 c 2x90
 249 569 l 2
 250 566 250 563 250 560 c 0
 250 543 238 531 220 531 c 0
 206 531 198 538 194 549 c 2x88
 135 684 l 2
 133 689 132 693 132 698 c 0x90
18 657 m 0xc0
 18 678 35 696 57 696 c 0
 77 696 89 684 94 669 c 2xc0
 134 527 l 2
 135 524 136 520 136 517 c 0
 136 501 123 489 107 489 c 0
 94 489 85 497 81 508 c 2xa0
 21 643 l 2
 19 648 18 652 18 657 c 0xc0
EndSplineSet
EndChar

StartChar: quotedblright
Encoding: 8221 8221 12
GlifName: quotedblright
Width: 273
GlyphClass: 2
Flags: W
HStem: 492 244
VStem: -48 239
LayerCount: 2
Fore
SplineSet
64 528 m 0
 64 529 65 530 65 531 c 2
 115 669 l 2
 121 685 136 696 152 696 c 0
 175 696 191 676 191 657 c 0
 191 652 190 648 188 643 c 2
 138 504 l 2
 135 496 120 495 113 492 c 0
 109 490 106 490 102 490 c 0
 90 490 80 497 76 506 c 0
 73 511 64 520 64 528 c 0
-48 570 m 0
 -48 571 -48 571 -48 572 c 2
 0 710 l 2
 6 726 22 736 38 736 c 0
 63 736 77 718 77 698 c 0
 77 693 77 689 75 684 c 2
 24 546 l 2
 21 538 6 536 0 533 c 0
 -4 531 -6 530 -10 530 c 0
 -22 530 -34 539 -38 547 c 0
 -41 552 -48 562 -48 570 c 0
EndSplineSet
EndChar

StartChar: euro
Encoding: 8364 8364 13
GlifName: euro
Width: 501
GlyphClass: 2
Flags: W
HStem: 267 45<6 183 261 494> 385 41<6 188 270 493> 574 53<414.391 480.849>
LayerCount: 2
Fore
SplineSet
6 267 m 1
 6 313 l 1
 183 313 l 1
 176 330 l 1
 176 347 182 368 193 394 c 1
 188 386 l 1
 6 386 l 1
 6 426 l 1
 200 426 l 1
 207 440 215 454 225 470 c 0
 291 579 376 620 479 627 c 1
 493 574 l 1
 454 571 415 556 376 532 c 0
 343 511 308 487 270 426 c 1
 493 426 l 1
 493 385 l 1
 256 385 l 1
 249 374 l 1
 244 330 l 1
 248 318 253 284 260 269 c 1
 251 312 l 1
 494 312 l 1
 494 267 l 1
 261 267 l 1
 270 248 280 248 293 225 c 0
 316 184 375 129 469 61 c 1
 464 12 l 2
 463 12 462 12 461 12 c 0
 451 12 434 20 409 37 c 0
 395 46 378 58 359 73 c 0
 267 144 236 170 194 267 c 1
 6 267 l 1
EndSplineSet
EndChar

StartChar: uni25CC
Encoding: 9676 9676 14
GlifName: uni25C_C_
Width: 845
VWidth: 1024
GlyphClass: 2
Flags: W
HStem: 0 94<384.279 461.037> 40 95<231.963 308.721 536.279 613.037> 152 94<121.279 198.721 647.963 724.721> 304 94<79.9629 156.721 688.279 765.721> 456 94<121.279 198.721 647.963 724.721> 568 94<231.963 308.721 536.279 613.037> 608 94<384.279 461.037>
VStem: 72 93<312.279 389.721> 113 94<160.279 237.721 464.279 541.721> 224 93<47.6885 126.721 576.279 653.721> 376 93<8.2793 85.7207 616.279 693.721> 528 93<47.6885 126.721 576.279 653.721> 640 93<160.279 237.721 464.279 541.721> 680 94<312.279 389.721>
AnchorPoint: "Anchor-0" 442 748 basechar 0
AnchorPoint: "Anchor-1" 486 -30 basechar 0
LayerCount: 2
Fore
SplineSet
680 351 m 0x3874
 680 376 702 398 727 398 c 0
 752 398 774 376 774 351 c 0
 774 326 752 304 727 304 c 0
 702 304 680 326 680 351 c 0x3874
640 503 m 0x3878
 640 528 661 550 686 550 c 0
 711 550 733 528 733 503 c 0
 733 478 711 456 686 456 c 0
 661 456 640 478 640 503 c 0x3878
640 199 m 0
 640 224 661 246 686 246 c 0
 711 246 733 224 733 199 c 0
 733 174 711 152 686 152 c 0
 661 152 640 174 640 199 c 0
528 615 m 0
 528 640 550 662 575 662 c 0
 600 662 621 640 621 615 c 0
 621 590 600 568 575 568 c 0x3c70
 550 568 528 590 528 615 c 0
528 88 m 0
 528 113 550 135 575 135 c 0
 600 135 621 113 621 88 c 0
 621 62 601 40 575 40 c 0x7870
 549 40 528 62 528 88 c 0
376 655 m 0
 376 680 398 702 423 702 c 0
 448 702 469 680 469 655 c 0
 469 630 448 608 423 608 c 0x3a70
 398 608 376 630 376 655 c 0
376 47 m 0
 376 72 398 94 423 94 c 0
 448 94 469 72 469 47 c 0
 469 22 448 0 423 0 c 0xb870
 398 0 376 22 376 47 c 0
224 615 m 0
 224 640 245 662 270 662 c 0
 295 662 317 640 317 615 c 0
 317 590 295 568 270 568 c 0x3c70
 245 568 224 590 224 615 c 0
224 88 m 0
 224 113 245 135 270 135 c 0
 295 135 317 113 317 88 c 0
 317 62 296 40 270 40 c 0x7870
 244 40 224 62 224 88 c 0
113 503 m 0x38f0
 113 528 135 550 160 550 c 0
 185 550 207 528 207 503 c 0
 207 478 185 456 160 456 c 0
 135 456 113 478 113 503 c 0x38f0
113 199 m 0
 113 224 135 246 160 246 c 0
 185 246 207 224 207 199 c 0
 207 174 185 152 160 152 c 0
 135 152 113 174 113 199 c 0
72 351 m 0x3970
 72 376 93 398 118 398 c 0
 143 398 165 376 165 351 c 0
 165 326 143 304 118 304 c 0
 93 304 72 326 72 351 c 0x3970
EndSplineSet
EndChar

StartChar: u0981.salt
Encoding: 65536 -1 15
GlifName: u0981.salt
Width: 779
GlyphClass: 2
Flags: W
HStem: 1063 16<637.478 698.787> 1112 16<653.002 682.682> 1160 17<652.691 682.687>
VStem: 576 29<1100.87 1173.64> 635 16<1130.37 1157.93> 684 16<1129.32 1158.65> 732 30<1100.87 1174.45>
LayerCount: 2
Fore
SplineSet
651 1144 m 0
 651 1134 658 1128 668 1128 c 0
 679 1128 684 1133 684 1144 c 0
 684 1155 679 1160 668 1160 c 0
 658 1160 651 1154 651 1144 c 0
635 1144 m 0
 635 1163 649 1177 668 1177 c 0
 687 1177 700 1163 700 1144 c 0
 700 1126 686 1112 668 1112 c 0
 650 1112 635 1126 635 1144 c 0
576 1136 m 0
 576 1161 590 1185 618 1206 c 1
 643 1196 l 1
 624 1183 605 1162 605 1136 c 0
 605 1104 636 1079 668 1079 c 0
 700 1079 732 1104 732 1136 c 0
 732 1162 713 1183 694 1196 c 1
 719 1206 l 1
 748 1184 762 1161 762 1136 c 0
 762 1092 712 1063 668 1063 c 0
 624 1063 576 1092 576 1136 c 0
EndSplineSet
EndChar

StartChar: u099c_u09cd_u099e.akhn
Encoding: 65537 -1 16
GlifName: u099c_u09cd_u099e.akhn
Width: 995
VWidth: 1024
GlyphClass: 3
Flags: W
HStem: 0 83<255.923 367.278> 79 87<755.683 834.056> 217 97<93.2908 180.852> 394 89<227.596 334.416> 569 88<509.867 602.448> 622 81<724.591 827.685> 738 80<0 221 327.549 579.751> 1003 20G<895 899>
VStem: 3 86<135.164 210.922> 127 90<493.369 614.787> 194 93<125.878 202.745> 617 113<426.911 555.885> 664 66<192.026 313> 857 74<189.579 294.814 481.311 592.992> 904 78<843.177 941.309>
AnchorPoint: "Anchor-0" 476 836 basechar 0
AnchorPoint: "Anchor-1" 790 64 basechar 0
LayerCount: 2
Fore
SplineSet
730 212 m 1x738c
 759 191 765 166 783 166 c 0
 823 166 857 200 857 240 c 0
 857 300 791 344 730 350 c 1
 730 212 l 1x738c
723 607 m 1
 727 592 729 576 729 560 c 2
 729 426 l 1
 790 432 857 476 857 537 c 0
 857 582 821 622 776 622 c 0x3784
 759 622 742 617 725 608 c 0
 724 608 724 607 723 607 c 1
89 177 m 0
 89 146 118 121 149 121 c 0
 152 121 156 122 159 122 c 0
 179 125 194 138 194 161 c 0x33a0
 194 192 166 217 134 217 c 0
 131 217 127 216 124 216 c 0
 105 213 89 199 89 177 c 0
0 738 m 1
 0 818 l 1
 341 818 l 2
 624 818 877 818 895 852 c 0
 900 861 904 875 904 884 c 0
 904 907 885 944 866 960 c 2
 849 974 l 1
 869 998 l 2
 880 1011 893 1023 897 1023 c 0
 901 1023 918 1009 935 992 c 0
 959 968 968 954 975 928 c 0
 979 912 982 897 982 882 c 0
 982 843 967 807 937 779 c 0
 898 741 648 741 378 739 c 1
 361 734 344 728 331 719 c 0
 294 692 263 658 238 614 c 0
 225 590 217 567 217 544 c 0
 217 507 235 483 271 483 c 0
 283 483 297 487 312 493 c 0
 340 505 367 526 391 555 c 0
 428 599 469 630 514 646 c 0
 535 653 555 657 573 657 c 0xbbd2
 594 657 613 652 630 642 c 0
 633 640 637 639 640 639 c 0
 664 639 692 680 692 680 c 1
 718 695 746 703 776 703 c 0
 863 703 931 625 931 537 c 0
 931 461 879 409 821 388 c 1
 879 367 931 314 931 240 c 0
 931 155 866 79 783 79 c 0x77c4
 764 79 739 91 709 114 c 0
 697 124 675 130 664 136 c 1
 664 195 664 254 664 313 c 1
 653 283 653 280 635 249 c 0
 568 133 486 57 388 21 c 0
 348 6 309 0 270 0 c 0
 212 0 155 15 98 48 c 0
 58 71 30 103 14 141 c 0
 6 159 3 176 3 193 c 0
 3 256 52 296 100 309 c 0
 112 312 124 314 136 314 c 0
 159 314 182 308 204 295 c 0
 246 271 271 238 282 194 c 0
 285 182 287 170 287 159 c 0xb3ac
 287 130 276 106 255 85 c 1
 264 84 272 83 281 83 c 0
 322 83 366 99 411 130 c 0
 466 168 515 223 556 295 c 0
 590 354 609 409 615 462 c 0
 616 472 617 481 617 490 c 0
 617 527 606 552 584 564 c 0
 579 567 573 569 566 569 c 0
 556 569 545 566 532 560 c 0
 510 550 490 533 470 510 c 0
 428 460 381 425 330 407 c 0
 306 399 284 394 263 394 c 0
 176 394 127 462 127 547 c 0xbbd0
 127 585 138 622 159 659 c 0
 177 690 198 714 221 738 c 1
 0 738 l 1
EndSplineSet
LCarets2: 2 0 0
Ligature2: "'akhn' Akhand in Bengali lookup 2 subtable" u099c u09cd u099e
EndChar

StartChar: u0995_u09cd_u09b7.akhn
Encoding: 65538 -1 17
GlifName: u0995_u09cd_u09b7.akhn
Width: 1153
VWidth: 1024
GlyphClass: 3
Flags: W
HStem: 68 98<710.523 807.671> 104 106<374.274 546.543> 160 72<81.6759 145.626> 226 68<855.279 988.449> 368 68<155.5 249.98> 442 72<168.021 229.943> 444 81<841.404 925.5> 612 106<170.609 228.321> 738 79<58 256 345 611> 763 21G<983 1014.5> 1003 20G<1061 1084.5>
VStem: 10 60<243.444 322.025> 96 60<525.444 604.025> 152 76<236.263 322.779> 236 76<517.812 605.907> 249 102<232.533 333.223> 378 112<482.445 610.4> 611 78<255.118 671> 753 72<323.529 417.017> 1055 83<372.42 543.983> 1070 80<859.516 941.113>
AnchorPoint: "Anchor-0" 527 843 basechar 0
AnchorPoint: "Anchor-1" 770 54 basechar 0
LayerCount: 2
Fore
SplineSet
345 739 m 1x4931e0
 424 708 490 629 490 535 c 0
 490 458 453 398 406 364 c 0
 385 349 360 325 351 297 c 0
 351 290 352 281 352 270 c 0
 352 265 351 261 351 256 c 0
 365 226 412 210 451 210 c 0
 515 210 568 239 611 269 c 1
 611 740 l 1
 572 739 522 739 458 739 c 2
 345 739 l 1x4931e0
156 560 m 0x0d3ae0
 156 541 184 514 202 514 c 0
 223 514 236 537 236 562 c 0
 236 587 219 612 196 612 c 0
 175 612 156 585 156 560 c 0x0d3ae0
70 278 m 0
 70 259 98 232 116 232 c 0
 137 232 152 255 152 280 c 0x2934e0
 152 305 133 330 110 330 c 0
 89 330 70 303 70 278 c 0
-14 742 m 1
 -14 742 16 756 35 775 c 0
 43 782 51 801 58 812 c 1
 58 817 l 1
 61 817 l 2
 62 818 62 819 63 819 c 1
 63 817 l 1
 448 817 l 2
 533 817 601 816 653 816 c 0
 784 816 1070 824 1070 884 c 0
 1070 907 1051 944 1032 960 c 2
 1015 974 l 1
 1035 997 l 2
 1046 1010 1059 1023 1063 1023 c 0
 1106 1023 1148 929 1148 882 c 0
 1148 869 1150 856 1150 844 c 0x2dbae8
 1150 817 1141 793 1081 774 c 0
 1054 765 1027 763 1002 763 c 0
 964 763 932 769 925 769 c 0
 922 769 921 768 921 767 c 0
 921 761 955 741 955 741 c 1
 955 741 1138 589 1138 463 c 0
 1138 422 1127 380 1106 340 c 0
 1086 302 1038 257 1000 239 c 0
 974 227 965 226 922 226 c 0
 866 226 839 235 804 267 c 0
 771 297 753 334 753 374 c 0
 753 461 831 525 902 525 c 0
 949 525 988 491 988 452 c 0
 988 414 960 388 928 388 c 0
 906 388 885 400 876 423 c 0
 872 433 869 442 868 443 c 2
 868 443 868 444 867 444 c 0
 860 444 836 420 830 407 c 0
 827 400 825 391 825 381 c 0
 825 324 869 294 923 294 c 0
 940 294 957 298 972 305 c 0
 1023 330 1055 399 1055 467 c 0
 1055 496 1049 525 1037 550 c 0
 1016 592 977 629 929 652 c 2
 889 671 l 1
 822 671 756 671 689 671 c 1
 689 247 l 2
 689 206 714 166 754 166 c 0
 795 166 825 200 845 230 c 1
 897 174 l 1
 865 128 818 68 754 68 c 0x9b70f0
 698 68 649 111 628 161 c 1
 585 128 521 104 451 104 c 0
 395 104 340 124 302 159 c 1
 256 178 l 1
 270 196 l 2
 270 197 271 196 271 197 c 0
 257 220 249 246 249 275 c 0
 249 299 254 320 261 338 c 1
 247 350 230 358 214 362 c 0
 199 366 190 368 184 368 c 0
 181 368 178 368 178 366 c 0
 178 363 184 358 192 350 c 0
 216 327 228 304 228 276 c 0x4935f0
 228 213 174 160 120 160 c 0
 65 160 10 217 10 288 c 0
 10 343 43 396 100 424 c 0
 123 435 135 436 176 436 c 0
 219 436 229 435 256 422 c 0
 271 415 285 405 298 394 c 1
 318 415 340 433 361 452 c 1
 342 460 l 1
 354 478 l 2
 370 500 378 525 378 550 c 0
 378 584 369 601 348 618 c 1
 325 630 296 638 269 640 c 1
 293 616 312 590 312 558 c 0
 312 495 258 442 204 442 c 0
 149 442 96 499 96 570 c 0
 96 625 129 678 186 706 c 0
 208 716 219 718 256 718 c 1
 256 738 l 1
 190 738 124 738 58 738 c 0x2dbae0
 53 738 49 741 44 741 c 0
 25 741 6 741 -14 742 c 1
EndSplineSet
LCarets2: 2 0 0
Ligature2: "'akhn' Akhand in Bengali lookup 2 subtable" u0995 u09cd u09b7
EndChar

StartChar: u09b9_u09cd_u09ae.cjct
Encoding: 65539 -1 18
GlifName: u09b9_u09cd_u09ae.cjct
Width: 693
GlyphClass: 3
Flags: W
HStem: 0 78<164.568 241.34> 396 49<90.5898 221.688> 492 42<91.7061 222.552> 615 21G<136.977 176> 665 47<192.921 278.103> 737 78<0 478.521>
VStem: 36 54<449.159 486.284> 65 91<84.196 192.356> 292 55<537.026 652.724> 546 78<141.332 355.059> 585 65<568.337 646.494> 615 78<824.691 939.121>
AnchorPoint: "Anchor-0" 326 834 basechar 0
AnchorPoint: "Anchor-1" 494 -6 basechar 0
LayerCount: 2
Fore
SplineSet
304 465 m 2xfc80
 304 463 308 456 314 448 c 0
 326 432 335 408 338 388 c 1
 335 424 328 456 318 486 c 1
 312 480 304 465 304 465 c 2xfc80
156 130 m 0xfd80
 156 105 171 78 195 78 c 0
 223 78 248 98 270 138 c 0
 292 178 307 227 312 286 c 1
 265 269 228 246 199 218 c 0
 170 190 156 160 156 130 c 0xfd80
90 465 m 0xfe80
 90 449 124 445 149 445 c 2
 157 445 l 2
 181 447 223 462 223 469 c 0
 223 485 165 492 142 492 c 0
 123 492 90 483 90 465 c 0xfe80
-61 737 m 1
 0 815 l 1
 306 815 l 2
 383 815 441 814 484 814 c 0
 608 814 615 822 615 882 c 0
 615 905 596 942 577 958 c 2
 560 972 l 1
 580 995 l 2
 591 1008 604 1020 608 1020 c 0
 651 1020 693 927 693 880 c 0xfc90
 693 841 677 806 648 777 c 0
 625 755 617 745 561 741 c 1
 582 723 610 694 620 684 c 0
 640 664 650 640 650 611 c 0xfca0
 650 540 609 486 566 449 c 1
 599 379 624 302 624 208 c 0
 624 107 559 38 494 0 c 1
 442 65 l 1
 474 84 499 106 518 131 c 0
 537 156 546 182 546 208 c 0
 546 284 538 354 514 403 c 1
 475 371 435 339 390 319 c 1
 390 231 371 156 333 94 c 0
 295 32 249 0 195 0 c 0
 123 0 65 58 65 130 c 0xfdc0
 65 171 88 213 133 255 c 0
 178 297 265 334 339 361 c 1
 290 361 l 1
 284 387 l 2
 280 404 271 435 265 435 c 0
 264 435 256 431 246 425 c 0
 214 405 180 396 148 396 c 0
 98 396 36 424 36 464 c 0
 36 511 100 534 150 534 c 0
 181 534 214 527 244 512 c 2
 265 501 l 1
 282 521 292 545 292 586 c 0
 292 626 279 665 239 665 c 0
 214 665 182 638 176 622 c 1
 130 615 l 1
 145 658 l 1
 150 670 l 2
 152 670 159 680 159 680 c 1
 159 680 205 712 242 712 c 0
 311 712 347 650 347 587 c 0
 347 580 347 573 346 566 c 0
 367 513 384 452 384 384 c 1
 425 401 459 426 488 455 c 1
 488 456 l 2
 488 467 556 544 572 570 c 0
 574 574 576 577 575 578 c 0
 582 592 585 603 585 611 c 0xfea0
 585 622 582 630 574 638 c 0
 572 640 486 710 453 738 c 1
 416 738 372 737 316 737 c 2
 -61 737 l 1
EndSplineSet
LCarets2: 2 0 0
Ligature2: "'cjct' Conjunct Forms in Bengali2 lookup 13" u09b9 u09cd u09ae
EndChar

StartChar: u09a4_u09cd_u09a4.cjct
Encoding: 65540 -1 19
GlifName: u09a4_u09cd_u09a4.cjct
Width: 784
GlyphClass: 3
Flags: W
HStem: 38 48<217.446 439.998> 223 22<138.408 195.31> 316 80<139.77 169> 365 49<250.08 369.475> 551 51<133.789 202.577> 665 58<421.169 518.018> 672 51<140.217 201.045> 740 78<-79 -69 -67 675.3> 1003 20G<673.5 703.5>
VStem: 50 75<162.715 272.292 489.467 614.415> 205 74<255.013 312.683 603.961 668.303> 339 80<282.918 331.2 610.203 658.283> 545 73<171.171 311.037 499.037 638.884> 685 98<829.757 935.758>
AnchorPoint: "Anchor-0" 302 830 basechar 0
AnchorPoint: "Anchor-1" 338 26 basechar 0
LayerCount: 2
Fore
SplineSet
136 637 m 0xcbfc
 136 617 156 602 174 602 c 0
 194 602 205 620 205 635 c 0
 205 649 192 672 171 672 c 0
 153 672 136 656 136 637 c 0xcbfc
136 281 m 0
 136 261 156 245 174 245 c 0
 194 245 205 264 205 279 c 0
 205 293 192 316 171 316 c 0xe9fc
 153 316 136 300 136 281 c 0
125 223 m 0
 125 141 226 86 320 86 c 2
 334 86 l 1
 465 93 545 152 545 246 c 0
 545 294 514 337 474 337 c 0
 450 337 419 328 419 308 c 0
 419 293 452 279 471 256 c 2
 481 244 l 1
 464 245 447 245 430 245 c 0
 415 245 399 246 384 246 c 1
 370 256 l 2
 352 269 340 293 339 309 c 0
 339 331 352 352 373 367 c 1
 362 366 351 365 340 365 c 2
 323 365 l 2xd9fc
 297 365 272 367 249 371 c 1
 268 356 279 335 279 310 c 0
 278 260 238 223 174 223 c 0
 156 223 140 228 128 228 c 0
 126 228 125 227 125 223 c 0
50 242 m 0
 50 322 85 392 169 396 c 1
 94 431 50 493 50 569 c 0
 50 651 87 723 176 723 c 0xebfc
 231 723 279 687 279 637 c 0
 278 587 238 551 174 551 c 0
 156 551 140 556 128 556 c 0
 126 556 125 555 125 551 c 0
 125 469 226 414 320 414 c 2
 334 414 l 1
 465 421 545 480 545 574 c 0
 545 622 514 665 474 665 c 0
 450 665 419 655 419 635 c 0
 419 620 452 607 471 584 c 2
 481 571 l 1
 449 572 416 572 384 573 c 1
 370 583 l 2
 352 596 340 620 339 636 c 0
 339 684 398 723 468 723 c 0xddfc
 572 723 618 650 618 573 c 0
 618 495 567 431 484 395 c 1
 568 388 618 332 618 246 c 0
 618 220 612 196 602 174 c 0
 565 96 468 43 340 38 c 1
 323 38 l 2
 159 38 50 123 50 242 c 0
-164 742 m 1
 -164 742 -126 756 -102 775 c 0
 -94 781 -87 794 -79 805 c 1
 -79 818 l 1
 -69 818 l 1
 -67 819 l 1
 -67 818 l 1
 426 818 l 2
 522 818 467 817 521 817 c 0
 676 817 685 825 685 885 c 0
 685 908 662 945 638 961 c 2
 616 975 l 1
 641 998 l 2
 656 1012 671 1022 676 1023 c 0
 731 1023 783 929 783 882 c 0
 783 843 764 808 726 780 c 0
 676 741 810 742 439 740 c 2
 -79 740 l 1
 -79 741 l 1
 -83 741 -87 741 -91 741 c 0
 -115 741 -139 741 -164 742 c 1
EndSplineSet
LCarets2: 2 -77 -77
Ligature2: "'cjct' Conjunct Forms in Bengali2 lookup 13" u09a4 u09cd u09a4
EndChar

StartChar: u0995_u09cd.haln
Encoding: 65541 -1 20
GlifName: u0995_u09cd.haln
Width: 1089
GlyphClass: 3
Flags: W
HStem: 49 75<658.341 756.002> 86 74<261.237 445.93> 193 62<802.232 927.2> 389 74<790.402 830.52> 536 101<261.145 448.846> 594 67<654 835> 741 84<0 563 658 947.917 948 1000.66>
VStem: 78 82<257.396 441.965> 550 101<259.123 438.738> 563 88<548 594 661 740.969> 713 65<278.589 379.05> 984 75<320.499 495.853> 1005 79<829.835 890.98>
AnchorPoint: "Anchor-0" 512 846 basechar 0
AnchorPoint: "Anchor-1" 706 22 basechar 0
LayerCount: 2
Fore
SplineSet
902 -115 m 1x3320
 965 -82 l 1
 965 -82 1013 -106 1033 -132 c 0
 1050 -154 1057 -200 1057 -200 c 1
 989 -222 l 1
 989 -222 978 -184 963 -165 c 0
 944 -141 902 -115 902 -115 c 1x3320
160 346 m 2
 160 225 259 160 352 160 c 0
 444 160 547 222 550 343 c 2
 550 355 l 2
 550 458 463 536 355 536 c 0x7ba0
 262 536 160 473 160 361 c 2
 160 346 l 2
-69 742 m 1
 -69 742 -39 756 -20 775 c 0
 -13 781 -6 796 0 807 c 1
 0 825 l 1
 945 825 l 2
 978 825 1005 827 1005 865 c 0
 1005 871 1002 876 1002 876 c 1
 1002 890 l 1
 995 891 l 2
 995 893 992 898 979 911 c 2
 965 925 l 1
 983 946 l 2
 993 958 1004 968 1008 968 c 0
 1047 968 1084 885 1084 842 c 0x7b68
 1084 758 1056 749 948 741 c 1
 948 741 834 742 748 742 c 0
 705 742 669 742 658 741 c 1
 658 741 655 698 654 661 c 1
 900 661 1059 602 1059 407 c 0
 1059 295 982 193 865 193 c 0
 781 193 713 249 713 326 c 0
 713 406 783 463 847 463 c 0
 890 463 924 431 924 396 c 0
 924 362 899 339 871 339 c 0
 833 339 836 369 816 389 c 1
 800 389 778 357 778 333 c 0
 778 281 817 255 865 255 c 0
 945 255 984 336 984 411 c 0
 984 496 933 547 871 577 c 2
 835 594 l 1
 651 594 l 1x3770
 651 405 l 2
 651 309 650 248 650 210 c 0
 650 136 658 124 707 124 c 0
 734 124 775 164 791 164 c 0
 797 164 839 127 839 123 c 0
 839 88 757 49 704 49 c 0xb7a0
 604 49 595 109 565 169 c 0
 562 169 549 163 537 151 c 0
 487 107 424 86 362 86 c 0
 226 86 78 185 78 362 c 0
 78 509 204 637 372 637 c 0
 438 637 512 594 537 572 c 2
 563 548 l 1
 563 741 l 1x7b60
 372 741 180 741 -11 741 c 0
 -30 741 -49 741 -69 742 c 1
EndSplineSet
LCarets2: 1 0
Ligature2: "'haln' Halant Forms in Bengali lookup 12 subtable" u0995 u09cd
EndChar

StartChar: u0996_u09cd.hln
Encoding: 65542 -1 21
GlifName: u0996_u09cd.hln
Width: 993
VWidth: 1024
GlyphClass: 3
Flags: W
HStem: 62 93<195.349 401.928 750.479 867.253> 653 52<132.286 183.334> 746 71<727 832> 791 74<114.588 194.994> 1003 20G<897 920.5>
VStem: 22 109<208.25 322.9 623.178 652.911> 23 83<707.813 781.391> 197 64<717.533 787.694> 495 34<700 731.647> 636 91<178.326 296 457.222 746> 913 78<843.641 942.121>
AnchorPoint: "Anchor-0" 332 866 basechar 0
AnchorPoint: "Anchor-1" 702 18 basechar 0
LayerCount: 2
Fore
SplineSet
761 -42 m 1xc9e0
 824 -9 l 1
 824 -9 872 -33 892 -59 c 0
 909 -81 916 -127 916 -127 c 1
 848 -149 l 1
 848 -149 837 -111 822 -92 c 0
 803 -68 761 -42 761 -42 c 1xc9e0
106 739 m 0xdbe0
 106 719 121 705 145 705 c 0
 173 705 197 734 197 759 c 0
 197 780 179 791 156 791 c 0
 124 791 106 771 106 739 c 0xdbe0
22 264 m 0xede0
 22 355 232 516 303 541 c 1
 232 566 22 548 22 639 c 0xede0
 22 655 27 671 27 686 c 0
 27 698 23 710 23 722 c 0
 23 795 75 865 160 865 c 0xdbe0
 222 865 261 822 261 760 c 0
 261 694 210 653 156 653 c 0
 151 653 138 652 132 650 c 0
 132 646 131 643 131 639 c 0
 131 613 219 608 221 608 c 2
 221 608 484 698 495 819 c 1
 529 709 l 2
 529 700 227 376 182 363 c 0
 140 350 131 302 131 264 c 0
 131 187 218 155 303 155 c 0
 508 155 636 395 636 608 c 2
 636 818 l 1
 719 818 784 817 826 817 c 0
 861 817 880 818 880 820 c 0
 880 824 903 845 903 845 c 2
 903 849 906 848 908 853 c 0
 911 861 913 877 913 885 c 0
 913 908 894 945 875 961 c 2
 858 975 l 1
 878 998 l 2
 889 1011 895 1023 899 1023 c 0
 942 1023 991 930 991 883 c 0
 991 844 977 767 973 765 c 0
 966 762 864 749 864 749 c 2
 864 746 832 746 832 746 c 1
 727 746 l 1
 727 233 l 2
 727 190 759 155 802 155 c 0
 851 155 885 187 911 218 c 1
 974 155 l 1
 935 108 878 62 802 62 c 0
 708 62 631 139 631 233 c 2
 631 296 l 1
 585 173 470 62 311 62 c 0
 161 62 22 124 22 264 c 0xede0
EndSplineSet
LCarets2: 1 0
Ligature2: "'haln' Halant Forms in Bengali lookup 12 subtable" u0996 u09cd
EndChar

StartChar: u0996_u09cd.haln
Encoding: 65543 -1 22
GlifName: u0996_u09cd.haln
Width: 867
VWidth: 1024
GlyphClass: 3
Flags: W
HStem: 42 78<629.122 737.121> 232 78<185.676 357.215> 739 80<154.594 534 617 752> 1003 20G<776 799.5>
VStem: 39 91<622.493 716.038> 403 91<350.846 449.503> 534 83<204.378 739> 785 78<838.886 940.269>
AnchorPoint: "Anchor-0" 396 840 basechar 0
AnchorPoint: "Anchor-1" 590 -4 basechar 0
LayerCount: 2
Fore
SplineSet
683 -22 m 1
 746 11 l 1
 746 11 794 -13 814 -39 c 0
 831 -61 838 -107 838 -107 c 1
 770 -129 l 1
 770 -129 759 -91 744 -72 c 0
 725 -48 683 -22 683 -22 c 1
0 395 m 1
 65 440 l 1
 110 377 179 310 273 310 c 0
 335 310 403 343 403 401 c 0
 403 456 335 487 279 492 c 0
 170 502 39 567 39 674 c 0
 39 760 131 819 221 819 c 2
 752 819 l 1
 752 823 772 839 775 845 c 0
 780 855 785 873 785 885 c 0
 785 908 766 944 747 960 c 2
 730 974 l 1
 750 998 l 2
 761 1011 774 1023 778 1023 c 0
 821 1023 863 930 863 883 c 0
 863 844 848 808 818 780 c 0
 778 741 769 741 617 740 c 1
 617 462 l 2
 617 374 615 308 615 259 c 0
 615 144 624 120 680 120 c 0
 703 120 740 139 756 158 c 2
 770 175 l 1
 794 155 l 2
 807 144 818 131 818 127 c 0
 818 84 725 42 678 42 c 0
 639 42 603 57 575 87 c 0
 536 127 536 155 534 452 c 2
 534 739 l 1
 221 739 l 2
 177 739 130 715 130 674 c 0
 130 523 494 599 494 401 c 0
 494 298 381 232 273 232 c 0
 150 232 57 314 0 395 c 1
EndSplineSet
LCarets2: 1 0
Ligature2: "'haln' Halant Forms in Bengali lookup 12 subtable" u0997 u09cd
EndChar

StartChar: u0998_u09cd.haln
Encoding: 65544 -1 23
GlifName: u0998_u09cd.haln
Width: 1058
VWidth: 1024
GlyphClass: 3
Flags: W
HStem: 35 94<278.564 484.428 830.726 950.682> 430 67<440.432 556> 729 76<91 170.746> 729 1<22.75 69.25>
VStem: 105 109<182.379 294.861 541.119 644.997> 714 92<156.593 269> 721 85<441.061 728> 976 78<832.305 929.121>
AnchorPoint: "Anchor-0" 510 822 basechar 0
AnchorPoint: "Anchor-1" 730 -12 basechar 0
LayerCount: 2
Fore
SplineSet
812 -42 m 1xc9
 875 -9 l 1
 875 -9 923 -33 943 -59 c 0
 960 -81 967 -127 967 -127 c 1
 899 -149 l 1
 899 -149 888 -111 873 -92 c 0
 854 -68 812 -42 812 -42 c 1xc9
214 238 m 0
 214 161 301 129 386 129 c 0
 590 129 714 370 721 581 c 1
 721 728 l 1xcb
 297 728 l 1
 267 677 214 626 214 613 c 0
 214 522 274 497 393 497 c 0
 459 497 531 502 556 502 c 1
 574 430 l 1
 461 430 214 357 214 238 c 0
22 730 m 1xdd
 22 730 52 744 71 763 c 0
 78 769 85 784 91 795 c 1
 91 805 l 1
 93 805 95 805 97 805 c 0
 98 806 98 807 99 807 c 1
 99 805 l 1xed
 385 805 950 805 968 839 c 0
 973 848 976 863 976 872 c 0
 976 895 957 932 938 948 c 2
 921 962 l 1
 941 985 l 2
 952 998 965 1010 969 1010 c 0
 1012 1010 1054 917 1054 870 c 0
 1054 831 1038 796 1009 767 c 0
 1003 761 981 752 981 752 c 1
 981 752 921 738 921 735 c 0
 921 729 904 730 806 729 c 1xdb
 806 207 l 2
 806 164 842 129 885 129 c 0
 933 129 968 161 994 191 c 1
 1057 129 l 1
 1018 82 960 35 885 35 c 0
 792 35 714 114 714 207 c 2
 714 269 l 1
 669 147 552 35 394 35 c 0
 245 35 105 99 105 238 c 0
 105 329 167 400 238 425 c 1
 167 450 105 522 105 613 c 0
 105 626 155 676 183 729 c 1
 70 729 l 2
 54 729 38 730 22 730 c 1xdd
EndSplineSet
Ligature2: "'haln' Halant Forms in Bengali lookup 12 subtable" u0998 u09cd
EndChar

StartChar: u0999_u09cd.haln
Encoding: 65545 -1 24
GlifName: u0999_u09cd.haln
Width: 700
VWidth: 1024
GlyphClass: 3
Flags: W
HStem: 24 20G<473.818 512> 49 69<251.509 375.332> 235 69<89.5309 178.943> 370 72<221.368 341.469> 511 72<498.638 602.022> 611 63<292 332> 753 59<254.87 324.799>
VStem: 0 85<169.894 231.135> 51 58<677.54 781.553> 124 90<451.158 540.886> 175 75<679.543 749.261> 190 93<161.091 224.054> 332 56<679.774 743.908> 614 86<357.748 501.298>
AnchorPoint: "Anchor-0" 354 838 basechar 0
AnchorPoint: "Anchor-1" 334 30 basechar 0
LayerCount: 2
Fore
SplineSet
449 11 m 1xfe0c
 512 44 l 1
 512 44 560 20 580 -6 c 0
 597 -28 604 -74 604 -74 c 1
 536 -96 l 1
 536 -96 525 -58 510 -39 c 0
 491 -15 449 11 449 11 c 1xfe0c
250 713 m 0xfe2c
 250 693 269 674 292 674 c 0
 313 674 332 695 332 716 c 0
 332 731 304 753 286 753 c 0
 264 753 250 732 250 713 c 0xfe2c
85 202 m 0xff1c
 85 176 116 157 147 157 c 0
 150 157 152 158 155 158 c 0
 175 160 190 171 190 190 c 0
 190 215 162 235 130 235 c 2
 120 235 l 2
 100 233 85 221 85 202 c 0xff1c
0 207 m 0
 0 265 64 304 134 304 c 0
 218 304 283 245 283 180 c 0xff1c
 283 157 272 137 251 120 c 1
 260 119 268 118 277 118 c 0
 448 118 614 304 614 448 c 0
 614 481 599 511 561 511 c 0
 519 511 491 486 466 463 c 0
 414 413 351 370 260 370 c 0
 173 370 124 425 124 494 c 0xfe4c
 124 522 136 574 166 593 c 1
 103 611 51 651 51 723 c 0
 51 763 58 785 77 804 c 2
 89 817 l 1
 108 811 127 804 146 798 c 1
 133 784 l 2
 117 766 109 745 109 725 c 0
 109 679 162 644 219 644 c 0
 222 644 224 644 224 646 c 0
 224 648 219 652 211 658 c 0
 187 677 175 696 175 719 c 0xfeac
 175 770 229 812 283 812 c 0xfe1c
 327 812 388 775 388 726 c 0
 388 677 334 611 332 611 c 0
 327 611 326 608 326 604 c 0
 326 599 328 592 328 589 c 0
 328 587 328 587 327 587 c 0
 297 587 214 546 214 501 c 2
 214 488 l 2xfe4c
 215 460 234 442 268 442 c 0
 319 442 359 472 388 500 c 0
 434 545 487 583 569 583 c 0
 660 583 700 517 700 440 c 0
 700 246 493 49 268 49 c 0
 153 49 0 107 0 207 c 0
EndSplineSet
Ligature2: "'haln' Halant Forms in Bengali lookup 12 subtable" u0999 u09cd
LCarets2: 1 0
EndChar

StartChar: u099a_u09cd.haln
Encoding: 65546 -1 25
GlifName: u099a_u09cd.haln
Width: 888
GlyphClass: 3
Flags: W
HStem: 46 83<98.0002 198.404> 65 106<431.147 625.779> 588 89<428.971 626.986> 735 84<0 199.843> 737 74<498 795.466>
VStem: 207 97<135.001 157 298.637 460.176 579 735> 748 96<284.585 473.187> 807 78<824.5 937.517>
AnchorPoint: "Anchor-0" 454 828 basechar 0
AnchorPoint: "Anchor-1" 526 32 basechar 0
LayerCount: 2
Fore
SplineSet
689 27 m 1x26
 752 60 l 1
 752 60 800 36 820 10 c 0
 837 -12 844 -58 844 -58 c 1
 776 -80 l 1
 776 -80 765 -42 750 -23 c 0
 731 1 689 27 689 27 c 1x26
310 372 m 2
 313 238 429 171 531 171 c 0x66
 636 171 748 243 748 379 c 0
 748 512 638 588 527 588 c 0
 407 588 310 500 310 384 c 2
 310 372 l 2
-60 735 m 1xb6
 -60 763 0 791 0 819 c 1
 25 819 l 2xb6
 172 819 498 811 498 811 c 1
 638 811 l 2
 797 811 807 817 807 882 c 0
 807 905 788 941 769 957 c 2
 752 971 l 1
 773 995 l 2
 784 1008 797 1019 801 1019 c 0
 844 1019 885 928 885 881 c 0x2d
 885 809 836 737 752 737 c 2
 304 737 l 1
 304 579 l 1
 336 604 l 2
 364 629 446 677 519 677 c 0
 707 677 844 534 844 371 c 0
 844 173 684 65 531 65 c 0x6e
 462 65 392 88 336 137 c 0
 322 149 310 158 306 158 c 0
 305 158 305 157 305 157 c 1
 281 86 254 46 150 46 c 0
 91 46 0 89 0 128 c 0
 0 132 47 174 54 174 c 0
 72 174 117 129 146 129 c 0
 200 129 207 142 207 219 c 2
 207 735 l 1
 -60 735 l 1xb6
EndSplineSet
LCarets2: 1 0
Ligature2: "'haln' Halant Forms in Bengali lookup 12 subtable" u099a u09cd
EndChar

StartChar: u099b_u09cd.haln
Encoding: 65547 -1 26
GlifName: u099b_u09cd.haln
Width: 905
GlyphClass: 3
Flags: W
HStem: -3 90<767.619 867> 232 58<60.32 140.806> 260 74<290.056 452.2> 392 86<595.188 757.207> 626 63<288.151 452.231> 741 78<0 139.345> 741 69<424 797.809>
VStem: 142 68<622 741> 147 71<404.496 558.493> 524 71<471.311 556.953> 633 78<132.716 213.401> 775 98<297.646 372.317> 826 78<834.993 937.517>
AnchorPoint: "Anchor-0" 370 840 basechar 0
AnchorPoint: "Anchor-1" 654 32 basechar 0
LayerCount: 2
Fore
SplineSet
743 -63 m 1x9860
 806 -30 l 1
 806 -30 854 -54 874 -80 c 0
 891 -102 898 -148 898 -148 c 1
 830 -170 l 1
 830 -170 819 -132 804 -113 c 0
 785 -89 743 -63 743 -63 c 1x9860
218 476 m 2xb8e0
 221 382 300 334 372 334 c 0
 445 334 524 386 524 480 c 0
 524 573 448 626 370 626 c 0
 285 626 218 565 218 483 c 2
 218 476 l 2xb8e0
-69 742 m 1
 -69 742 -39 756 -20 775 c 0
 -13 781 -6 796 0 807 c 1
 0 819 l 1
 23 819 l 2x9d60
 170 819 424 811 424 811 c 2
 495 811 554 810 604 810 c 0
 766 810 826 818 826 882 c 0
 826 905 807 941 788 957 c 2
 771 971 l 1
 792 995 l 2
 803 1008 816 1019 820 1019 c 0
 863 1019 904 928 904 881 c 0x9b68
 904 808 857 741 771 741 c 2
 210 741 l 1
 210 622 l 1
 238 638 l 1
 258 655 316 689 367 689 c 0
 495 689 595 588 595 477 c 2
 595 468 l 1
 620 473 649 478 671 478 c 0
 767 478 873 429 873 340 c 0
 873 246 778 260 729 211 c 0
 716 198 711 188 711 179 c 0
 711 118 799 87 867 87 c 1
 867 -3 l 1
 754 -3 633 64 633 171 c 0
 633 235 673 244 717 270 c 0
 741 285 775 309 775 340 c 0
 775 378 715 392 671 392 c 0
 647 392 610 380 589 380 c 0
 583 378 585 378 569 368 c 1
 569 369 l 1
 528 300 451 260 375 260 c 0xbb70
 327 260 278 276 239 311 c 0
 229 320 221 325 218 325 c 2
 218 325 180 254 163 244 c 0
 145 233 138 232 108 232 c 0
 66 232 3 262 3 289 c 0
 3 291 35 321 40 321 c 0
 53 321 85 290 106 290 c 0
 143 290 147 316 147 370 c 2
 147 424 l 2xd8f0
 147 512 142 632 142 741 c 1
 91 741 40 741 -11 741 c 0xdb60
 -30 741 -49 741 -69 742 c 1
EndSplineSet
LCarets2: 1 0
Ligature2: "'haln' Halant Forms in Bengali lookup 12 subtable" u099b u09cd
EndChar

StartChar: u099c_u09cd.haln
Encoding: 65548 -1 27
GlifName: u099c_u09cd.haln
Width: 1207
VWidth: 1024
GlyphClass: 3
Flags: W
HStem: 6 84<330.357 444.07> 133 68<902.203 1036.51> 217 104<167.68 253.852> 351 81<887.785 972.5> 401 89<301.756 408.941> 576 89<582.508 677.135 762.995 935> 578 69<762 832.825> 742 79<-5 293 398.358 1052.08> 1003 20G<1102 1125.5>
VStem: 76 86<134.805 211.573> 201 90<500.376 627.437> 267 93<125.782 202.26> 691 86<385.975 563.723> 799 73<231.597 338.278> 1101 82<274.905 464.17> 1111 78<830.763 943.848>
AnchorPoint: "Anchor-0" 502 832 basechar 0
AnchorPoint: "Anchor-1" 794 36 basechar 0
LayerCount: 2
Fore
SplineSet
937 70 m 1xe1cc
 1000 103 l 1
 1000 103 1048 81 1068 55 c 0
 1085 33 1092 -15 1092 -15 c 1
 1024 -37 l 1
 1024 -37 1013 1 998 20 c 0
 979 44 937 70 937 70 c 1xe1cc
162 177 m 0
 162 146 191 121 222 121 c 0
 225 121 229 122 232 122 c 0
 252 125 267 138 267 161 c 0xe1dc
 267 192 239 217 207 217 c 0
 204 217 200 216 197 216 c 0
 178 213 162 199 162 177 c 0
-69 742 m 1
 -69 742 -39 756 -20 775 c 0
 -15 780 -10 789 -5 798 c 1
 -5 821 l 1
 802 821 l 2
 876 821 933 820 976 820 c 0
 1103 820 1111 828 1111 887 c 0
 1111 910 1092 947 1073 963 c 2
 1056 977 l 1
 1076 1001 l 2
 1087 1014 1100 1023 1104 1023 c 0
 1147 1023 1189 932 1189 885 c 0
 1189 846 1174 810 1144 782 c 0
 1104 743 1108 743 811 742 c 2
 433 742 l 1
 375 716 291 635 291 552 c 0
 291 515 308 490 344 490 c 0
 395 490 435 527 464 562 c 0
 509 616 566 665 645 665 c 0xeded
 669 665 691 657 707 647 c 1
 743 647 l 1
 780 653 809 661 834 661 c 0
 1038 661 1183 531 1183 370 c 0
 1183 244 1099 133 968 133 c 0
 875 133 799 195 799 281 c 0
 799 369 877 432 949 432 c 0
 996 432 1034 398 1034 359 c 0
 1034 322 1006 295 975 295 c 0
 935 295 936 328 914 350 c 2
 914 350 914 351 913 351 c 0
 898 351 872 315 872 290 c 0
 872 232 915 201 970 201 c 0
 1058 201 1101 290 1101 373 c 0
 1101 468 1045 526 975 559 c 2
 935 578 l 1
 762 578 l 1
 773 553 777 524 777 488 c 0
 777 247 570 6 343 6 c 0
 230 6 76 76 76 198 c 0
 76 271 139 321 209 321 c 0
 293 321 360 248 360 168 c 0xf3de
 360 139 349 113 328 92 c 1
 337 91 345 90 354 90 c 0
 525 90 691 320 691 497 c 0
 691 538 676 576 639 576 c 0
 598 576 567 545 543 517 c 0
 491 456 428 401 337 401 c 0
 250 401 201 469 201 555 c 0xedec
 201 633 250 698 293 741 c 1
 192 741 90 741 -11 741 c 0
 -30 741 -49 741 -69 742 c 1
EndSplineSet
LCarets2: 1 0
Ligature2: "'haln' Halant Forms in Bengali lookup 12 subtable" u099c u09cd
EndChar

StartChar: u099d_u09cd.haln
Encoding: 65549 -1 28
GlifName: u099d_u09cd.haln
Width: 1143
GlyphClass: 3
Flags: W
HStem: 41 83<670.202 780.523> 82 99<253.861 448.115> 224 78<833.62 950.37> 598 97<270.65 452.162> 741 76<3 570.057> 742 66<660.125 859>
VStem: 34 98<294.678 480.308> 573 86<304.081 430.979 596 741> 1003 78<846.566 940.455> 1039 91<449.233 674.754>
AnchorPoint: "Anchor-0" 556 846 basechar 0
AnchorPoint: "Anchor-1" 734 10 basechar 0
LayerCount: 2
Fore
SplineSet
889 29 m 1x33
 952 62 l 1
 952 62 1000 38 1020 12 c 0
 1037 -10 1044 -56 1044 -56 c 1
 976 -78 l 1
 976 -78 965 -40 950 -21 c 0
 931 3 889 29 889 29 c 1x33
659 564 m 1
 686 474 796 302 895 302 c 0
 1001 302 1039 487 1039 597 c 0
 1039 705 964 722 859 722 c 1
 859 741 l 1
 659 741 l 1x3b40
 659 564 l 1
132 389 m 0
 132 253 244 181 349 181 c 0x73
 451 181 567 249 570 382 c 2
 570 394 l 2
 570 510 473 598 353 598 c 0
 242 598 132 521 132 389 c 0
-69 742 m 1x3740
 -69 742 -39 756 -20 775 c 0
 -12 782 -4 801 3 812 c 1
 3 817 l 1
 425 817 l 2x3b40
 510 817 634 808 745 808 c 0
 884 808 1003 822 1003 884 c 0
 1003 907 984 944 965 960 c 2
 948 974 l 1
 968 997 l 2
 978 1008 989 1009 995 1009 c 0
 1049 1009 1081 934 1081 882 c 0x3780
 1081 828 1048 776 1001 756 c 1
 1077 705 1130 703 1130 597 c 0
 1130 441 1049 224 895 224 c 0
 805 224 687 365 658 435 c 1
 658 364 657 308 657 266 c 0
 657 134 665 124 732 124 c 0
 761 124 807 169 825 169 c 0
 832 169 879 127 879 123 c 0
 879 86 787 41 729 41 c 0xb740
 625 41 598 104 574 175 c 1
 574 175 574 176 573 176 c 0
 569 176 556 166 542 154 c 0
 486 105 417 82 348 82 c 0
 196 82 34 193 34 388 c 0
 34 567 155 645 323 690 c 0
 335 693 347 695 360 695 c 0
 433 695 515 647 543 622 c 2
 573 596 l 1
 573 742 l 1
 11 742 l 1x7740
 11 741 l 1
 -11 741 l 2x3b40
 -30 741 -49 741 -69 742 c 1x3740
EndSplineSet
Ligature2: "'haln' Halant Forms in Bengali lookup 12 subtable" u099d u09cd
EndChar

StartChar: u099e_u09cd.haln
Encoding: 65550 -1 29
GlifName: u099e_u09cd.haln
Width: 961
VWidth: 1024
GlyphClass: 3
Flags: W
HStem: 44 92<217.034 429.592> 161 87<730.391 833.056> 174 80<192 230.733> 358 76<148.866 234.129> 551 124<528.556 603.095> 704 81<728.794 826.685> 733 78<523.537 621.169>
VStem: 62 78<264.855 349.344> 244 78<265.051 347.129> 429 78<636.5 716.463> 650 78<338.083 432 508 699.677> 856 74<271.579 376.814 563.311 674.992>
AnchorPoint: "Anchor-0" 612 834 basechar 0
AnchorPoint: "Anchor-1" 632 50 basechar 0
LayerCount: 2
Fore
SplineSet
728 508 m 1x9df0
 789 514 856 558 856 619 c 0
 856 664 820 704 775 704 c 0
 758 704 745 699 728 690 c 1
 728 508 l 1x9df0
719 68 m 1
 782 101 l 1
 782 101 830 77 850 51 c 0
 867 29 874 -17 874 -17 c 1
 806 -39 l 1
 806 -39 795 -1 780 18 c 0
 761 42 719 68 719 68 c 1
712 279 m 1
 741 258 764 248 782 248 c 0xd9f0
 822 248 856 282 856 322 c 0
 856 382 790 426 729 432 c 1
 729 294 l 1
 712 279 l 1
140 306 m 0
 140 276 163 254 192 254 c 0xb9f0
 219 254 244 279 244 306 c 0
 244 335 221 358 192 358 c 0
 161 358 140 337 140 306 c 0
62 292 m 0
 62 367 118 434 192 434 c 0
 264 434 322 376 322 304 c 0
 322 232 264 174 192 174 c 1
 221 149 269 136 322 136 c 0
 475 136 592 261 650 376 c 1
 650 642 l 2
 650 688 617 733 572 733 c 0
 536 733 507 704 507 668 c 0
 507 654 510 638 520 636 c 1
 524 658 546 675 572 675 c 0
 603 675 624 647 624 616 c 0
 624 578 585 551 546 551 c 0
 483 551 429 606 429 668 c 0
 429 746 494 811 572 811 c 0xbbf0
 615 811 652 795 682 762 c 1
 682 759 l 1
 713 759 741 785 775 785 c 0
 862 785 930 707 930 619 c 0
 930 543 878 491 820 470 c 1
 878 449 930 396 930 322 c 0
 930 237 865 161 782 161 c 0xddf0
 754 161 704 202 674 218 c 1
 674 218 672 233 672 245 c 1
 650 226 l 1
 590 131 461 44 322 44 c 0
 183 44 62 154 62 292 c 0
EndSplineSet
Ligature2: "'haln' Halant Forms in Bengali lookup 12 subtable" u099e u09cd
EndChar

StartChar: u099f_u09cd.haln
Encoding: 65551 -1 30
GlifName: u099f_u09cd.haln
Width: 897
GlyphClass: 3
Flags: W
HStem: 34 83<101.262 201.188> 74 106<436.428 627.304> 258 75<516.84 605.886> 437 95<528.422 616.879> 611 69<576.029 699.366> 736 74<127.25 209 307 367 511 791.758> 974 57<448.582 536.002> 1113 78<455.288 535.764>
VStem: 209 98<125.293 168 300.744 733> 348 83<412.329 552.564> 384 60<1037.37 1100.81> 591 69<953.548 1074> 620 96<346.971 432.381> 775 73<336.89 480.861> 810 78<829.666 937.037>
AnchorPoint: "Anchor-0" 192 854 basechar 0
AnchorPoint: "Anchor-1" 554 36 basechar 0
LayerCount: 2
Fore
SplineSet
673 36 m 1x3f80
 736 69 l 1
 736 69 784 45 804 19 c 0
 821 -3 828 -49 828 -49 c 1
 760 -71 l 1
 760 -71 749 -33 734 -14 c 0
 715 10 673 36 673 36 c 1x3f80
512 375 m 0
 512 350 529 333 557 333 c 0
 597 333 620 357 620 399 c 0x3f88
 620 425 603 437 580 437 c 0
 547 437 512 414 512 375 c 0
444 1067 m 0x3fa0
 444 1045 469 1031 494 1031 c 0
 519 1031 543 1050 543 1073 c 0
 543 1094 516 1113 491 1113 c 0
 472 1113 444 1085 444 1067 c 0x3fa0
-69 742 m 1
 -69 742 -39 756 -20 775 c 0
 -17 777 -15 782 -12 786 c 2
 -12 820 l 1
 -12 820 233 815 367 812 c 1
 367 818 495 901 528 915 c 0
 559 928 591 975 591 1018 c 0
 591 1021 591 1023 589 1023 c 0
 586 1023 581 1018 573 1009 c 0
 551 985 527 974 499 974 c 0
 436 974 384 1027 384 1082 c 0
 384 1137 440 1191 510 1191 c 0
 589 1191 660 1125 660 1023 c 0
 660 937 621 892 563 862 c 0
 555 858 516 822 511 810 c 1
 567 810 l 1
 815 829 784 816 801 849 c 0
 806 858 810 872 810 881 c 0xbfb2
 810 904 791 941 772 957 c 2
 755 971 l 1
 775 995 l 2xbf84
 786 1008 799 1019 803 1019 c 0
 846 1019 888 927 888 880 c 0xbf82
 888 809 839 736 755 736 c 2
 307 736 l 1
 307 382 l 2
 310 253 434 180 534 180 c 0
 668 180 775 295 775 452 c 0
 775 540 683 605 674 611 c 1
 656 611 l 2
 649 612 649 614 642 614 c 0
 616 614 576 605 576 605 c 2
 495 593 431 577 431 481 c 0
 431 458 446 408 452 408 c 0
 455 408 459 416 462 432 c 0
 475 488 513 532 583 532 c 0
 649 532 716 489 716 414 c 0
 716 325 634 258 551 258 c 0
 445 258 355 350 349 456 c 0
 349 460 348 465 348 470 c 0
 348 577 439 680 548 680 c 2
 675 680 l 2
 714 680 848 509 848 381 c 0
 848 185 686 74 534 74 c 0x7fcc
 465 74 396 97 340 146 c 0
 326 159 313 168 309 168 c 1
 309 167 l 1
 285 96 257 34 153 34 c 0
 94 34 3 78 3 115 c 0
 3 119 50 161 57 161 c 0
 75 161 121 117 150 117 c 0xbfcc
 203 117 209 130 209 206 c 2
 209 733 l 1
 -12 733 l 1
 -12 741 l 1
 -31 741 -50 741 -69 742 c 1
EndSplineSet
LCarets2: 3 0 0 0
Ligature2: "'haln' Halant Forms in Bengali lookup 12 subtable" u099f u09cd zwnj 
EndChar

StartChar: u09a0_u09cd.haln
Encoding: 65552 -1 31
GlifName: u09a0_u09cd.haln
Width: 539
VWidth: 1024
GlyphClass: 3
Flags: W
HStem: 42 136<208.824 331.448> 421 126<175.714 348.731> 741 78<0 185 242.609 369.023 446 463.117> 978 49<250.85 311.696> 1092 50<251.387 312.153>
VStem: 91 57<242.09 392.926> 117 57<892.813 1055.03> 199 50<1030.05 1059.89> 314 48<1029.42 1089.48> 432 76<324.792 559.912> 481 56<833.744 954.573>
AnchorPoint: "Anchor-0" 358 852 basechar 0
AnchorPoint: "Anchor-1" 310 2 basechar 0
LayerCount: 2
Fore
SplineSet
358 -28 m 1xf980
 421 5 l 1
 421 5 469 -19 489 -45 c 0
 506 -67 513 -113 513 -113 c 1
 445 -135 l 1
 445 -135 434 -97 419 -78 c 0
 400 -54 358 -28 358 -28 c 1xf980
249 1059 m 0
 249 1041 263 1027 281 1027 c 0
 300 1027 314 1040 314 1059 c 0
 314 1078 300 1092 281 1092 c 0
 262 1092 249 1078 249 1059 c 0
148 320 m 0xfdc0
 148 247 200 178 271 178 c 0
 379 178 432 340 432 461 c 0
 432 497 427 529 422 562 c 1
 404 496 363 421 290 421 c 2
 214 421 l 2
 172 421 148 366 148 320 c 0xfdc0
-69 742 m 1
 -69 742 -39 756 -20 775 c 0
 -13 781 -6 796 0 807 c 1
 0 819 l 1
 185 819 l 1
 158 861 117 901 117 964 c 2
 117 978 l 2
 117 1066 185 1142 272 1142 c 0
 320 1142 362 1107 362 1060 c 0
 362 1015 326 978 281 978 c 0
 236 978 199 1015 199 1060 c 1
 183 1040 174 1014 174 978 c 0
 174 936 188 897 218 858 c 0
 233 838 262 837 296 819 c 1
 441 819 l 2
 463 819 481 879 481 909 c 0
 481 910 481 911 481 912 c 0
 480 930 482 925 462 956 c 1
 500 1023 l 1
 532 975 537 987 537 912 c 0xfba0
 537 849 492 741 446 741 c 1
 487 699 508 575 508 466 c 0
 508 290 436 42 281 42 c 0
 160 42 91 194 91 325 c 0
 91 422 136 547 224 547 c 2
 300 547 l 2
 380 547 369 652 394 689 c 1
 388 689 380 706 362 729 c 0
 353 741 259 744 169 744 c 0
 102 744 36 742 11 741 c 2
 -11 741 l 2
 -30 741 -49 741 -69 742 c 1
EndSplineSet
Ligature2: "'haln' Halant Forms in Bengali lookup 12 subtable" u09a0 u09cd
EndChar

StartChar: u09a1_u09cd.haln
Encoding: 65553 -1 32
GlifName: u09a1_u09cd.haln
Width: 728
VWidth: 1024
GlyphClass: 3
Flags: W
HStem: 46 72<257.269 374.835> 233 83<92.0541 181.499> 385 76<224.819 342.135> 535 75<504.249 604.692> 738 80<0 7 8 221> 1003 20G<641 664.5>
VStem: 3 86<164.137 227.202> 127 90<469.856 595.485> 194 93<154.623 221.178> 617 86<372.301 522.556> 650 78<827.763 941.258>
AnchorPoint: "Anchor-0" 314 850 basechar 0
AnchorPoint: "Anchor-1" 360 38 basechar 0
LayerCount: 2
Fore
SplineSet
487 27 m 1xfe
 550 60 l 1
 550 60 598 36 618 10 c 0
 635 -12 642 -58 642 -58 c 1
 574 -80 l 1
 574 -80 563 -42 548 -23 c 0
 529 1 487 27 487 27 c 1xfe
89 199 m 0
 89 172 118 151 149 151 c 2
 159 151 l 2
 179 154 194 165 194 185 c 0xfe80
 194 212 166 233 134 233 c 0
 131 233 127 232 124 232 c 0
 105 229 89 218 89 199 c 0
-69 742 m 1
 -69 742 -39 756 -20 775 c 0
 -13 782 -7 798 0 809 c 1
 0 818 l 1
 7 818 l 1
 8 819 l 1
 8 818 l 1
 341 818 l 2
 415 818 472 817 515 817 c 0
 642 817 650 825 650 884 c 0
 650 907 631 944 612 960 c 2
 595 974 l 1
 615 998 l 2
 626 1011 639 1023 643 1023 c 0
 686 1023 728 929 728 882 c 0
 728 843 713 807 683 779 c 0
 644 741 646 757 378 739 c 0
 303 734 217 591 217 513 c 0xff20
 217 481 235 461 271 461 c 0
 322 461 362 493 391 523 c 0
 437 570 492 610 573 610 c 0
 663 610 702 542 703 463 c 2
 703 459 l 2
 703 252 497 46 270 46 c 0
 155 46 3 106 3 212 c 0
 3 274 67 316 136 316 c 0
 221 316 287 252 287 183 c 0xfec0
 287 158 276 138 255 120 c 1
 264 119 272 118 281 118 c 0
 452 118 617 315 617 467 c 0
 617 501 602 535 566 535 c 0
 525 535 494 508 470 484 c 0
 418 431 355 385 263 385 c 0
 176 385 127 443 127 516 c 0xff40
 127 584 179 694 221 738 c 1
 0 738 l 1
 0 741 l 1
 -4 741 -7 741 -11 741 c 0
 -30 741 -49 741 -69 742 c 1
EndSplineSet
LCarets2: 1 0
Ligature2: "'haln' Halant Forms in Bengali lookup 12 subtable" u09a1 u09cd
EndChar

StartChar: u09a2_u09cd.haln
Encoding: 65554 -1 33
GlifName: u09a2_u09cd.haln
Width: 906
GlyphClass: 3
Flags: W
HStem: 27 20G<671.818 710> 55 84<96.8725 200.225> 97 106<433.37 622.647> 280 61<530.483 618.532> 444 110<540.333 628.341> 632 71<571.03 695.099> 749 70<304 794.209> 1008 20G<796 819>
VStem: 208 96<145.023 191 323.332 741> 344 82<430.236 575.993> 632 79<360.353 440.716> 771 73<359.692 503.122> 805 78<832.204 945.643>
AnchorPoint: "Anchor-0" 438 860 basechar 0
AnchorPoint: "Anchor-1" 556 62 basechar 0
LayerCount: 2
Fore
SplineSet
647 14 m 1x9fe0
 710 47 l 1
 710 47 758 23 778 -3 c 0
 795 -25 802 -71 802 -71 c 1
 734 -93 l 1
 734 -93 723 -55 708 -36 c 0
 689 -12 647 14 647 14 c 1x9fe0
524 383 m 0
 524 358 541 341 568 341 c 0
 609 345 632 363 632 407 c 0
 632 433 614 444 592 444 c 0
 561 444 524 422 524 383 c 0
-69 742 m 1
 -69 742 -39 756 -20 775 c 0
 -15 780 -9 790 -4 800 c 1
 -4 819 l 1
 209 819 423 819 636 819 c 0
 795 819 805 825 805 890 c 0xdfe8
 805 913 786 949 767 965 c 2
 750 980 l 1
 771 1003 l 2xdff0
 782 1016 794 1028 798 1028 c 0
 840 1028 883 936 883 889 c 0xdfe8
 883 814 836 749 750 749 c 2
 304 749 l 1
 304 405 l 2
 307 275 429 203 530 203 c 0
 663 203 771 318 771 474 c 0
 771 563 679 625 670 632 c 1
 652 632 l 2
 645 633 645 635 638 636 c 0
 612 636 571 627 571 627 c 2
 491 616 426 599 426 505 c 0
 426 482 441 430 448 430 c 0
 451 430 453 439 457 454 c 0
 470 510 509 554 579 554 c 0
 645 554 711 511 711 437 c 0
 711 347 631 280 547 280 c 0
 441 280 350 372 344 479 c 1
 344 493 l 2
 344 601 435 703 544 703 c 0
 551 703 663 697 670 696 c 0
 711 696 844 533 844 404 c 0
 844 208 681 97 529 97 c 0xbff0
 460 97 391 120 335 169 c 0
 321 181 308 191 305 191 c 1
 305 190 l 1
 281 119 253 55 149 55 c 0
 89 55 0 99 0 138 c 0
 0 142 46 184 53 184 c 0
 71 184 116 139 145 139 c 0xdff0
 199 139 208 149 208 230 c 2
 208 741 l 1
 135 741 62 741 -11 741 c 0
 -30 741 -49 741 -69 742 c 1
EndSplineSet
LCarets2: 1 0
Ligature2: "'haln' Halant Forms in Bengali lookup 12 subtable" u09a2 u09cd
EndChar

StartChar: u09a3_u09cd.haln
Encoding: 65555 -1 34
GlifName: u09a3_u09cd.haln
Width: 704
GlyphClass: 3
Flags: W
HStem: 49 78<503.6 612.121> 299 68<153.886 287.893> 517 81<218.5 302.699> 741 78<256 401 489 596.603> 1003 20G<617 640.5>
VStem: 7 82<444.058 630.779> 319 72<397.192 504.249> 401 88<205.023 741> 626 78<843.974 941.258>
AnchorPoint: "Anchor-0" 284 856 basechar 0
AnchorPoint: "Anchor-1" 486 18 basechar 0
LayerCount: 2
Fore
SplineSet
533 -35 m 1
 596 0 l 1
 596 0 644 -26 664 -52 c 0
 681 -74 688 -120 688 -120 c 1
 620 -142 l 1
 620 -142 609 -104 594 -85 c 0
 575 -61 533 -35 533 -35 c 1
7 536 m 0
 7 686 131 812 321 817 c 0
 350 818 391 819 448 819 c 2
 465 819 l 2
 557 822 626 830 626 884 c 0
 626 907 607 944 588 960 c 2
 571 974 l 1
 591 997 l 2
 602 1010 615 1023 619 1023 c 0
 662 1023 704 929 704 882 c 0
 704 794 599 746 489 742 c 1
 489 468 l 2
 489 389 488 327 488 280 c 0
 488 151 496 127 555 127 c 0
 578 127 615 146 631 165 c 2
 645 182 l 1
 669 162 l 2
 682 151 693 138 693 134 c 0
 693 91 600 49 553 49 c 0
 514 49 478 64 450 94 c 0
 411 134 410 161 401 458 c 1
 401 741 l 1
 256 741 l 1
 216 725 l 1
 146 692 89 635 89 540 c 0
 89 457 133 367 221 367 c 0
 275 367 319 397 319 454 c 0
 319 479 294 517 278 517 c 0
 277 517 277 516 277 516 c 2
 255 494 257 461 216 461 c 0
 184 461 156 487 156 525 c 0
 156 564 195 598 242 598 c 0
 313 598 391 534 391 447 c 0
 391 361 314 299 222 299 c 0
 91 299 7 411 7 536 c 0
EndSplineSet
LCarets2: 1 0
Ligature2: "'haln' Halant Forms in Bengali lookup 12 subtable" u09a3 u09cd
EndChar

StartChar: u09a4_u09cd.haln
Encoding: 65556 -1 35
GlifName: u09a4_u09cd.haln
Width: 790
GlyphClass: 3
Flags: W
HStem: 41 90<267.035 476.126> 384 95<129.606 196.641> 597 107<508.752 611.161> 610 95<131.177 193.861> 740 78<0 7 8 653.696> 1003 20G<703 727>
VStem: 0 100<286.427 482.61> 208 98<487.335 597.939> 385 107<504.291 580.036> 661 97<307.973 532.157> 712 78<828.058 941.758>
AnchorPoint: "Anchor-0" 390 829 basechar 0
AnchorPoint: "Anchor-1" 402 -29 basechar 0
LayerCount: 2
Fore
SplineSet
543 -19 m 1xcf80
 606 14 l 1
 606 14 654 -10 674 -36 c 0
 691 -58 698 -104 698 -104 c 1
 630 -126 l 1
 630 -126 619 -88 604 -69 c 0
 585 -45 543 -19 543 -19 c 1xcf80
116 544 m 0
 116 507 141 479 165 479 c 0
 191 479 208 512 208 541 c 0
 208 568 192 610 163 610 c 0xdf80
 139 610 116 579 116 544 c 0
0 420 m 0
 0 572 51 705 169 705 c 0xdfc0
 243 705 306 635 306 544 c 0
 304 451 251 384 166 384 c 0
 143 384 120 394 104 394 c 0
 101 394 100 392 100 385 c 0
 100 234 235 131 360 131 c 0
 366 131 373 132 379 132 c 0
 554 145 661 255 661 428 c 0
 661 516 619 597 566 597 c 0
 535 597 492 579 492 542 c 0
 492 513 537 490 562 446 c 2
 575 423 l 1
 532 424 488 426 445 427 c 1
 428 444 l 2
 405 468 386 513 385 543 c 0
 385 632 463 704 557 704 c 0
 695 704 758 571 758 427 c 0xefc0
 758 210 607 53 388 42 c 0
 380 42 372 41 364 41 c 0
 145 41 0 200 0 420 c 0
-69 742 m 1
 -69 742 -39 756 -20 775 c 0
 -14 781 -6 794 0 805 c 1
 0 818 l 1
 7 818 l 1
 8 819 l 1
 8 818 l 1
 403 818 l 2
 480 818 538 817 581 817 c 0
 705 817 712 825 712 885 c 0
 712 908 693 945 674 961 c 2
 657 975 l 1
 677 998 l 2
 689 1012 701 1022 705 1023 c 0
 749 1023 790 929 790 882 c 0xcfa0
 790 843 775 808 745 780 c 0
 705 741 710 742 413 740 c 2
 0 740 l 1
 0 741 l 1
 -11 741 l 2
 -30 741 -49 741 -69 742 c 1
EndSplineSet
LCarets2: 1 0
Ligature2: "'haln' Halant Forms in Bengali lookup 12 subtable" u09a4 u09cd
EndChar

StartChar: u09a5_u09cd.haln
Encoding: 65557 -1 36
GlifName: u09a5_u09cd.haln
Width: 951
VWidth: 1049
GlyphClass: 3
Flags: W
HStem: 30 111<201.825 422.647> 58 94<735.405 850.327> 452 85<116.142 195.707> 619 51<115.132 202.874> 733 61<103.502 270.45> 741 78<710 822.993> 1003 20G<848 872>
VStem: 0 63<614.216 687.547> 9 110<207.619 296.35> 207 66<548.726 611.945> 428 103<556.934 642.795> 615 95<355 741> 856 79<840.146 943.161>
AnchorPoint: "Anchor-0" 360 859 basechar 0
AnchorPoint: "Anchor-1" 654 19 basechar 0
LayerCount: 2
Fore
SplineSet
769 -56 m 1x3278
 832 -23 l 1
 832 -23 880 -47 900 -73 c 0
 917 -95 924 -141 924 -141 c 1
 856 -163 l 1
 856 -163 845 -125 830 -106 c 0
 811 -82 769 -56 769 -56 c 1x3278
108 577 m 0
 108 555 135 537 160 537 c 0
 179 537 207 565 207 583 c 0
 207 605 182 619 157 619 c 0
 132 619 108 600 108 577 c 0
0 641 m 2xbb78
 0 654 l 2xbb78
 0 727 74 794 164 794 c 0
 207 794 291 791 291 791 c 2
 317 791 480 724 498 713 c 0
 523 698 531 662 531 622 c 0
 531 461 426 388 269 349 c 0
 205 333 119 311 119 253 c 0
 119 201 204 141 295 141 c 0xbaf8
 422 141 533 196 589 311 c 1
 615 355 l 1
 615 819 l 1
 710 819 l 2
 814 819 823 822 823 823 c 2
 846 846 l 1
 846 846 856 874 856 885 c 0
 856 909 838 945 818 961 c 2
 801 975 l 1
 822 999 l 2
 833 1012 846 1023 850 1023 c 0
 894 1023 935 931 935 884 c 0
 935 845 890 781 890 781 c 2
 890 778 882 769 881 765 c 0
 879 759 867 744 864 742 c 0
 863 741 863 741 809 741 c 2
 710 741 l 1
 710 485 l 2
 710 188 711 184 752 163 c 0
 763 157 780 152 790 152 c 0
 815 152 862 175 882 197 c 2
 899 214 l 1
 925 189 l 2
 939 175 951 158 951 152 c 0
 951 116 851 58 787 58 c 0x76f8
 712 58 621 115 621 170 c 0
 621 180 620 186 616 186 c 0
 611 186 602 176 588 157 c 0
 540 88 434 30 315 30 c 0
 166 30 9 102 9 248 c 0xb2f8
 9 430 283 444 386 530 c 1
 386 530 428 574 428 607 c 0
 428 613 426 617 423 622 c 0
 387 678 323 695 273 707 c 2
 262 710 l 1
 250 715 l 2
 250 717 196 733 156 733 c 0
 104 733 66 677 66 626 c 0
 66 624 63 614 63 611 c 0
 63 610 64 610 64 610 c 2
 67 610 76 623 84 632 c 0
 106 657 130 670 158 670 c 0
 221 670 273 617 273 562 c 0
 273 507 216 452 147 452 c 0
 54 452 0 523 0 641 c 2xbb78
EndSplineSet
LCarets2: 1 0
Ligature2: "'haln' Halant Forms in Bengali lookup 12 subtable" u09a5 u09cd
EndChar

StartChar: u09a6_u09cd.haln
Encoding: 65558 -1 37
GlifName: u09a6_u09cd.haln
Width: 562
VWidth: 1024
GlyphClass: 3
Flags: W
HStem: 58 84<242.338 432.718> 739 78<0 132 207 467.15> 1003 20G<459 497>
VStem: 124 98<163.329 236.46> 132 75<562.536 739> 288 78<361.347 442.207> 484 78<833.537 940.539>
AnchorPoint: "Anchor-0" 204 865 basechar 0
AnchorPoint: "Anchor-1" 348 1 basechar 0
LayerCount: 2
Fore
SplineSet
401 -47 m 1xe6
 464 -14 l 1
 464 -14 512 -38 532 -64 c 0
 549 -86 556 -132 556 -132 c 1
 488 -154 l 1
 488 -154 477 -116 462 -97 c 0
 443 -73 401 -47 401 -47 c 1xe6
-69 742 m 1
 -69 742 -39 756 -20 775 c 0
 -13 781 -6 796 0 807 c 1
 0 817 l 1
 6 817 l 2
 7 818 7 819 8 819 c 1
 8 817 l 1
 419 817 l 2
 455 817 484 846 484 882 c 0
 484 920 457 952 432 973 c 1
 477 1023 l 1
 517 989 562 944 562 882 c 0
 562 804 497 739 419 739 c 2
 207 739 l 1
 207 568 l 1xee
 286 548 366 485 366 402 c 0
 366 340 325 291 282 266 c 0
 258 251 222 226 222 194 c 0
 222 159 285 142 326 142 c 0
 390 142 450 167 496 194 c 1
 542 130 l 1
 490 87 418 58 326 58 c 0
 233 58 124 108 124 194 c 0xf6
 124 287 220 314 268 362 c 0
 281 375 288 387 288 396 c 0
 288 456 200 486 132 486 c 1
 132 739 l 1xee
 0 739 l 1
 0 741 l 1
 -11 741 l 2
 -30 741 -49 741 -69 742 c 1
EndSplineSet
LCarets2: 1 0
Ligature2: "'haln' Halant Forms in Bengali lookup 12 subtable" u09a6 u09cd
EndChar

StartChar: u09a7_u09cd.haln
Encoding: 65559 -1 38
GlifName: u09a7_u09cd.haln
Width: 694
VWidth: 1024
GlyphClass: 3
Flags: W
HStem: 58 93<192.745 355.838 541.958 635.458> 400 95<236.658 448> 557 78<241 271.61> 728 110<169.366 268.16> 778 39<448 571> 1003 20G<562 587>
VStem: 56 86<197.679 330.505 564.591 699.148> 278 74<639.873 716.447> 448 74<233.36 400 495 773.559> 571 79<841.314 940.699>
AnchorPoint: "Anchor-0" 240 877 basechar 0
AnchorPoint: "Anchor-1" 372 7 basechar 0
LayerCount: 2
Fore
SplineSet
529 -18 m 1xe7c0
 592 15 l 1
 592 15 640 -9 660 -35 c 0
 677 -57 684 -103 684 -103 c 1
 616 -125 l 1
 616 -125 605 -87 590 -68 c 0
 571 -44 529 -18 529 -18 c 1xe7c0
142 260 m 0
 142 189 203 151 278 151 c 0
 353 151 407 207 448 257 c 1
 448 400 l 1
 307 395 142 398 142 260 c 0
56 260 m 0
 56 346 101 421 161 448 c 1
 101 475 56 549 56 635 c 0
 56 734 116 838 211 838 c 0
 292 838 352 764 352 682 c 0
 352 617 304 557 241 557 c 1
 241 635 l 1
 263 635 278 659 278 682 c 0
 278 710 247 728 217 728 c 0xf7c0
 173 728 142 681 142 635 c 0
 142 497 307 500 448 495 c 1
 448 817 l 1
 490 819 571 823 571 884 c 0
 571 907 552 944 533 960 c 2
 516 974 l 1
 536 997 l 2
 547 1010 560 1023 564 1023 c 0
 610 1023 650 924 650 875 c 0
 650 857 629 768 590 768 c 0
 587 768 590 778 571 778 c 0xefc0
 561 778 546 775 522 767 c 1
 522 229 l 2
 522 190 547 151 584 151 c 0
 623 151 652 185 671 214 c 1
 720 151 l 1
 690 106 646 58 584 58 c 0
 532 58 490 96 467 142 c 1
 424 99 360 58 285 58 c 0
 154 58 56 132 56 260 c 0
EndSplineSet
LCarets2: 1 0
Ligature2: "'haln' Halant Forms in Bengali lookup 12 subtable" u09a7 u09cd
EndChar

StartChar: u09a8_u09cd.haln
Encoding: 65560 -1 39
GlifName: u09a8_u09cd.haln
Width: 653
GlyphClass: 3
Flags: W
HStem: 83 98<410.695 496.917> 432 98<129.682 213.895> 734 85<0 361>
VStem: 3 98<196.59 400.804> 554 99<259.217 505.285> 564 84<835.953 948.441>
AnchorPoint: "Anchor-0" 288 847 basechar 0
AnchorPoint: "Anchor-1" 402 43 basechar 0
LayerCount: 2
Fore
SplineSet
491 -47 m 1xf8
 554 -14 l 1
 554 -14 602 -38 622 -64 c 0
 639 -86 646 -132 646 -132 c 1
 578 -154 l 1
 578 -154 567 -116 552 -97 c 0
 533 -73 491 -47 491 -47 c 1xf8
-69 742 m 1
 -69 742 -39 756 -20 775 c 0
 -13 782 -7 800 0 811 c 1
 0 819 l 1
 245 819 l 2
 307 819 356 818 397 818 c 0
 538 818 564 826 564 890 c 0
 564 912 544 954 524 973 c 2
 509 987 l 1
 532 1011 l 2
 545 1024 559 1034 565 1034 c 0
 597 1034 648 945 648 888 c 0xf4
 648 821 576 740 526 740 c 0
 521 740 519 738 519 735 c 0
 519 725 543 703 566 686 c 0
 612 652 653 489 653 386 c 0
 653 244 604 83 457 83 c 0
 271 83 313 345 205 418 c 0
 192 427 181 432 171 432 c 0
 122 432 101 368 101 316 c 0
 101 229 132 144 183 93 c 2
 209 68 l 1
 173 41 l 2
 153 26 135 15 132 15 c 0
 75 15 3 233 3 309 c 0
 3 420 58 530 170 530 c 0
 255 530 334 448 367 314 c 0
 382 256 400 181 453 181 c 0
 500 181 548 256 553 338 c 0
 553 345 554 352 554 360 c 0
 554 481 497 664 401 711 c 2
 361 730 l 1
 241 731 120 733 0 734 c 1
 0 741 l 1
 -11 741 l 2
 -30 741 -49 741 -69 742 c 1
EndSplineSet
LCarets2: 1 0
Ligature2: "'haln' Halant Forms in Bengali lookup 12 subtable" u09a8 u09cd
EndChar

StartChar: u09aa_u09cd.haln
Encoding: 65561 -1 40
GlifName: u09aa_u09cd.haln
Width: 826
VWidth: 1024
GlyphClass: 3
Flags: W
HStem: 45 78<635.712 738.101> 161 91<178.696 382.493> 448 78<181.55 266> 720 91<170.721 377.692> 738 77<612 685.269> 1003 20G<685 708.5>
VStem: 28 94<297.975 398.858 577.161 678.102> 534 78<145.833 291 388.082 585.207 693 738> 694 78<821.716 940.395>
AnchorPoint: "Anchor-0" 312 859 basechar 0
AnchorPoint: "Anchor-1" 576 7 basechar 0
LayerCount: 2
Fore
SplineSet
648 -27 m 1xe780
 711 6 l 1
 711 6 759 -18 779 -44 c 0
 796 -66 803 -112 803 -112 c 1
 735 -134 l 1
 735 -134 724 -96 709 -77 c 0
 690 -53 648 -27 648 -27 c 1xe780
122 344 m 0
 122 283 210 252 278 252 c 0
 414 252 538 353 538 486 c 0
 538 622 406 720 266 720 c 0xf780
 201 720 122 691 122 632 c 0
 122 567 197 526 266 526 c 1
 266 448 l 1
 198 448 122 408 122 344 c 0
28 343 m 0
 28 415 84 469 144 485 c 1
 83 501 28 556 28 629 c 0
 28 739 147 811 262 811 c 0xf780
 381 811 477 761 534 693 c 1
 534 816 l 1
 559 816 l 2
 588 816 611 815 630 815 c 0
 676 815 694 823 694 883 c 0
 694 906 675 943 656 959 c 2
 639 973 l 1
 659 996 l 2
 670 1009 683 1023 687 1023 c 0
 730 1023 772 928 772 881 c 0
 771 776 718 739 612 738 c 1xef80
 612 189 l 2
 612 152 652 123 690 123 c 0
 721 123 750 153 768 175 c 1
 820 137 l 1
 795 93 751 45 690 45 c 0
 563 45 534 171 534 291 c 1
 473 218 402 161 274 161 c 0
 155 161 28 231 28 343 c 0
EndSplineSet
LCarets2: 1 0
Ligature2: "'haln' Halant Forms in Bengali lookup 12 subtable" u09aa u09cd
EndChar

StartChar: u09ab_u09cd.haln
Encoding: 65562 -1 41
GlifName: u09ab_u09cd.haln
Width: 1140
GlyphClass: 3
Flags: W
HStem: 23 20G<699.818 738> 61 98<525.597 621.671> 97 106<188.841 361.113> 141 68<826.897 959.722> 359 81<812.563 896.5> 586 75<508 860> 742 75<3 70 159 501.828> 1003 20G<1048 1071.5>
VStem: 63 98<230.315 320.808> 226 78<475.945 576.036> 427 81<248.118 586> 724 72<239.192 345.756> 1026 80<283.914 461.46> 1057 78<845.035 941.258>
AnchorPoint: "Anchor-0" 576 877 basechar 0
AnchorPoint: "Anchor-1" 552 19 basechar 0
LayerCount: 2
Fore
SplineSet
675 10 m 1x8ff0
 738 43 l 1
 738 43 786 19 806 -7 c 0
 823 -29 830 -75 830 -75 c 1
 762 -97 l 1
 762 -97 751 -59 736 -40 c 0
 717 -16 675 10 675 10 c 1x8ff0
-69 742 m 1
 -69 742 -39 756 -20 775 c 0
 -12 782 -4 801 3 812 c 1
 3 817 l 1
 6 817 l 2
 7 818 7 819 8 819 c 1
 8 817 l 1
 262 817 l 2
 545 817 1031 817 1049 851 c 0
 1054 860 1057 875 1057 884 c 0
 1057 907 1038 944 1019 960 c 2
 1002 974 l 1
 1022 997 l 2
 1033 1010 1046 1023 1050 1023 c 0
 1093 1023 1135 929 1135 882 c 0
 1135 743 970 742 814 742 c 2
 159 742 l 1
 237 711 304 621 304 528 c 0
 304 451 267 391 220 357 c 0
 194 338 161 305 161 268 c 0
 161 226 218 203 265 203 c 0xaff4
 329 203 384 232 427 262 c 1
 427 661 l 1
 866 661 l 1
 994 614 1106 491 1106 364 c 0
 1106 245 1017 141 893 141 c 0
 800 141 724 203 724 289 c 0
 724 376 802 440 873 440 c 0
 920 440 959 406 959 367 c 0
 959 329 931 303 899 303 c 0
 857 303 861 336 839 358 c 2
 839 358 839 359 838 359 c 0
 822 359 796 321 796 296 c 0
 796 239 840 209 894 209 c 0x9ff8
 982 209 1026 299 1026 382 c 0
 1026 476 969 534 900 567 c 2
 860 586 l 1
 508 586 l 1
 508 240 l 2
 508 199 528 159 568 159 c 0
 609 159 639 193 659 223 c 1
 711 167 l 1
 679 121 632 61 568 61 c 0xcff8
 512 61 463 104 442 154 c 1
 399 121 335 97 265 97 c 0xaff8
 161 97 63 167 63 268 c 0
 63 380 157 416 207 478 c 0
 220 494 226 507 226 519 c 0
 226 590 145 632 70 632 c 1
 70 738 l 1
 3 738 l 1
 3 741 l 1
 -11 741 l 2
 -30 741 -49 741 -69 742 c 1
EndSplineSet
LCarets2: 1 0
Ligature2: "'haln' Halant Forms in Bengali lookup 12 subtable" u09ab u09cd
EndChar

StartChar: u09ac_u09cd.haln
Encoding: 65563 -1 42
GlifName: u09ac_u09cd.haln
Width: 870
GlyphClass: 3
Flags: W
HStem: 47 83<685.125 780.523> 88 99<253.861 448.115> 604 97<270.65 452.162> 739 78<3 573 679 772.97> 1003 20G<780 803.5>
VStem: 34 98<300.678 486.308> 573 106<310.081 480.812 602 739> 789 78<835.709 941.258>
AnchorPoint: "Anchor-0" 432 829 basechar 0
AnchorPoint: "Anchor-1" 522 49 basechar 0
LayerCount: 2
Fore
SplineSet
720 -23 m 1x3f
 783 10 l 1
 783 10 831 -14 851 -40 c 0
 868 -62 875 -108 875 -108 c 1
 807 -130 l 1
 807 -130 796 -92 781 -73 c 0
 762 -49 720 -23 720 -23 c 1x3f
132 395 m 0
 132 259 244 187 349 187 c 0x7f
 451 187 567 255 570 388 c 2
 570 400 l 2
 570 516 473 604 353 604 c 0
 242 604 132 527 132 395 c 0
-69 742 m 1
 -69 742 -39 756 -20 775 c 0
 -12 782 -4 801 3 812 c 1
 3 817 l 1
 6 817 l 2
 7 818 7 819 8 819 c 1
 8 817 l 1
 425 817 l 2
 502 817 563 816 612 816 c 0
 751 816 789 824 789 884 c 0
 789 907 770 944 751 960 c 2
 734 974 l 1
 754 997 l 2
 765 1010 778 1023 782 1023 c 0
 825 1023 867 929 867 882 c 0
 867 823 866 769 797 747 c 0
 778 741 697 742 679 741 c 1
 679 186 l 2
 679 143 694 130 732 130 c 0
 761 130 807 175 825 175 c 0
 832 175 879 133 879 129 c 0
 879 92 787 47 729 47 c 0xbf
 625 47 598 110 574 181 c 1
 574 181 574 182 573 182 c 0
 569 182 556 172 542 160 c 0
 486 111 417 88 348 88 c 0
 196 88 34 199 34 394 c 0
 34 573 155 651 323 696 c 0
 335 699 347 701 360 701 c 0
 433 701 515 653 543 628 c 2
 573 602 l 1
 573 739 l 1
 3 739 l 1
 3 741 l 1
 -11 741 l 2
 -30 741 -49 741 -69 742 c 1
EndSplineSet
LCarets2: 1 0
Ligature2: "'haln' Halant Forms in Bengali lookup 12 subtable" u09ac u09cd
EndChar

StartChar: u09ad_u09cd.haln
Encoding: 65564 -1 43
GlifName: u09ad_u09cd.haln
Width: 711
VWidth: 1024
GlyphClass: 3
Flags: W
HStem: 55 78<259.332 363.836> 269 72<117.385 196.518> 414 80<230.677 334.386> 541 75<242.562 323.257> 571 80<483.238 569.578> 739 78<0 293 316 570.696> 1003 20G<620 643.5>
VStem: 30 84<192.302 263.972> 142 81<500.694 577.724> 209 76<185.271 257.458> 328 74<622.355 683.302> 582 78<389.734 560.866> 629 78<826.503 941.258>
AnchorPoint: "Anchor-0" 318 853 basechar 0
AnchorPoint: "Anchor-1" 348 43 basechar 0
LayerCount: 2
Fore
SplineSet
457 28 m 1xe720
 520 61 l 1
 520 61 568 37 588 11 c 0
 605 -11 612 -57 612 -57 c 1
 544 -79 l 1
 544 -79 533 -41 518 -22 c 0
 499 2 457 28 457 28 c 1xe720
240 648 m 0
 240 629 262 616 284 616 c 0xf720
 306 616 328 633 328 654 c 0
 328 674 305 690 281 690 c 0
 264 690 240 665 240 648 c 0
114 234 m 0
 114 204 140 181 170 181 c 0
 173 181 175 182 177 182 c 0
 194 185 209 198 209 218 c 0xe760
 209 245 182 269 155 269 c 0
 152 269 149 268 146 268 c 0
 130 265 114 253 114 234 c 0
-69 742 m 1
 -69 742 -39 756 -20 775 c 0
 -13 781 -6 796 0 807 c 1
 0 817 l 1
 6 817 l 2
 7 818 7 819 8 819 c 1
 8 817 l 1
 320 817 l 2
 397 817 455 816 498 816 c 0
 622 816 629 824 629 884 c 0
 629 907 610 944 591 960 c 2
 574 974 l 1
 594 997 l 2
 605 1010 618 1023 622 1023 c 0
 665 1023 707 929 707 882 c 0
 707 843 692 807 662 779 c 0
 622 740 627 741 330 739 c 2
 316 739 l 1
 365 730 402 685 402 639 c 0
 402 589 355 541 297 541 c 0
 272 541 250 551 231 572 c 0
 232 573 230 576 227 579 c 1
 224 568 223 556 223 545 c 0xf7a8
 224 514 240 494 271 494 c 0
 317 494 352 526 379 558 c 0
 419 607 472 651 543 651 c 0
 625 651 660 577 660 491 c 0
 660 275 474 55 271 55 c 0
 169 55 30 121 30 232 c 0
 30 296 86 341 149 341 c 0
 226 341 285 274 285 202 c 0xef70
 285 176 276 154 257 135 c 1
 264 134 272 133 279 133 c 0
 431 133 582 338 582 498 c 0
 582 535 570 571 535 571 c 0
 499 571 472 542 450 517 c 0
 404 462 347 414 265 414 c 0
 187 414 142 474 142 552 c 0xefb0
 142 641 217 730 293 739 c 1
 0 739 l 1
 0 741 l 1
 -11 741 l 2
 -30 741 -49 741 -69 742 c 1
EndSplineSet
LCarets2: 1 0
Ligature2: "'haln' Halant Forms in Bengali lookup 12 subtable" u09ad u09cd
EndChar

StartChar: u09ae_u09cd.haln
Encoding: 65565 -1 44
GlifName: u09ae_u09cd.haln
Width: 715
VWidth: 1024
GlyphClass: 3
Flags: W
HStem: 25 78<164.568 241.611> 737 80<0 131.714 248 487.534 561 628.781> 1003 20G<627 650.5>
VStem: 65 91<109.196 218.849> 312 72<409 534.593> 546 78<164.509 380.059> 585 65<593.337 667.27> 636 78<827.381 941.258>
AnchorPoint: "Anchor-0" 336 841 basechar 0
AnchorPoint: "Anchor-1" 456 -53 basechar 0
LayerCount: 2
Fore
SplineSet
536 -30 m 1xf8
 599 3 l 1
 599 3 647 -21 667 -47 c 0
 684 -69 691 -115 691 -115 c 1
 623 -137 l 1
 623 -137 612 -99 597 -80 c 0
 578 -56 536 -30 536 -30 c 1xf8
248 739 m 1
 325 662 384 556 384 409 c 1
 425 426 459 451 488 480 c 1
 488 481 l 1
 488 481 575 594 575 603 c 1
 582 617 585 628 585 636 c 0xfa
 585 670 500 701 452 740 c 1
 420 740 382 739 337 739 c 2
 248 739 l 1
156 155 m 0
 156 130 171 103 195 103 c 0
 268 103 305 230 312 311 c 1
 244 286 156 234 156 155 c 0
-69 742 m 1
 -69 742 -39 756 -20 775 c 0
 -13 781 -6 796 0 807 c 1
 0 817 l 1
 6 817 l 2
 7 818 7 819 8 819 c 1
 8 817 l 1
 327 817 l 2
 404 817 462 816 505 816 c 0
 629 816 636 824 636 884 c 0
 636 907 617 944 598 960 c 2
 581 974 l 1
 601 997 l 2
 612 1010 625 1023 629 1023 c 0
 672 1023 714 929 714 882 c 0xfd
 714 797 665 747 561 742 c 1
 603 708 650 696 650 636 c 0xfa
 650 565 609 511 566 474 c 1
 599 404 624 327 624 233 c 0
 624 136 561 64 494 25 c 1
 442 90 l 1
 490 119 546 167 546 233 c 0xfc
 546 309 538 379 514 428 c 1
 475 396 435 364 390 344 c 1
 390 203 323 25 195 25 c 0
 123 25 65 83 65 155 c 0
 65 268 211 346 312 383 c 1
 312 588 238 631 108 737 c 1
 0 737 l 1
 0 741 l 1
 -11 741 l 2
 -30 741 -49 741 -69 742 c 1
EndSplineSet
LCarets2: 1 0
Ligature2: "'haln' Halant Forms in Bengali lookup 12 subtable" u09ae u09cd
EndChar

StartChar: u09af_u09cd.haln
Encoding: 65566 -1 45
GlifName: u09af_u09cd.haln
Width: 721
VWidth: 1024
GlyphClass: 3
Flags: W
HStem: 22 20G<589.818 628> 68 98<524.523 621.671> 104 106<188.841 360.543> 739 78<3 70 159 425 503 617.333> 1003 20G<628 651.5>
VStem: 63 98<237.315 327.808> 226 78<482.945 582.937> 425 78<255.118 740> 637 78<835.203 941.258>
AnchorPoint: "Anchor-0" 360 859 basechar 0
AnchorPoint: "Anchor-1" 408 55 basechar 0
LayerCount: 2
Fore
SplineSet
565 9 m 1x9f80
 628 42 l 1
 628 42 676 18 696 -8 c 0
 713 -30 720 -76 720 -76 c 1
 652 -98 l 1
 652 -98 641 -60 626 -41 c 0
 607 -17 565 9 565 9 c 1x9f80
159 739 m 1
 238 708 304 629 304 535 c 0
 304 458 267 398 220 364 c 0
 194 345 161 312 161 275 c 0
 161 233 218 210 265 210 c 0xbf80
 329 210 382 239 425 269 c 1
 425 740 l 1
 386 739 336 739 272 739 c 2
 159 739 l 1
-69 742 m 1
 -69 742 -39 756 -20 775 c 0
 -12 782 -4 801 3 812 c 1
 3 817 l 1
 6 817 l 2
 7 818 7 819 8 819 c 1
 8 817 l 1
 262 817 l 2
 347 817 415 816 467 816 c 0
 598 816 637 824 637 884 c 0
 637 907 618 944 599 960 c 2
 582 974 l 1
 602 997 l 2
 613 1010 626 1023 630 1023 c 0
 673 1023 715 929 715 882 c 0
 715 769 630 749 503 742 c 1
 503 247 l 2
 503 206 528 166 568 166 c 0
 609 166 639 200 659 230 c 1
 711 174 l 1
 679 128 632 68 568 68 c 0xdf80
 512 68 463 111 442 161 c 1
 399 128 335 104 265 104 c 0
 161 104 63 174 63 275 c 0
 63 387 157 423 207 485 c 0
 220 501 226 514 226 526 c 0
 226 597 145 640 70 640 c 1
 70 738 l 1
 3 738 l 1
 3 741 l 1
 -11 741 l 2
 -30 741 -49 741 -69 742 c 1
EndSplineSet
LCarets2: 1 0
Ligature2: "'haln' Halant Forms in Bengali lookup 12 subtable" u09af u09cd
EndChar

StartChar: u09b0_u09cd.haln
Encoding: 65567 -1 46
GlifName: u09b0_u09cd.haln
Width: 870
GlyphClass: 3
Flags: W
HStem: -23 119<40.7523 124.083> 47 83<685.125 780.523> 88 99<253.861 448.115> 604 97<270.65 452.162> 739 78<3 573 679 772.97> 1003 20G<780 803.5>
VStem: 17 125<-4.48489 72.125> 34 98<300.678 486.308> 573 106<310.081 480.812 602 739> 789 78<835.709 941.258>
AnchorPoint: "Anchor-0" 402 859 basechar 0
AnchorPoint: "Anchor-1" 612 -47 basechar 0
LayerCount: 2
Fore
SplineSet
697 -30 m 1x1cc0
 760 3 l 1
 760 3 808 -21 828 -47 c 0
 845 -69 852 -115 852 -115 c 1
 784 -137 l 1
 784 -137 773 -99 758 -80 c 0
 739 -56 697 -30 697 -30 c 1x1cc0
132 395 m 0x3dc0
 132 259 244 187 349 187 c 0
 451 187 567 255 570 388 c 2
 570 400 l 2
 570 516 473 604 353 604 c 0
 242 604 132 527 132 395 c 0x3dc0
17 19 m 0x9ec0
 17 58 50 96 88 96 c 0
 122 96 142 68 142 40 c 0
 142 3 108 -21 73 -23 c 0
 45 -23 17 -10 17 19 c 0x9ec0
-69 742 m 1
 -69 742 -39 756 -20 775 c 0
 -12 782 -4 801 3 812 c 1
 3 817 l 1
 6 817 l 2
 7 818 7 819 8 819 c 1
 8 817 l 1
 425 817 l 2
 502 817 563 816 612 816 c 0
 751 816 789 824 789 884 c 0
 789 907 770 944 751 960 c 2
 734 974 l 1
 754 997 l 2
 765 1010 778 1023 782 1023 c 0
 825 1023 867 929 867 882 c 0
 867 823 866 769 797 747 c 0
 778 741 697 742 679 741 c 1
 679 186 l 2
 679 143 694 130 732 130 c 0
 761 130 807 175 825 175 c 0
 832 175 879 133 879 129 c 0
 879 92 787 47 729 47 c 0x5dc0
 625 47 598 110 574 181 c 1
 574 181 574 182 573 182 c 0
 569 182 556 172 542 160 c 0
 486 111 417 88 348 88 c 0
 196 88 34 199 34 394 c 0x3dc0
 34 573 155 651 323 696 c 0
 335 699 347 701 360 701 c 0
 433 701 515 653 543 628 c 2
 573 602 l 1
 573 739 l 1
 3 739 l 1
 3 741 l 1
 -11 741 l 2
 -30 741 -49 741 -69 742 c 1
EndSplineSet
LCarets2: 1 0
Ligature2: "'haln' Halant Forms in Bengali lookup 12 subtable" u09b0 u09cd
EndChar

StartChar: u09b2_u09cd.haln
Encoding: 65568 -1 47
GlifName: u09b2_u09cd.haln
Width: 1140
GlyphClass: 2
Flags: W
HStem: 45 68<228.886 362.893> 70 98<884.695 970.917> 263 81<293.5 377.699> 487 98<602.535 687.858> 492 73<331 505 607.052 642.875> 730 89<0 835>
VStem: 82 82<190.058 374.615> 394 72<143.192 250.249> 477 98<251.59 457.178> 1028 99<269.373 544.081> 1056 84<838.79 948.441>
AnchorPoint: "Anchor-0" 582 847 basechar 0
AnchorPoint: "Anchor-1" 894 -5 basechar 0
LayerCount: 2
Fore
SplineSet
973 6 m 1x2780
 1036 39 l 1
 1036 39 1084 15 1104 -11 c 0
 1121 -33 1128 -79 1128 -79 c 1
 1060 -101 l 1
 1060 -101 1049 -63 1034 -44 c 0
 1015 -20 973 6 973 6 c 1x2780
-60 730 m 1
 0 819 l 1
 719 819 l 2
 781 819 832 818 874 818 c 0
 1020 818 1056 826 1056 890 c 0
 1056 912 1036 954 1016 973 c 2
 1001 987 l 1
 1024 1011 l 2
 1037 1024 1051 1034 1057 1034 c 0
 1089 1034 1140 945 1140 888 c 0x77a0
 1140 821 1050 740 1000 740 c 0
 995 740 993 738 993 735 c 0
 993 725 1017 703 1040 686 c 0
 1086 652 1127 544 1127 441 c 0
 1127 299 1078 70 931 70 c 0
 745 70 787 400 679 473 c 0
 666 482 655 487 645 487 c 0
 596 487 575 423 575 371 c 0
 575 284 606 199 657 148 c 2
 683 123 l 1
 647 96 l 2
 627 81 609 70 606 70 c 0x77c0
 549 70 477 288 477 364 c 0
 477 411 487 456 505 492 c 1
 331 492 l 1
 291 471 l 2
 221 438 164 381 164 286 c 0
 164 203 208 113 296 113 c 0
 350 113 394 143 394 200 c 0
 394 225 369 263 353 263 c 0
 352 263 352 262 352 262 c 2
 330 240 332 207 291 207 c 0
 259 207 231 233 231 271 c 0
 231 310 270 344 317 344 c 0
 388 344 466 280 466 193 c 0
 466 107 389 45 297 45 c 0
 166 45 82 157 82 282 c 0
 82 495 250 565 523 565 c 2
 572 565 l 1xafc0
 596 579 620 585 644 585 c 0
 729 585 807 435 841 301 c 0
 856 243 874 168 927 168 c 0
 974 168 1022 243 1027 325 c 0
 1027 332 1028 407 1028 415 c 0x77c0
 1028 536 971 664 875 711 c 2
 835 730 l 1
 -60 730 l 1
EndSplineSet
Ligature2: "'haln' Halant Forms in Bengali lookup 12 subtable" u09b2 u09cd
EndChar

StartChar: u09b6_u09cd.haln
Encoding: 65569 -1 48
GlifName: u09b6_u09cd.haln
Width: 1052
GlyphClass: 3
Flags: W
HStem: 47 78<851.089 963.411> 225 91<155.845 280.345 455.218 578.94> 524 91<155.63 280.759 454.455 579.155> 732 83<515 761 844 954.401> 1003 20G<957 991.5>
VStem: 23 91<357.845 482.37> 322 91<358.393 482.037> 335 65<563 655.329> 621 91<358.06 482.155> 761 83<178.544 732> 972 78<831.42 951.478>
AnchorPoint: "Anchor-0" 534 811 basechar 0
AnchorPoint: "Anchor-1" 792 1 basechar 0
LayerCount: 2
Fore
SplineSet
865 -24 m 1xfce0
 928 9 l 1
 928 9 976 -15 996 -41 c 0
 1013 -63 1020 -109 1020 -109 c 1
 952 -131 l 1
 952 -131 941 -93 926 -74 c 0
 907 -50 865 -24 865 -24 c 1xfce0
413 420 m 0xfee0
 413 364 461 316 517 316 c 0
 573 316 621 364 621 420 c 0
 621 477 574 524 517 524 c 0
 460 524 413 477 413 420 c 0xfee0
114 420 m 0
 114 363 161 316 218 316 c 0
 275 316 322 363 322 420 c 0
 322 478 276 524 218 524 c 0
 160 524 114 478 114 420 c 0
23 420 m 0
 23 527 111 615 218 615 c 0
 266 615 304 589 335 563 c 1
 335 636 359 699 400 732 c 2
 515 815 l 1
 646 815 777 815 908 815 c 0
 944 815 972 844 972 880 c 0
 972 921 956 951 933 971 c 1
 972 1023 l 1
 1011 991 1050 942 1050 880 c 0
 1050 804 989 737 914 737 c 0
 891 737 867 737 844 737 c 1
 844 434 l 2
 843 345 841 282 841 237 c 0
 841 133 851 125 907 125 c 0
 930 125 967 144 983 163 c 2
 997 180 l 1
 1021 159 l 2
 1034 148 1045 136 1045 132 c 0
 1045 88 954 47 907 47 c 0
 867 47 830 62 802 92 c 0
 763 132 762 127 761 424 c 2
 761 732 l 1
 504 732 l 1
 443 710 400 644 400 563 c 1xfde0
 431 589 469 615 517 615 c 0
 624 615 712 527 712 420 c 0
 712 313 624 225 517 225 c 0
 449 225 395 269 368 316 c 1
 341 268 287 225 218 225 c 0
 111 225 23 313 23 420 c 0
EndSplineSet
Ligature2: "'haln' Halant Forms in Bengali lookup 12 subtable" u09b6 u09cd
EndChar

StartChar: u09b7_u09cd.haln
Encoding: 65570 -1 49
GlifName: u09b7_u09cd.haln
Width: 721
VWidth: 1024
GlyphClass: 3
Flags: W
HStem: 23 20G<571.818 610> 68 98<524.523 621.671> 104 106<188.841 360.543> 739 78<3 70 159 425 503 617.333> 1003 20G<628 651.5>
VStem: 63 98<237.315 330.733> 226 78<514.561 582.937> 425 78<255.118 382.901 490 740> 637 78<835.203 941.258>
AnchorPoint: "Anchor-0" 312 853 basechar 0
AnchorPoint: "Anchor-1" 456 19 basechar 0
LayerCount: 2
Fore
SplineSet
547 10 m 1x9f80
 610 43 l 1
 610 43 658 19 678 -7 c 0
 695 -29 702 -75 702 -75 c 1
 634 -97 l 1
 634 -97 623 -59 608 -40 c 0
 589 -16 547 10 547 10 c 1x9f80
161 275 m 0
 161 233 218 210 265 210 c 0xbf80
 329 210 382 239 425 269 c 1
 425 372 l 1
 400 377 383 408 353 419 c 0
 326 429 300 427 277 430 c 1
 249 379 161 343 161 275 c 0
159 739 m 1
 238 708 304 629 304 535 c 0
 304 528 304 522 303 515 c 1
 339 515 397 502 425 490 c 1
 425 740 l 1
 386 739 336 739 272 739 c 2
 159 739 l 1
3 738 m 1
 3 817 l 1
 262 817 l 2
 347 817 415 816 467 816 c 0
 598 816 637 824 637 884 c 0
 637 907 618 944 599 960 c 2
 582 974 l 1
 602 997 l 2
 613 1010 626 1023 630 1023 c 0
 673 1023 715 929 715 882 c 0
 715 769 630 749 503 742 c 1
 503 247 l 2
 503 206 528 166 568 166 c 0
 609 166 639 200 659 230 c 1
 711 174 l 1
 679 128 632 68 568 68 c 0xdf80
 512 68 463 111 442 161 c 1
 399 128 335 104 265 104 c 0
 161 104 63 174 63 275 c 0
 63 387 157 423 207 485 c 0
 220 501 226 514 226 526 c 0
 226 597 145 640 70 640 c 1
 70 738 l 1
 3 738 l 1
EndSplineSet
LCarets2: 1 0
Ligature2: "'haln' Halant Forms in Bengali lookup 12 subtable" u09b7 u09cd
EndChar

StartChar: u09b8_u09cd.haln
Encoding: 65571 -1 50
GlifName: u09b8_u09cd.haln
Width: 776
VWidth: 1024
GlyphClass: 3
Flags: W
HStem: 61 78<571.149 683.121> 157 78<186.004 356.378> 741 79<-1.55487 119 178.625 681.15> 1008 20G<678 717.5>
VStem: 39 91<550.758 676.906> 403 159<275.819 374.13> 481 82<145.744 271 382 740> 698 78<836.537 944.527>
AnchorPoint: "Anchor-0" 348 871 basechar 0
AnchorPoint: "Anchor-1" 570 31 basechar 0
LayerCount: 2
Fore
SplineSet
607 -7 m 1xf9
 670 26 l 1
 670 26 718 2 738 -24 c 0
 755 -46 762 -92 762 -92 c 1
 694 -114 l 1
 694 -114 683 -76 668 -57 c 0
 649 -33 607 -7 607 -7 c 1xf9
-79 741 m 1
 -51 764 -16 764 0 820 c 1
 633 820 l 2
 669 820 698 849 698 885 c 0
 698 924 671 955 646 976 c 1
 698 1028 l 1
 737 995 776 949 776 885 c 0
 776 807 711 742 633 742 c 2
 213 742 l 1
 214 741 l 1
 170 740 130 640 130 599 c 0
 130 535 224 501 292 495 c 0
 376 488 449 446 481 382 c 1
 481 502 481 621 481 741 c 1
 483 740 l 1
 563 740 l 1
 563 448 l 2xfb
 563 362 562 300 562 255 c 0
 562 146 570 139 626 139 c 0
 649 139 686 158 702 177 c 2
 716 194 l 1
 740 174 l 2
 753 163 764 150 764 146 c 0
 764 103 671 61 624 61 c 0
 585 61 549 76 521 106 c 0
 492 137 485 141 483 271 c 1
 454 201 365 157 273 157 c 0
 150 157 57 239 0 320 c 1
 65 365 l 1
 109 303 181 235 273 235 c 0
 334 235 403 269 403 326 c 0xfd
 403 381 335 412 279 417 c 0
 169 427 39 491 39 599 c 0
 39 668 59 724 119 741 c 1
 53 741 -13 741 -79 741 c 1
EndSplineSet
LCarets2: 1 0
Ligature2: "'haln' Halant Forms in Bengali lookup 12 subtable" u09b8 u09cd
EndChar

StartChar: u09b9_u09cd.haln
Encoding: 65572 -1 51
GlifName: u09b9_u09cd.haln
Width: 693
GlyphClass: 3
Flags: W
HStem: 55 21G<495 605> 90 99<117.652 330.211> 282 85<130.185 345.094> 628 95<342.911 465.498> 737 78<0 556.696>
VStem: 0 107<204.239 259.921> 495 110<72 141.654> 512 109<350.941 576.023> 615 78<824.691 939.121>
AnchorPoint: "Anchor-0" 354 871 basechar 0
AnchorPoint: "Anchor-1" 480 7 basechar 0
LayerCount: 2
Fore
SplineSet
513 -68 m 1xfc
 576 -35 l 1
 576 -35 624 -59 644 -85 c 0
 661 -107 668 -153 668 -153 c 1
 600 -175 l 1
 600 -175 589 -137 574 -118 c 0
 555 -94 513 -68 513 -68 c 1xfc
107 228 m 0
 107 197 176 189 226 189 c 2
 241 189 l 1
 290 193 373 222 373 236 c 0
 373 267 257 282 211 282 c 0
 173 282 107 264 107 228 c 0
0 227 m 0
 0 321 128 367 227 367 c 0
 289 367 355 352 415 322 c 2
 458 301 l 1
 469 315 l 2
 496 347 512 404 512 471 c 0
 512 551 486 628 405 628 c 0
 355 628 293 573 280 542 c 1
 188 528 l 1
 218 615 l 1
 228 638 l 2
 232 638 245 657 246 658 c 0
 247 659 337 723 411 723 c 0
 549 723 621 598 621 472 c 0xfd
 621 399 601 321 560 265 c 0
 547 247 536 231 536 228 c 0
 536 225 544 210 555 195 c 0
 582 157 603 97 605 55 c 1
 507 55 l 1
 495 72 l 1xfe
 487 106 469 168 458 168 c 0
 456 168 438 159 419 148 c 0
 354 109 288 90 223 90 c 0
 123 90 0 146 0 227 c 0
-61 737 m 1
 0 815 l 1
 306 815 l 2
 383 815 441 814 484 814 c 0
 608 814 615 822 615 882 c 0
 615 905 596 942 577 958 c 2
 560 972 l 1
 580 995 l 2
 591 1008 604 1020 608 1020 c 0
 651 1020 693 927 693 880 c 0xfc80
 693 841 677 806 648 777 c 0
 608 738 613 739 316 737 c 2
 -61 737 l 1
EndSplineSet
LCarets2: 1 0
Ligature2: "'haln' Halant Forms in Bengali lookup 12 subtable" u09b9 u09cd
EndChar

StartChar: u09dc_u09cd.haln
Encoding: 65573 -1 52
GlifName: u09dc_u09cd.haln
Width: 718
VWidth: 1024
GlyphClass: 3
Flags: W
HStem: -36 94<404.097 485.903> 46 72<257.269 374.835> 233 83<92.0541 181.499> 385 76<224.819 342.135> 535 75<504.249 604.692> 738 80<0 221> 1003 20G<641 664.5>
VStem: 3 86<164.137 227.202> 127 90<469.856 595.485> 194 93<154.623 221.178> 398 94<-29.9035 51.9035> 617 86<372.301 522.556> 650 78<827.763 941.258>
AnchorPoint: "Anchor-0" 384 835 basechar 0
AnchorPoint: "Anchor-1" 438 -71 basechar 0
LayerCount: 2
Fore
SplineSet
463 -83 m 1x3f20
 526 -50 l 1
 526 -50 574 -74 594 -100 c 0
 611 -122 618 -168 618 -168 c 1
 550 -190 l 1
 550 -190 539 -152 524 -133 c 0
 505 -109 463 -83 463 -83 c 1x3f20
398 11 m 0
 398 40 416 58 445 58 c 0
 474 58 492 40 492 11 c 0
 492 -18 474 -36 445 -36 c 0xbf20
 416 -36 398 -18 398 11 c 0
89 199 m 0
 89 172 118 151 149 151 c 2
 159 151 l 2
 179 154 194 165 194 185 c 0x3f60
 194 212 166 233 134 233 c 0
 131 233 127 232 124 232 c 0
 105 229 89 218 89 199 c 0
0 738 m 1
 0 818 l 1
 341 818 l 2
 415 818 472 817 515 817 c 0
 642 817 650 825 650 884 c 0
 650 907 631 944 612 960 c 2
 595 974 l 1
 615 998 l 2
 626 1011 639 1023 643 1023 c 0
 686 1023 728 929 728 882 c 0
 728 843 713 807 683 779 c 0
 644 741 646 757 378 739 c 0
 303 734 217 591 217 513 c 0x7fa8
 217 481 235 461 271 461 c 0
 322 461 362 493 391 523 c 0
 437 570 492 610 573 610 c 0
 663 610 702 542 703 463 c 2
 703 459 l 2
 703 252 497 46 270 46 c 0
 155 46 3 106 3 212 c 0
 3 274 67 316 136 316 c 0
 221 316 287 252 287 183 c 0x7f70
 287 158 276 138 255 120 c 1
 264 119 272 118 281 118 c 0
 452 118 617 315 617 467 c 0
 617 501 602 535 566 535 c 0
 525 535 494 508 470 484 c 0
 418 431 355 385 263 385 c 0
 176 385 127 443 127 516 c 0x7fb0
 127 584 179 694 221 738 c 1
 0 738 l 1
EndSplineSet
LCarets2: 1 0
Ligature2: "'haln' Halant Forms in Bengali lookup 12 subtable" u09dc u09cd
EndChar

StartChar: u09dd_u09cd.haln
Encoding: 65574 -1 53
GlifName: u09dd_u09cd.haln
Width: 883
GlyphClass: 3
Flags: W
HStem: -34 94<485.097 566.903> 55 84<96.8725 200.225> 97 106<433.37 622.647> 280 61<530.483 618.532> 444 110<540.185 628.341> 637 59<544.404 669.594> 741 78<74 208> 749 70<304 794.209> 1008 20G<796 819>
VStem: 208 96<145.023 191 323.332 741> 344 82<434.963 566.713> 479 94<-27.9035 53.9035> 632 79<360.353 440.716> 771 73<359.692 503.122> 805 78<832.204 945.643>
AnchorPoint: "Anchor-0" 498 847 basechar 0
AnchorPoint: "Anchor-1" 546 -65 basechar 0
LayerCount: 2
Fore
SplineSet
651 -92 m 1x1cf8
 714 -59 l 1
 714 -59 762 -83 782 -109 c 0
 799 -131 806 -177 806 -177 c 1
 738 -199 l 1
 738 -199 727 -161 712 -142 c 0
 693 -118 651 -92 651 -92 c 1x1cf8
524 383 m 0
 524 358 541 341 568 341 c 0
 609 345 632 363 632 407 c 0
 632 433 614 444 592 444 c 0
 561 444 524 422 524 383 c 0
479 13 m 0
 479 42 497 60 526 60 c 0
 555 60 573 42 573 13 c 0
 573 -16 555 -34 526 -34 c 0x9cf8
 497 -34 479 -16 479 13 c 0
0 138 m 0
 0 142 46 184 53 184 c 0
 71 184 116 139 145 139 c 0
 199 139 208 149 208 230 c 2
 208 741 l 1
 74 741 l 1
 74 819 l 1x5efc
 261 819 449 819 636 819 c 0
 795 819 805 825 805 890 c 0x1dfa
 805 913 786 949 767 965 c 2
 750 980 l 1
 771 1003 l 2x1dfc
 782 1016 794 1028 798 1028 c 0
 840 1028 883 936 883 889 c 0x1dfa
 883 814 836 749 750 749 c 2
 304 749 l 1
 304 405 l 2
 307 275 429 203 530 203 c 0
 663 203 771 318 771 474 c 0
 771 563 679 625 670 632 c 1
 644 636 l 2
 637 637 630 637 623 637 c 0
 543 637 426 594 426 512 c 2
 426 505 l 2
 428 483 437 431 447 431 c 0
 450 431 454 437 457 454 c 0
 467 511 509 554 579 554 c 0
 645 554 711 511 711 437 c 0
 711 347 631 280 547 280 c 0
 441 280 350 372 344 479 c 1
 344 493 l 2
 344 601 435 703 544 703 c 0
 551 703 663 696 670 696 c 0
 711 696 844 533 844 404 c 0
 844 208 681 97 529 97 c 0x3dfc
 460 97 391 120 335 169 c 0
 321 181 308 191 305 191 c 1
 305 190 l 1
 281 119 253 55 149 55 c 0x5cfc
 89 55 0 99 0 138 c 0
EndSplineSet
LCarets2: 1 0
Ligature2: "'haln' Halant Forms in Bengali lookup 12 subtable" u09dd u09cd
EndChar

StartChar: u09df_u09cd.haln
Encoding: 65575 -1 54
GlifName: glyph219
Width: 721
VWidth: 1024
GlyphClass: 2
Flags: W
HStem: -35 94<151.097 232.903> 68 98<523.403 622.686> 104 106<188.841 360.543> 739 78<3 70 159 418.336> 1003 20G<628 632>
VStem: 63 98<237.315 328.929> 145 94<-28.9035 52.9035> 226 78<482.894 583.803> 425 78<255.118 740> 637 78<837.696 941.309>
AnchorPoint: "Anchor-0" 408 835 basechar 0
AnchorPoint: "Anchor-1" 426 -17 basechar 0
LayerCount: 2
Fore
SplineSet
519 -51 m 1x98c0
 582 -18 l 1
 582 -18 630 -42 650 -68 c 0
 667 -90 674 -136 674 -136 c 1
 606 -158 l 1
 606 -158 595 -120 580 -101 c 0
 561 -77 519 -51 519 -51 c 1x98c0
159 739 m 1
 187 728 213 712 236 690 c 0
 282 647 304 595 304 535 c 0
 304 458 267 398 220 364 c 0
 194 345 161 312 161 275 c 0
 161 233 218 210 265 210 c 0xbdc0
 329 210 382 239 425 269 c 1
 425 740 l 1
 386 739 336 739 272 739 c 2
 159 739 l 1
145 12 m 0x9ac0
 145 41 163 59 192 59 c 0
 221 59 239 41 239 12 c 0
 239 -17 221 -35 192 -35 c 0
 163 -35 145 -17 145 12 c 0x9ac0
3 738 m 1
 3 817 l 1
 262 817 l 2
 545 817 611 817 629 851 c 0
 634 860 637 875 637 884 c 0
 637 907 618 944 599 960 c 2
 582 974 l 1
 602 997 l 2
 613 1010 626 1023 630 1023 c 0
 634 1023 651 1009 668 992 c 0
 692 968 701 954 708 928 c 0
 712 912 715 897 715 882 c 0
 715 843 700 807 670 779 c 0
 645 755 572 746 503 742 c 1
 503 247 l 2
 503 206 528 166 568 166 c 0
 609 166 639 200 659 230 c 1
 711 174 l 1
 688 141 665 115 640 96 c 0
 615 77 591 68 568 68 c 0xddc0
 529 68 495 85 467 120 c 0
 457 133 448 147 442 161 c 1
 399 128 335 104 265 104 c 0
 161 104 63 174 63 275 c 0
 63 346 109 405 155 438 c 0
 177 454 194 469 207 485 c 0
 220 501 226 514 226 526 c 0xbdc0
 226 597 145 640 70 640 c 1
 70 738 l 1
 3 738 l 1
EndSplineSet
LCarets2: 1 0
Ligature2: "'haln' Halant Forms in Bengali lookup 12 subtable" u09df u09cd
EndChar

StartChar: u099c_u09cd_u099e_u09cd.haln
Encoding: 65576 -1 55
GlifName: u099c_u09cd_u099e_u09cd.haln
Width: 995
VWidth: 1024
GlyphClass: 3
Flags: W
HStem: 0 83<255.923 367.278> 79 87<755.683 834.056> 217 97<93.2908 180.852> 394 89<227.596 334.416> 569 88<509.867 602.448> 622 81<724.591 827.685> 738 80<0 221 327.549 579.751> 1003 20G<895 899>
VStem: 3 86<135.164 210.922> 127 90<493.369 614.787> 194 93<125.878 202.745> 617 113<426.911 555.885> 664 66<192.026 313> 857 74<189.579 294.814 481.311 592.992> 904 78<843.177 941.309>
AnchorPoint: "Anchor-0" 474 817 basechar 0
AnchorPoint: "Anchor-1" 678 43 basechar 0
LayerCount: 2
Fore
SplineSet
772 -41 m 1x3380
 835 -8 l 1
 835 -8 883 -32 903 -58 c 0
 920 -80 927 -126 927 -126 c 1
 859 -148 l 1
 859 -148 848 -110 833 -91 c 0
 814 -67 772 -41 772 -41 c 1x3380
730 212 m 1x738c
 759 191 765 166 783 166 c 0
 823 166 857 200 857 240 c 0
 857 300 791 344 730 350 c 1
 730 212 l 1x738c
723 607 m 1
 727 592 729 576 729 560 c 2
 729 426 l 1
 790 432 857 476 857 537 c 0
 857 582 821 622 776 622 c 0x3784
 759 622 742 617 725 608 c 0
 724 608 724 607 723 607 c 1
89 177 m 0
 89 146 118 121 149 121 c 0
 152 121 156 122 159 122 c 0
 179 125 194 138 194 161 c 0x33a0
 194 192 166 217 134 217 c 0
 131 217 127 216 124 216 c 0
 105 213 89 199 89 177 c 0
0 738 m 1
 0 818 l 1
 341 818 l 2
 624 818 877 818 895 852 c 0
 900 861 904 875 904 884 c 0
 904 907 885 944 866 960 c 2
 849 974 l 1
 869 998 l 2
 880 1011 893 1023 897 1023 c 0
 901 1023 918 1009 935 992 c 0
 959 968 968 954 975 928 c 0
 979 912 982 897 982 882 c 0
 982 843 967 807 937 779 c 0
 898 741 648 741 378 739 c 1
 361 734 344 728 331 719 c 0
 294 692 263 658 238 614 c 0
 225 590 217 567 217 544 c 0
 217 507 235 483 271 483 c 0
 283 483 297 487 312 493 c 0
 340 505 367 526 391 555 c 0
 428 599 469 630 514 646 c 0
 535 653 555 657 573 657 c 0xbbd2
 594 657 613 652 630 642 c 0
 633 640 637 639 640 639 c 0
 664 639 692 680 692 680 c 1
 718 695 746 703 776 703 c 0
 863 703 931 625 931 537 c 0
 931 461 879 409 821 388 c 1
 879 367 931 314 931 240 c 0
 931 155 866 79 783 79 c 0x77c4
 764 79 739 91 709 114 c 0
 697 124 675 130 664 136 c 1
 664 195 664 254 664 313 c 1
 653 283 653 280 635 249 c 0
 568 133 486 57 388 21 c 0
 348 6 309 0 270 0 c 0
 212 0 155 15 98 48 c 0
 58 71 30 103 14 141 c 0
 6 159 3 176 3 193 c 0
 3 256 52 296 100 309 c 0
 112 312 124 314 136 314 c 0
 159 314 182 308 204 295 c 0
 246 271 271 238 282 194 c 0
 285 182 287 170 287 159 c 0xb3ac
 287 130 276 106 255 85 c 1
 264 84 272 83 281 83 c 0
 322 83 366 99 411 130 c 0
 466 168 515 223 556 295 c 0
 590 354 609 409 615 462 c 0
 616 472 617 481 617 490 c 0
 617 527 606 552 584 564 c 0
 579 567 573 569 566 569 c 0
 556 569 545 566 532 560 c 0
 510 550 490 533 470 510 c 0
 428 460 381 425 330 407 c 0
 306 399 284 394 263 394 c 0
 176 394 127 462 127 547 c 0xbbd0
 127 585 138 622 159 659 c 0
 177 690 198 714 221 738 c 1
 0 738 l 1
EndSplineSet
LCarets2: 2 0 0
Ligature2: "'half' Half Forms in Bengali lookup 5 subtable" u099c_u09cd_u099e.akhn u09cd zwj
Ligature2: "'haln' Halant Forms in Bengali lookup 12 subtable" u099c_u09cd_u099e.akhn u09cd
EndChar

StartChar: kassa_u09cd.half
Encoding: 65577 -1 56
GlifName: kassa_u09cd.half
Width: 1165
VWidth: 1024
GlyphClass: 3
Flags: W
HStem: 63 98<683.523 780.671> 99 106<347.274 519.543> 155 72<54.6759 118.626> 221 68<828.279 961.449> 363 68<128.5 222.98> 437 72<141.021 202.943> 439 81<814.404 898.5> 607 106<143.609 201.321> 733 79<31 229 318 584> 758 21G<956 987.5>
VStem: -17 60<238.444 317.025> 69 60<520.444 599.025> 125 76<231.263 317.779> 209 76<512.812 600.907> 222 102<227.533 328.223> 351 112<477.445 605.4> 584 78<250.118 666> 726 72<318.529 412.017> 1028 83<367.42 538.983> 1043 80<854.516 936.113>
AnchorPoint: "Anchor-1" 774 61 basechar 0
AnchorPoint: "Anchor-0" 574 829 basechar 0
LayerCount: 2
Fore
SplineSet
875 -63 m 1x0921c0
 938 -30 l 1
 938 -30 986 -54 1006 -80 c 0
 1023 -102 1030 -148 1030 -148 c 1
 962 -170 l 1
 962 -170 951 -132 936 -113 c 0
 917 -89 875 -63 875 -63 c 1x0921c0
318 734 m 1
 397 703 463 624 463 530 c 0
 463 453 426 393 379 359 c 0
 358 344 333 320 324 292 c 0
 324 285 325 276 325 265 c 0
 325 260 324 256 324 251 c 0
 338 221 385 205 424 205 c 0x4923c0
 488 205 541 234 584 264 c 1
 584 735 l 1
 545 734 495 734 431 734 c 2
 318 734 l 1
129 555 m 0x0d35c0
 129 536 157 509 175 509 c 0
 196 509 209 532 209 557 c 0
 209 582 192 607 169 607 c 0
 148 607 129 580 129 555 c 0x0d35c0
43 273 m 0
 43 254 71 227 89 227 c 0
 110 227 125 250 125 275 c 0x2929c0
 125 300 106 325 83 325 c 0
 62 325 43 298 43 273 c 0
-41 737 m 1
 -41 737 -11 751 8 770 c 0
 16 777 24 796 31 807 c 1
 31 812 l 1
 34 812 l 2
 35 813 35 814 36 814 c 1
 36 812 l 1
 421 812 l 2
 506 812 574 811 626 811 c 0
 757 811 1043 819 1043 879 c 0
 1043 902 1024 939 1005 955 c 2
 988 969 l 1
 1008 992 l 2
 1019 1005 1032 1017 1036 1017 c 0
 1079 1017 1121 924 1121 877 c 0
 1121 864 1123 851 1123 839 c 0x2db5d0
 1123 812 1114 788 1054 769 c 0
 1027 760 1000 758 975 758 c 0
 937 758 905 764 898 764 c 0
 895 764 894 763 894 762 c 0
 894 756 928 736 928 736 c 1
 928 736 1111 584 1111 458 c 0
 1111 417 1100 375 1079 335 c 0
 1059 297 1011 252 973 234 c 0
 947 222 938 221 895 221 c 0
 839 221 812 230 777 262 c 0
 744 292 726 329 726 369 c 0
 726 456 804 520 875 520 c 0
 922 520 961 486 961 447 c 0
 961 409 933 383 901 383 c 0
 879 383 858 395 849 418 c 0
 845 428 842 437 841 438 c 2
 841 438 841 439 840 439 c 0
 833 439 809 415 803 402 c 0
 800 395 798 386 798 376 c 0
 798 319 842 289 896 289 c 0
 913 289 930 293 945 300 c 0
 996 325 1028 394 1028 462 c 0
 1028 491 1022 520 1010 545 c 0
 989 587 950 624 902 647 c 2
 862 666 l 1
 795 666 729 666 662 666 c 1
 662 242 l 2
 662 201 687 161 727 161 c 0
 768 161 798 195 818 225 c 1
 870 169 l 1
 838 123 791 63 727 63 c 0x9b61e0
 671 63 622 106 601 156 c 1
 558 123 494 99 424 99 c 0
 368 99 313 119 275 154 c 1
 229 173 l 1
 243 191 l 2
 243 192 244 191 244 192 c 0
 230 215 222 241 222 270 c 0
 222 294 227 315 234 333 c 1
 220 345 203 353 187 357 c 0
 172 361 163 363 157 363 c 0
 154 363 151 363 151 361 c 0
 151 358 157 353 165 345 c 0
 189 322 201 299 201 271 c 0x492be0
 201 208 147 155 93 155 c 0
 38 155 -17 212 -17 283 c 0
 -17 338 16 391 73 419 c 0
 96 430 108 431 149 431 c 0
 192 431 202 430 229 417 c 0
 244 410 258 400 271 389 c 1
 291 410 313 428 334 447 c 1
 315 455 l 1
 327 473 l 2
 343 495 351 520 351 545 c 0
 351 579 342 596 321 613 c 1
 298 625 269 633 242 635 c 1
 266 611 285 585 285 553 c 0
 285 490 231 437 177 437 c 0
 122 437 69 494 69 565 c 0
 69 620 102 673 159 701 c 0
 181 711 192 713 229 713 c 1
 229 733 l 1
 163 733 97 733 31 733 c 0x2db5c0
 26 733 22 736 17 736 c 0
 -2 736 -21 736 -41 737 c 1
EndSplineSet
LCarets2: 2 0 0
Ligature2: "'haln' Halant Forms in Bengali lookup 12 subtable" u0995_u09cd_u09b7.akhn u09cd
Ligature2: "'half' Half Forms in Bengali lookup 5 subtable" u0995_u09cd_u09b7.akhn u09cd zwj
EndChar

StartChar: u09b0_u09cd.rphf
Encoding: 65578 -1 57
GlifName: u09b0_u09cd.rphf
Width: 0
VWidth: 1024
GlyphClass: 4
Flags: W
HStem: 981 78<-208.472 -9>
VStem: -333 91<831.377 947.723>
AnchorPoint: "Anchor-0" -272 812 mark 0
LayerCount: 2
Fore
SplineSet
-333 890 m 0
 -333 937 -316 977 -280 1010 c 0
 -244 1043 -201 1059 -151 1059 c 2
 -9 1059 l 1
 -9 981 l 1
 -151 981 l 2
 -201 981 -242 940 -242 890 c 0
 -242 859 -228 834 -205 817 c 1
 -316 817 l 1
 -327 841 -333 864 -333 890 c 0
EndSplineSet
Ligature2: "'rphf' Reph Form in Bengali lookup 3 subtable" u09b0 u09cd
Ligature2: "'rphf' Reph Form in Bengali lookup 3 subtable" u09f0 u09cd
LCarets2: 1 0
EndChar

StartChar: u09af_u09cd.pstf
Encoding: 65579 -1 58
GlifName: u09af_u09cd.pstf
Width: 472
VWidth: 1024
GlyphClass: 3
Flags: W
HStem: -12 98<71.8944 148.453> 216 97<71.6927 148.307> 741 78<0 330> 1003 20G<390 394>
VStem: -20 78<99.4584 203.722> 162 78<151 203.308> 194 99<428.812 640.466> 302 89<213.622 312.287> 399 78<830.947 941.309>
LayerCount: 2
Fore
SplineSet
58 151 m 0xfd80
 58 118 78 86 110 86 c 0
 142 86 162 118 162 151 c 0
 162 184 142 216 110 216 c 0
 78 216 58 184 58 151 c 0xfd80
-80 741 m 1
 -80 768 0 792 0 819 c 1
 112 819 223 819 335 819 c 0
 374 819 384 835 391 851 c 0
 395 860 399 875 399 884 c 0
 399 907 380 944 361 960 c 2
 344 974 l 1
 364 997 l 2
 375 1010 388 1023 392 1023 c 0
 396 1023 413 1009 430 992 c 0
 454 968 463 954 470 928 c 0
 474 912 477 897 477 882 c 0
 477 852 477 843 459 819 c 1
 421 741 l 1
 416 734 l 1
 416 734 401 722 392 713 c 0
 366 688 362 674 326 648 c 0
 322 645 318 642 314 640 c 0
 300 631 293 603 293 566 c 0xfb80
 293 544 296 520 300 494 c 0
 311 424 337 349 370 313 c 0
 385 297 391 279 391 259 c 0
 391 200 334 130 298 83 c 0
 250 20 191 -12 123 -12 c 0
 41 -12 -20 67 -20 151 c 0
 -20 232 32 313 110 313 c 0
 188 313 240 232 240 151 c 1xfd80
 259 178 302 238 302 278 c 0
 302 293 295 306 279 313 c 0
 221 336 194 478 194 567 c 0xfb80
 194 605 198 633 208 639 c 0
 224 649 247 665 265 681 c 0
 287 702 330 730 330 741 c 1
 193 741 57 741 -80 741 c 1
EndSplineSet
LCarets2: 1 0
Ligature2: "'pstf' Post Base Forms in Bengali lookup 6 subtable" u09cd u09af
EndChar

StartChar: u09b0_u09cd.blwf
Encoding: 65580 -1 59
GlifName: u09b0_u09cd.blwf
Width: 0
VWidth: 1024
GlyphClass: 4
Flags: W
HStem: -297 68<-530.263 -275.679>
AnchorPoint: "Anchor-1" -75 45 basechar 0
LayerCount: 2
Fore
SplineSet
-568 -264 m 1
 -548 -203 l 1
 -494 -221 -442 -229 -393 -229 c 0
 -275 -229 -227 -188 -178 -106 c 0
 -152 -62 -131 -28 -110 38 c 1
 -41 38 l 1
 -66 -38 -93 -102 -125 -153 c 0
 -157 -204 -190 -241 -226 -261 c 0
 -267 -285 -316 -297 -376 -297 c 0
 -436 -297 -500 -286 -568 -264 c 1
EndSplineSet
Ligature2: "'blwf' Below Base Forms in Bengali2 lookup 4 subtable" u09cd u09b0
Ligature2: "'blwf' Below Base Forms in Bengali2 lookup 4 subtable" u09cd u09f0
LCarets2: 1 24
EndChar

StartChar: u09ac_u09cd.blwf
Encoding: 65581 -1 60
GlifName: u09ac_u09cd.blwf
Width: 0
GlyphClass: 4
Flags: W
HStem: -96 33<-226.451 -121.773> -79 39<-604.123 -376.906> 127 39<-599.881 -377.327>
VStem: -744 79<2.19894 84.404> -312 84<4.1136 82.6444 126 157>
AnchorPoint: "Anchor-1" -264 175 mark 0
LayerCount: 2
Fore
SplineSet
-665 43 m 0x78
 -665 -11 -576 -40 -492 -40 c 0
 -410 -40 -317 -12 -315 41 c 2
 -315 45 l 2
 -315 91 -392 127 -488 127 c 0
 -577 127 -665 96 -665 43 c 0x78
-744 43 m 0
 -744 115 -646 146 -512 164 c 0
 -502 166 -493 166 -483 166 c 0
 -425 166 -358 147 -336 137 c 2
 -312 126 l 1
 -312 157 l 1
 -228 157 l 1
 -228 -40 l 2x78
 -228 -58 -215 -63 -185 -63 c 0
 -162 -63 -125 -45 -111 -45 c 0
 -105 -45 -68 -61 -68 -63 c 0
 -68 -77 -142 -96 -188 -96 c 0xb8
 -271 -96 -293 -71 -312 -42 c 0
 -315 -42 -326 -46 -337 -51 c 0
 -382 -70 -437 -79 -492 -79 c 0
 -614 -79 -744 -35 -744 43 c 0
EndSplineSet
Ligature2: "'cjct' Conjunct Forms in Bengali2 lookup 13" space u09cd u09f1
Ligature2: "'cjct' Conjunct Forms in Bengali2 lookup 13" space u09cd u09ac
EndChar

StartChar: u0995_u09b0_u09cd
Encoding: 65582 -1 61
GlifName: u0995_u09b0_u09cd.blwf.vatu
Width: 1089
GlyphClass: 3
Flags: W
HStem: -263 68<351.737 606.321> 3 75<658.341 748.474> 40 74<261.237 445.93> 147 62<802.232 927.2> 343 74<790.402 830.52> 490 101<261.145 448.846> 548 67<654 835> 741 84<0 563 658 947.917 948 1000.66>
VStem: 78 82<211.396 395.965> 550 101<213.123 392.738> 563 88<502 548 615 740.935> 713 65<232.589 333.05> 984 75<274.499 449.853> 1005 79<829.835 890.98>
AnchorPoint: "Anchor-0" 528 823 basechar 0
AnchorPoint: "Anchor-1" 858 1 basechar 0
LayerCount: 2
Fore
SplineSet
160 300 m 2xbdd0
 160 179 259 114 352 114 c 0
 444 114 547 176 550 297 c 2
 550 309 l 2
 550 412 463 490 355 490 c 0
 262 490 160 427 160 315 c 2
 160 300 l 2xbdd0
-69 742 m 1
 -69 742 -39 756 -20 775 c 0
 -13 781 -6 796 0 807 c 1
 0 825 l 1
 945 825 l 2
 978 825 1005 827 1005 865 c 0
 1005 871 1002 876 1002 876 c 1
 1002 890 l 1
 995 891 l 2
 995 893 992 898 979 911 c 2
 965 925 l 1
 983 946 l 2
 993 958 1004 968 1008 968 c 0
 1047 968 1084 885 1084 842 c 0xbdb4
 1084 758 1056 749 948 741 c 1
 948 741 834 742 748 742 c 0
 705 742 669 742 658 741 c 1
 658 741 655 652 654 615 c 1
 900 615 1059 556 1059 361 c 0
 1059 249 982 147 865 147 c 0
 781 147 713 203 713 280 c 0
 713 360 783 417 847 417 c 0
 890 417 924 385 924 350 c 0
 924 316 899 293 871 293 c 0
 833 293 836 323 816 343 c 1
 800 343 778 311 778 287 c 0
 778 235 817 209 865 209 c 0
 945 209 984 290 984 365 c 0
 984 450 933 501 871 531 c 2
 835 548 l 1
 651 548 l 1x9bb8
 651 359 l 2
 651 263 650 202 650 164 c 0
 650 90 658 78 707 78 c 0
 734 78 775 118 791 118 c 0
 797 118 839 81 839 77 c 0
 839 75 838 74 838 72 c 1
 841 72 l 1
 816 -4 789 -68 757 -119 c 0
 725 -170 692 -207 656 -227 c 0
 615 -251 566 -263 506 -263 c 0
 446 -263 382 -252 314 -230 c 1
 334 -169 l 1
 388 -187 440 -195 489 -195 c 0
 607 -195 655 -154 704 -72 c 0
 720 -44 735 -20 749 10 c 1
 733 6 718 3 704 3 c 0xdbd0
 604 3 595 63 565 123 c 0
 562 123 549 117 537 105 c 0
 487 61 424 40 362 40 c 0
 226 40 78 139 78 316 c 0
 78 463 204 591 372 591 c 0
 438 591 512 548 537 526 c 2
 563 502 l 1
 563 741 l 1xbdb0
 372 741 180 741 -11 741 c 0
 -30 741 -49 741 -69 742 c 1
EndSplineSet
Ligature2: "'vatu' Vattu Variants in Bengali lookup 7 subtable" u0995 u09b0_u09cd.blwf
LCarets2: 1 0
EndChar

StartChar: u0996_u09b0_u09cd.blwf.vatu
Encoding: 65583 -1 62
GlifName: u0996_u09b0_u09cd.blwf.vatu
Width: 993
VWidth: 1024
GlyphClass: 3
Flags: W
HStem: -179 68<399.472 736.321> 62 93<195.349 401.928 750.479 867.404> 653 52<132.286 183.334> 750 71<727 832> 791 74<114.588 194.994> 1007 20G<897 920.5>
VStem: 22 109<208.25 322.9 623.178 652.911> 23 83<707.813 781.391> 197 64<717.533 787.694> 495 34<700 731.647> 636 91<178.326 296 457.222 750> 913 78<847.641 946.121>
AnchorPoint: "Anchor-0" 288 889 basechar 0
AnchorPoint: "Anchor-1" 912 -89 basechar 0
LayerCount: 2
Fore
SplineSet
106 739 m 0xedf0
 106 719 121 705 145 705 c 0
 173 705 197 734 197 759 c 0
 197 780 179 791 156 791 c 0
 124 791 106 771 106 739 c 0xedf0
22 264 m 0xf6f0
 22 355 232 516 303 541 c 1
 232 566 22 548 22 639 c 0xf6f0
 22 655 27 671 27 686 c 0
 27 698 23 710 23 722 c 0
 23 795 75 865 160 865 c 0xedf0
 222 865 261 822 261 760 c 0
 261 694 210 653 156 653 c 0
 151 653 138 652 132 650 c 0
 132 646 131 643 131 639 c 0
 131 613 219 608 221 608 c 2
 221 608 484 698 495 819 c 1
 529 709 l 2
 529 700 227 376 182 363 c 0
 140 350 131 302 131 264 c 0
 131 187 218 155 303 155 c 0
 508 155 636 395 636 608 c 2
 636 822 l 1
 719 822 784 821 826 821 c 0
 861 821 880 822 880 824 c 0
 880 828 903 849 903 849 c 2
 903 853 906 852 908 857 c 0
 911 865 913 881 913 889 c 0
 913 912 894 949 875 965 c 2
 858 979 l 1
 878 1002 l 2
 889 1015 895 1027 899 1027 c 0
 942 1027 991 934 991 887 c 0
 991 848 977 771 973 769 c 0
 966 766 864 753 864 753 c 2
 864 750 832 750 832 750 c 1
 727 750 l 1
 727 233 l 2
 727 190 759 155 802 155 c 0
 851 155 885 187 911 218 c 1
 974 155 l 1
 972 153 971 151 969 149 c 0
 945 76 918 14 887 -35 c 0
 855 -86 822 -123 786 -143 c 0
 745 -167 696 -179 636 -179 c 0
 576 -179 224 -168 156 -146 c 1
 176 -85 l 1
 230 -103 570 -111 619 -111 c 0
 737 -111 785 -70 834 12 c 0
 847 34 858 53 869 75 c 1
 848 67 826 62 802 62 c 0
 708 62 631 139 631 233 c 2
 631 296 l 1
 585 173 470 62 311 62 c 0
 161 62 22 124 22 264 c 0xf6f0
EndSplineSet
LCarets2: 1 0
Ligature2: "'vatu' Vattu Variants in Bengali lookup 7 subtable" u0996 u09b0_u09cd.blwf
EndChar

StartChar: u0997_u09b0_u09cd.blwf.vatu
Encoding: 65584 -1 63
GlifName: u0997_u09b0_u09cd.blwf.vatu
Width: 867
VWidth: 1024
GlyphClass: 3
Flags: W
HStem: -47 68<110.737 365.321> 27 20G<86.4426 120> 42 78<637.028 737.121> 232 78<185.676 357.215> 739 80<154.594 534 617 752> 1003 20G<776 799.5>
VStem: 39 91<622.493 716.038> 403 91<350.846 449.503> 516 99<214 526.25> 534 83<263.769 739> 785 78<838.886 940.269>
AnchorPoint: "Anchor-0" 372 859 basechar 0
AnchorPoint: "Anchor-1" 726 7 basechar 0
LayerCount: 2
Fore
SplineSet
0 395 m 1xdf60
 65 440 l 1
 110 377 179 310 273 310 c 0
 335 310 403 343 403 401 c 0
 403 456 335 487 279 492 c 0
 170 502 39 567 39 674 c 0
 39 760 131 819 221 819 c 2
 752 819 l 1
 752 823 772 839 775 845 c 0
 780 855 785 873 785 885 c 0
 785 908 766 944 747 960 c 2
 730 974 l 1
 750 998 l 2
 761 1011 774 1023 778 1023 c 0
 821 1023 863 930 863 883 c 0
 863 844 848 808 818 780 c 0
 778 741 769 741 617 740 c 1
 617 462 l 2xdf60
 617 374 615 308 615 259 c 0xdfa0
 615 242 616 227 616 214 c 1
 623 214 l 1
 621 208 619 202 617 196 c 0
 621 134 636 120 680 120 c 0
 703 120 740 139 756 158 c 2
 770 175 l 1
 794 155 l 2
 807 144 818 131 818 127 c 0
 818 84 725 42 678 42 c 0xbf60
 638 42 580 133 551 162 c 1
 520 94 467 18 415 -11 c 0
 374 -35 325 -47 265 -47 c 0
 205 -47 141 -36 73 -14 c 1
 93 47 l 1
 147 29 199 21 248 21 c 0
 366 21 414 62 463 144 c 0
 483 179 500 206 517 249 c 0
 517 254 516 258 516 262 c 0xdfa0
 516 300 534 320 534 443 c 2
 534 739 l 1
 221 739 l 2
 177 739 130 715 130 674 c 0
 130 523 494 599 494 401 c 0
 494 298 381 232 273 232 c 0
 150 232 57 314 0 395 c 1xdf60
EndSplineSet
LCarets2: 1 0
Ligature2: "'vatu' Vattu Variants in Bengali lookup 7 subtable" u0997 u09b0_u09cd.blwf
EndChar

StartChar: u0998_u09b0_u09cd.blwf.vatu
Encoding: 65585 -1 64
GlifName: u0998_u09b0_u09cd.blwf.vatu
Width: 973
VWidth: 1024
GlyphClass: 3
Flags: W
HStem: -189 68<279.737 534.321> 47 94<187.564 393.428 739.8 859.682> 442 67<349.432 465> 741 76<0 79.746> 741 1<-68.25 -21.75> 1003 20G<876 899.5>
VStem: 14 109<194.379 306.861 553.119 656.997> 623 92<165.281 281> 630 85<453.061 740> 885 78<844.305 941.258>
AnchorPoint: "Anchor-0" 426 853 basechar 0
AnchorPoint: "Anchor-1" 768 1 basechar 0
LayerCount: 2
Fore
SplineSet
123 250 m 0xe6c0
 123 173 210 141 295 141 c 0
 499 141 623 382 630 593 c 1
 630 740 l 1
 206 740 l 1
 176 689 123 638 123 625 c 0
 123 534 183 509 302 509 c 0
 368 509 440 514 465 514 c 1
 483 442 l 1
 370 442 123 369 123 250 c 0xe6c0
-69 742 m 1xef40
 -69 742 -39 756 -20 775 c 0
 -13 781 -6 796 0 807 c 1
 0 817 l 1
 2 817 4 817 6 817 c 0
 7 818 7 819 8 819 c 1
 8 817 l 1xf740
 294 817 859 817 877 851 c 0
 882 860 885 875 885 884 c 0
 885 907 866 944 847 960 c 2
 830 974 l 1
 850 997 l 2
 861 1010 874 1023 878 1023 c 0
 921 1023 963 929 963 882 c 0
 963 843 947 808 918 779 c 0
 912 773 890 764 890 764 c 1
 890 764 830 750 830 747 c 0
 830 741 813 742 715 741 c 1xeec0
 715 219 l 2
 715 186 736 157 766 146 c 1
 769 146 l 1
 769 145 l 1
 777 142 785 141 794 141 c 0
 842 141 877 173 903 203 c 1
 966 141 l 1
 927 94 869 47 794 47 c 0
 774 47 755 48 737 55 c 1
 703 -26 648 -118 584 -153 c 0
 543 -177 494 -189 434 -189 c 0
 374 -189 310 -178 242 -156 c 1
 262 -95 l 1
 316 -113 368 -121 417 -121 c 0
 535 -121 583 -82 632 0 c 0
 650 30 665 58 680 92 c 1
 645 124 623 169 623 219 c 2
 623 281 l 1
 578 159 461 47 303 47 c 0
 154 47 14 111 14 250 c 0
 14 341 76 412 147 437 c 1
 76 462 14 534 14 625 c 0
 14 638 64 688 92 741 c 1
 -21 741 l 2
 -37 741 -53 742 -69 742 c 1xef40
EndSplineSet
LCarets2: 1 0
Ligature2: "'vatu' Vattu Variants in Bengali lookup 7 subtable" u0998 u09b0_u09cd.blwf
EndChar

StartChar: u0999_u09b0_u09cd.blwf.vatu
Encoding: 65586 -1 65
GlifName: u0999_u09b0_u09cd.blwf.vatu
Width: 700
VWidth: 1024
GlyphClass: 3
Flags: W
HStem: -143 68<111.737 366.321> 48 70<212.211 355.214> 235 69<89.6431 178.943> 370 72<221.368 341.469> 511 72<498.638 602.022> 611 63<292 332> 753 59<254.87 324.799>
VStem: -0 85<168.53 230.286> 51 58<677.54 781.553> 124 90<451.158 540.886> 175 75<679.543 749.261> 190 93<161.091 224.054> 332 56<679.774 743.908> 614 86<353.684 501.298>
AnchorPoint: "Anchor-0" 294 877 basechar 0
AnchorPoint: "Anchor-1" 488 -56 basechar 0
LayerCount: 2
Fore
SplineSet
250 713 m 0xfe2c
 250 693 269 674 292 674 c 0
 313 674 332 695 332 716 c 0
 332 731 304 753 286 753 c 0
 264 753 250 732 250 713 c 0xfe2c
85 202 m 0xff1c
 85 176 116 157 147 157 c 0
 150 157 152 158 155 158 c 0
 175 160 190 171 190 190 c 0
 190 215 162 235 130 235 c 2
 120 235 l 2
 100 233 85 221 85 202 c 0xff1c
-0 206 m 2
 0 207 l 2
 1 265 64 304 134 304 c 0
 218 304 283 245 283 180 c 0xff1c
 283 157 272 137 251 120 c 1
 260 119 268 118 277 118 c 0
 448 118 614 304 614 448 c 0
 614 481 599 511 561 511 c 0
 519 511 491 486 466 463 c 0
 414 413 351 370 260 370 c 0
 173 370 124 425 124 494 c 0xfe4c
 124 522 136 574 166 593 c 1
 103 611 51 651 51 723 c 0
 51 763 58 785 77 804 c 2
 89 817 l 1
 108 811 127 804 146 798 c 1
 133 784 l 2
 117 766 109 745 109 725 c 0
 109 679 162 644 219 644 c 0
 222 644 224 644 224 646 c 0
 224 648 219 652 211 658 c 0
 187 677 175 696 175 719 c 0xfeac
 175 770 229 812 283 812 c 0xfe1c
 327 812 388 775 388 726 c 0
 388 677 334 611 332 611 c 0
 327 611 326 608 326 604 c 0
 326 599 328 592 328 589 c 0
 328 587 328 587 327 587 c 0
 297 587 214 546 214 501 c 2
 214 488 l 2xfe4c
 215 460 234 442 268 442 c 0
 319 442 359 472 388 500 c 0
 434 545 487 583 569 583 c 0
 660 583 700 517 700 440 c 0
 700 346 651 260 575 192 c 1
 550 116 549 51 517 0 c 0
 485 -51 452 -87 416 -107 c 0
 375 -131 326 -143 266 -143 c 0
 206 -143 142 -132 74 -110 c 1
 94 -49 l 1
 148 -67 200 -75 249 -75 c 0
 367 -75 415 -34 464 48 c 0
 483 80 499 108 515 146 c 1
 443 98 357 63 268 49 c 0
 263 48 258 48 252 48 c 0
 173 48 0 113 -0 206 c 2
EndSplineSet
Ligature2: "'vatu' Vattu Variants in Bengali lookup 7 subtable" u0999 u09b0_u09cd.blwf
LCarets2: 1 0
EndChar

StartChar: u099a_u09b0_u09cd.blwf.vatu
Encoding: 65587 -1 66
GlifName: u099a_u09b0_u09cd.blwf.vatu
Width: 888
GlyphClass: 3
Flags: W
HStem: -216 68<213.737 468.321> 46 83<98.0002 198.404> 65 106<431.147 618.124> 588 89<428.971 626.986> 735 84<0 199.843> 737 74<498 795.466>
VStem: 207 97<135.001 157 298.637 460.176 579 735> 748 96<285.208 473.187> 807 78<824.5 937.517>
AnchorPoint: "Anchor-0" 474 871 basechar 0
AnchorPoint: "Anchor-1" 750 61 basechar 0
LayerCount: 2
Fore
SplineSet
310 372 m 2xb3
 313 238 429 171 531 171 c 0
 636 171 748 243 748 379 c 0
 748 512 638 588 527 588 c 0
 407 588 310 500 310 384 c 2
 310 372 l 2xb3
-60 735 m 1xdb
 -60 763 0 791 0 819 c 1
 25 819 l 2xdb
 172 819 498 811 498 811 c 1
 638 811 l 2
 797 811 807 817 807 882 c 0
 807 905 788 941 769 957 c 2
 752 971 l 1
 773 995 l 2
 784 1008 797 1019 801 1019 c 0
 844 1019 885 928 885 881 c 0x9680
 885 809 836 737 752 737 c 2
 304 737 l 1
 304 579 l 1
 336 604 l 2
 364 629 446 677 519 677 c 0
 707 677 844 534 844 371 c 0
 844 249 783 162 701 112 c 1
 677 39 650 -23 619 -72 c 0
 587 -123 554 -160 518 -180 c 0
 477 -204 428 -216 368 -216 c 0
 308 -216 244 -205 176 -183 c 1
 196 -122 l 1
 250 -140 302 -148 351 -148 c 0
 469 -148 517 -107 566 -25 c 0
 586 9 603 36 619 77 c 1
 590 69 560 65 531 65 c 0xb7
 462 65 392 88 336 137 c 0
 322 149 310 158 306 158 c 0
 305 158 305 157 305 157 c 1
 281 86 254 46 150 46 c 0
 91 46 0 89 0 128 c 0
 0 132 47 174 54 174 c 0
 72 174 117 129 146 129 c 0
 200 129 207 142 207 219 c 2
 207 735 l 1
 -60 735 l 1xdb
EndSplineSet
LCarets2: 1 0
Ligature2: "'vatu' Vattu Variants in Bengali lookup 7 subtable" u099a u09b0_u09cd.blwf
EndChar

StartChar: u099b_u09b0_u09cd.blwf.vatu
Encoding: 65588 -1 67
GlifName: u099b_u09b0_u09cd.blwf.vatu
Width: 905
GlyphClass: 3
Flags: W
HStem: -240 68<357.956 633.321> 232 58<60.32 140.806> 260 74<290.056 452.2> 392 86<595.188 757.207> 626 63<288.151 452.231> 741 78<0 139.345> 741 69<424 797.809>
VStem: 142 68<622 741> 147 71<404.496 558.493> 524 71<471.311 556.953> 633 78<133.327 213.401> 775 98<297.646 372.317> 826 78<834.993 937.517>
AnchorPoint: "Anchor-0" 438 841 basechar 0
AnchorPoint: "Anchor-1" 774 -227 basechar 0
LayerCount: 2
Fore
SplineSet
218 476 m 2xb8e0
 221 382 300 334 372 334 c 0
 445 334 524 386 524 480 c 0
 524 573 448 626 370 626 c 0
 285 626 218 565 218 483 c 2
 218 476 l 2xb8e0
-69 742 m 1
 -69 742 -39 756 -20 775 c 0
 -13 781 -6 796 0 807 c 1
 0 819 l 1
 23 819 l 2x9d60
 170 819 424 811 424 811 c 2
 495 811 554 810 604 810 c 0
 766 810 826 818 826 882 c 0
 826 905 807 941 788 957 c 2
 771 971 l 1
 792 995 l 2
 803 1008 816 1019 820 1019 c 0
 863 1019 904 928 904 881 c 0x9b68
 904 808 857 741 771 741 c 2
 210 741 l 1
 210 622 l 1
 238 638 l 1
 258 655 316 689 367 689 c 0
 495 689 595 588 595 477 c 2
 595 468 l 1
 620 473 649 478 671 478 c 0
 767 478 873 429 873 340 c 0
 873 246 778 260 729 211 c 0
 716 198 711 188 711 179 c 0
 711 136 755 108 805 95 c 1
 868 95 l 1
 867 92 866 90 865 87 c 1
 867 87 l 1
 867 -3 l 1
 856 -3 844 -1 832 0 c 1
 798 -79 745 -170 683 -204 c 0
 642 -228 593 -240 533 -240 c 0
 473 -240 81 -177 13 -155 c 1
 33 -94 l 1
 87 -112 467 -172 516 -172 c 0
 634 -172 682 -131 731 -49 c 0
 744 -27 756 -8 767 14 c 1
 693 40 633 96 633 171 c 0
 633 235 673 244 717 270 c 0
 741 285 775 309 775 340 c 0
 775 378 715 392 671 392 c 0
 647 392 610 380 589 380 c 0
 583 378 585 378 569 368 c 1
 569 369 l 1
 528 300 451 260 375 260 c 0xbb70
 327 260 278 276 239 311 c 0
 229 320 221 325 218 325 c 2
 218 325 180 254 163 244 c 0
 145 233 138 232 108 232 c 0
 66 232 3 262 3 289 c 0
 3 291 35 321 40 321 c 0
 53 321 85 290 106 290 c 0
 143 290 147 316 147 370 c 2
 147 424 l 2xd8f0
 147 512 142 632 142 741 c 1
 91 741 40 741 -11 741 c 0xdb60
 -30 741 -49 741 -69 742 c 1
EndSplineSet
LCarets2: 1 0
Ligature2: "'vatu' Vattu Variants in Bengali lookup 7 subtable" u099b u09b0_u09cd.blwf
EndChar

StartChar: u099c_u09b0_u09cd.blwf.vatu
Encoding: 65589 -1 68
GlifName: u099c_u09b0_u09cd.blwf.vatu
Width: 1207
VWidth: 1024
GlyphClass: 3
Flags: W
HStem: -198 68<458.686 795.321> 6 84<330.357 444.07> 401 89<301.756 408.941> 576 89<582.508 677.135 762.995 935> 578 69<762 832.825> 742 79<-5 293 398.358 1052.08> 1003 20G<1102 1125.5>
VStem: 76 284<125.591 245.19> 201 90<500.376 627.437> 691 86<385.975 563.723> 1104 79<193.554 456.64> 1111 78<830.763 943.848>
AnchorPoint: "Anchor-0" 504 853 basechar 0
AnchorPoint: "Anchor-1" 1002 -71 basechar 0
LayerCount: 2
Fore
SplineSet
-69 742 m 1xf6c0
 -69 742 -39 756 -20 775 c 0
 -15 780 -10 789 -5 798 c 1
 -5 821 l 1
 802 821 l 2
 876 821 933 820 976 820 c 0
 1103 820 1111 828 1111 887 c 0xf6d0
 1111 910 1092 947 1073 963 c 2
 1056 977 l 1
 1076 1001 l 2
 1087 1014 1100 1023 1104 1023 c 0xf660
 1147 1023 1189 932 1189 885 c 0
 1189 846 1174 810 1144 782 c 0
 1104 743 1108 743 811 742 c 2
 433 742 l 1
 375 716 291 635 291 552 c 0
 291 515 308 490 344 490 c 0
 395 490 435 527 464 562 c 0
 509 616 566 665 645 665 c 0xf6d0
 669 665 691 657 707 647 c 1
 743 647 l 1
 780 653 809 661 834 661 c 0
 1038 661 1183 531 1183 370 c 0
 1183 244 1142 91 1118 91 c 1
 1076 55 l 1
 1051 -21 978 -3 946 -54 c 0
 914 -105 881 -142 845 -162 c 0
 804 -186 755 -198 695 -198 c 0
 635 -198 191 -160 123 -138 c 1
 143 -77 l 1
 197 -95 629 -130 678 -130 c 0
 796 -130 844 -89 893 -7 c 0
 919 37 980 25 1001 91 c 1
 1052 139 l 1
 1096 150 1104 211 1104 274 c 0
 1104 310 1101 346 1101 373 c 0
 1101 468 1045 526 975 559 c 2
 935 578 l 1
 762 578 l 1
 773 553 777 524 777 488 c 0
 777 247 570 6 343 6 c 0
 230 6 76 76 76 198 c 0
 76 271 139 321 209 321 c 0
 293 321 360 248 360 168 c 0xef60
 360 139 349 113 328 92 c 1
 337 91 345 90 354 90 c 0
 525 90 691 320 691 497 c 0
 691 538 676 576 639 576 c 0
 598 576 567 545 543 517 c 0
 491 456 428 401 337 401 c 0
 250 401 201 469 201 555 c 0
 201 633 250 698 293 741 c 1
 192 741 90 741 -11 741 c 0
 -30 741 -49 741 -69 742 c 1xf6c0
EndSplineSet
LCarets2: 1 0
Ligature2: "'vatu' Vattu Variants in Bengali lookup 7 subtable" u099c u09b0_u09cd.blwf
EndChar

StartChar: u099d_u09b0_u09cd.blwf.vatu
Encoding: 65590 -1 69
GlifName: u099d_u09b0_u09cd.blwf.vatu
Width: 1143
GlyphClass: 3
Flags: W
HStem: -210 68<393.737 648.321> 41 83<670.202 781.127> 82 99<253.861 448.115> 224 78<833.62 950.37> 598 97<270.65 452.162> 741 76<3 570.057> 742 66<660.125 859>
VStem: 34 98<294.678 480.308> 573 86<304.081 430.979 596 741> 1003 78<846.566 940.455> 1039 91<449.233 674.754>
AnchorPoint: "Anchor-0" 528 835 basechar 0
AnchorPoint: "Anchor-1" 882 -5 basechar 0
LayerCount: 2
Fore
SplineSet
659 564 m 1x9da0
 686 474 796 302 895 302 c 0
 1001 302 1039 487 1039 597 c 0
 1039 705 964 722 859 722 c 1
 859 741 l 1
 659 741 l 1
 659 564 l 1x9da0
132 389 m 0
 132 253 244 181 349 181 c 0xb980
 451 181 567 249 570 382 c 2
 570 394 l 2
 570 510 473 598 353 598 c 0
 242 598 132 521 132 389 c 0
-69 742 m 1x9ba0
 -69 742 -39 756 -20 775 c 0
 -12 782 -4 801 3 812 c 1
 3 817 l 1
 425 817 l 2x9da0
 510 817 634 808 745 808 c 0
 884 808 1003 822 1003 884 c 0
 1003 907 984 944 965 960 c 2
 948 974 l 1
 968 997 l 2
 978 1008 989 1009 995 1009 c 0
 1049 1009 1081 934 1081 882 c 0x9bc0
 1081 828 1048 776 1001 756 c 1
 1077 705 1130 703 1130 597 c 0
 1130 441 1049 224 895 224 c 0
 805 224 687 365 658 435 c 1
 658 364 657 308 657 266 c 0
 657 134 665 124 732 124 c 0
 761 124 807 169 825 169 c 0
 831 169 871 134 878 125 c 1
 883 125 l 1
 858 49 831 -15 799 -66 c 0
 767 -117 734 -154 698 -174 c 0
 657 -198 608 -210 548 -210 c 0
 488 -210 424 -199 356 -177 c 1
 376 -116 l 1
 430 -134 482 -142 531 -142 c 0
 649 -142 697 -101 746 -19 c 0
 760 5 773 26 785 51 c 1
 765 45 746 41 729 41 c 0xdba0
 625 41 598 104 574 175 c 1
 574 175 574 176 573 176 c 0
 569 176 556 166 542 154 c 0
 486 105 417 82 348 82 c 0
 196 82 34 193 34 388 c 0
 34 567 155 645 323 690 c 0
 335 693 347 695 360 695 c 0
 433 695 515 647 543 622 c 2
 573 596 l 1
 573 742 l 1
 11 742 l 1xbba0
 11 741 l 1
 -11 741 l 2x9da0
 -30 741 -49 741 -69 742 c 1x9ba0
EndSplineSet
LCarets2: 1 0
Ligature2: "'vatu' Vattu Variants in Bengali lookup 7 subtable" u099d u09b0_u09cd.blwf
EndChar

StartChar: u099e_u09b0_u09cd.blwf.vatu
Encoding: 65591 -1 70
GlifName: u099e_u09b0_u09cd.blwf.vatu
Width: 961
VWidth: 1024
GlyphClass: 3
Flags: W
HStem: -126 68<279.737 534.321> 44 92<217.034 429.592> 161 87<749.954 833.056> 174 80<192 230.733> 358 76<148.866 234.129> 551 124<528.556 603.095> 704 81<728.794 826.685> 733 78<523.537 621.169>
VStem: 62 78<264.855 349.344> 244 78<265.051 347.129> 429 78<636.5 716.463> 650 78<338.083 432 508 699.677> 856 74<271.579 376.814 563.311 674.992>
AnchorPoint: "Anchor-0" 546 859 basechar 0
AnchorPoint: "Anchor-1" 810 73 basechar 0
LayerCount: 2
Fore
SplineSet
728 508 m 1xcef8
 789 514 856 558 856 619 c 0
 856 664 820 704 775 704 c 0
 758 704 745 699 728 690 c 1
 728 508 l 1xcef8
712 279 m 1
 741 258 764 248 782 248 c 0xecf8
 822 248 856 282 856 322 c 0
 856 382 790 426 729 432 c 1
 729 294 l 1
 712 279 l 1
140 306 m 0
 140 276 163 254 192 254 c 0xdcf8
 219 254 244 279 244 306 c 0
 244 335 221 358 192 358 c 0
 161 358 140 337 140 306 c 0
62 292 m 0
 62 367 118 434 192 434 c 0
 264 434 322 376 322 304 c 0
 322 232 264 174 192 174 c 1
 221 149 269 136 322 136 c 0
 475 136 592 261 650 376 c 1
 650 642 l 2
 650 688 617 733 572 733 c 0
 536 733 507 704 507 668 c 0
 507 654 510 638 520 636 c 1
 524 658 546 675 572 675 c 0
 603 675 624 647 624 616 c 0
 624 578 585 551 546 551 c 0
 483 551 429 606 429 668 c 0
 429 746 494 811 572 811 c 0xddf8
 615 811 652 795 682 762 c 1
 682 759 l 1
 713 759 741 785 775 785 c 0
 862 785 930 707 930 619 c 0
 930 543 878 491 820 470 c 1
 878 449 930 396 930 322 c 0
 930 237 865 161 782 161 c 0xeef8
 774 161 765 164 755 169 c 1
 734 110 711 60 685 18 c 0
 653 -33 620 -70 584 -90 c 0
 543 -114 494 -126 434 -126 c 0
 374 -126 310 -115 242 -93 c 1
 262 -32 l 1
 316 -50 368 -58 417 -58 c 0
 535 -58 583 -17 632 65 c 0
 657 108 678 141 698 203 c 1
 689 209 681 214 674 218 c 1
 674 218 672 233 672 245 c 1
 650 226 l 1
 590 131 461 44 322 44 c 0
 183 44 62 154 62 292 c 0
EndSplineSet
LCarets2: 1 0
Ligature2: "'vatu' Vattu Variants in Bengali lookup 7 subtable" u099e u09b0_u09cd.blwf
EndChar

StartChar: u099f_u09b0_u09cd.blwf.vatu
Encoding: 65592 -1 71
GlifName: u099f_u09b0_u09cd.blwf.vatu
Width: 897
GlyphClass: 3
Flags: W
HStem: -192 68<240.737 492.513> 34 83<101.262 201.188> 74 106<436.428 629.801> 258 75<516.84 605.886> 437 95<528.422 616.879> 611 69<576.029 699.366> 736 74<127.25 209 307 367 511 791.758> 974 57<448.582 536.002> 1113 78<455.288 535.764>
VStem: 209 98<125.293 168 300.744 733> 348 83<412.329 552.564> 384 60<1037.37 1100.81> 591 69<953.548 1074> 620 96<346.971 432.381> 775 73<336.887 480.861> 810 78<829.666 937.037>
AnchorPoint: "Anchor-0" 210 889 basechar 0
AnchorPoint: "Anchor-1" 774 55 basechar 0
LayerCount: 2
Fore
SplineSet
512 375 m 0x9fc4
 512 350 529 333 557 333 c 0
 597 333 620 357 620 399 c 0
 620 425 603 437 580 437 c 0
 547 437 512 414 512 375 c 0x9fc4
444 1067 m 0x9fd0
 444 1045 469 1031 494 1031 c 0
 519 1031 543 1050 543 1073 c 0
 543 1094 516 1113 491 1113 c 0
 472 1113 444 1085 444 1067 c 0x9fd0
-69 742 m 1
 -69 742 -39 756 -20 775 c 0
 -17 777 -15 782 -12 786 c 2
 -12 820 l 1
 -12 820 233 815 367 812 c 1
 367 818 495 901 528 915 c 0
 559 928 591 975 591 1018 c 0
 591 1021 591 1023 589 1023 c 0
 586 1023 581 1018 573 1009 c 0
 551 985 527 974 499 974 c 0
 436 974 384 1027 384 1082 c 0
 384 1137 440 1191 510 1191 c 0
 589 1191 660 1125 660 1023 c 0
 660 937 621 892 563 862 c 0
 555 858 516 822 511 810 c 1
 567 810 l 1
 815 829 784 816 801 849 c 0
 806 858 810 872 810 881 c 0xdfd9
 810 904 791 941 772 957 c 2
 755 971 l 1
 775 995 l 2xdfc2
 786 1008 799 1019 803 1019 c 0
 846 1019 888 927 888 880 c 0xdfc1
 888 809 839 736 755 736 c 2
 307 736 l 1
 307 382 l 2
 310 253 434 180 534 180 c 0
 668 180 775 295 775 452 c 0
 775 540 683 605 674 611 c 1
 656 611 l 2
 649 612 649 614 642 614 c 0
 616 614 576 605 576 605 c 2
 495 593 431 577 431 481 c 0
 431 458 446 408 452 408 c 0
 455 408 459 416 462 432 c 0
 475 488 513 532 583 532 c 0
 649 532 716 489 716 414 c 0
 716 325 634 258 551 258 c 0
 445 258 355 350 349 456 c 0
 349 460 348 465 348 470 c 0
 348 577 439 680 548 680 c 2
 675 680 l 2
 714 680 848 509 848 381 c 0
 848 272 798 190 728 138 c 1
 703 64 677 2 646 -48 c 0
 614 -99 581 -136 545 -156 c 0
 504 -180 455 -192 395 -192 c 0
 335 -192 271 -181 203 -159 c 1
 223 -98 l 1
 277 -116 329 -124 378 -124 c 0
 496 -124 544 -82 593 0 c 0
 611 31 628 57 643 93 c 1
 608 81 570 74 534 74 c 0xbfe6
 465 74 396 97 340 146 c 0
 326 159 313 168 309 168 c 1
 309 167 l 1
 285 96 257 34 153 34 c 0
 94 34 3 78 3 115 c 0
 3 119 50 161 57 161 c 0
 75 161 121 117 150 117 c 0xdfe6
 203 117 209 130 209 206 c 2
 209 733 l 1
 -12 733 l 1
 -12 741 l 1
 -31 741 -50 741 -69 742 c 1
EndSplineSet
LCarets2: 1 0
Ligature2: "'vatu' Vattu Variants in Bengali lookup 7 subtable" u099f u09b0_u09cd.blwf
EndChar

StartChar: u09a0_u09b0_u09cd.blwf.vatu
Encoding: 65593 -1 72
GlifName: u09a0_u09b0_u09cd.blwf.vatu
Width: 539
VWidth: 1024
GlyphClass: 3
Flags: W
HStem: 42 136<208.824 313.895> 421 126<175.714 348.731> 741 78<0 185 242.609 369.023 446 463.117> 978 49<250.85 311.696> 1092 50<251.387 312.153>
VStem: 91 57<242.09 392.926> 117 57<892.813 1055.03> 199 50<1030.05 1059.89> 314 48<1029.42 1089.48> 432 76<322.69 559.912> 481 56<833.744 954.573>
AnchorPoint: "Anchor-0" 360 865 basechar 0
AnchorPoint: "Anchor-1" 432 43 basechar 0
LayerCount: 2
Fore
SplineSet
249 1059 m 0xf980
 249 1041 263 1027 281 1027 c 0
 300 1027 314 1040 314 1059 c 0
 314 1078 300 1092 281 1092 c 0
 262 1092 249 1078 249 1059 c 0xf980
148 320 m 0xfdc0
 148 247 200 178 271 178 c 0
 379 178 432 340 432 461 c 0
 432 497 427 529 422 562 c 1
 404 496 363 421 290 421 c 2
 214 421 l 2
 172 421 148 366 148 320 c 0xfdc0
-69 742 m 1
 -69 742 -39 756 -20 775 c 0
 -13 781 -6 796 0 807 c 1
 0 819 l 1
 185 819 l 1
 158 861 117 901 117 964 c 2
 117 978 l 2
 117 1066 185 1142 272 1142 c 0
 320 1142 362 1107 362 1060 c 0
 362 1015 326 978 281 978 c 0
 236 978 199 1015 199 1060 c 1
 183 1040 174 1014 174 978 c 0
 174 936 188 897 218 858 c 0
 233 838 262 837 296 819 c 1
 441 819 l 2
 463 819 481 879 481 909 c 0
 481 910 481 911 481 912 c 0
 480 930 482 925 462 956 c 1
 500 1023 l 1
 532 975 537 987 537 912 c 0xfba0
 537 849 492 741 446 741 c 1
 487 699 508 575 508 466 c 0
 508 340 472 177 394 95 c 1
 397 95 l 1
 373 19 347 -45 317 -96 c 0
 287 -147 256 -184 222 -204 c 0
 183 -228 137 -240 80 -240 c 0
 23 -240 56 -229 -8 -207 c 1
 11 -146 l 1
 64 -172 l 1
 64 -172 221 -131 267 -49 c 0
 285 -17 300 9 315 46 c 1
 304 43 293 42 281 42 c 0
 160 42 91 194 91 325 c 0
 91 422 136 547 224 547 c 2
 300 547 l 2
 380 547 369 652 394 689 c 1
 388 689 380 706 362 729 c 0
 353 741 259 744 169 744 c 0
 102 744 36 742 11 741 c 2
 -11 741 l 2
 -30 741 -49 741 -69 742 c 1
EndSplineSet
LCarets2: 1 0
Ligature2: "'vatu' Vattu Variants in Bengali lookup 7 subtable" u09a0 u09b0_u09cd.blwf
EndChar

StartChar: u09a1_u09b0_u09cd.blwf.vatu
Encoding: 65594 -1 73
GlifName: u09a1_u09b0_u09cd.blwf.vatu
Width: 728
VWidth: 1024
GlyphClass: 3
Flags: W
HStem: -156 68<87.7369 342.321> 46 72<257.269 378.71> 233 83<92.0541 181.499> 385 76<224.819 342.135> 535 75<504.249 604.692> 738 80<0 7 8 221> 1003 20G<641 664.5>
VStem: 3 86<164.137 227.202> 127 90<469.856 595.485> 194 93<154.623 221.178> 617 86<370.833 522.556> 650 78<827.763 941.258>
AnchorPoint: "Anchor-0" 270 853 basechar 0
AnchorPoint: "Anchor-1" 582 67 basechar 0
LayerCount: 2
Fore
SplineSet
89 199 m 0xff40
 89 172 118 151 149 151 c 2
 159 151 l 2
 179 154 194 165 194 185 c 0
 194 212 166 233 134 233 c 0
 131 233 127 232 124 232 c 0
 105 229 89 218 89 199 c 0xff40
-69 742 m 1
 -69 742 -39 756 -20 775 c 0
 -13 782 -7 798 0 809 c 1
 0 818 l 1
 7 818 l 1
 8 819 l 1
 8 818 l 1
 341 818 l 2
 415 818 472 817 515 817 c 0
 642 817 650 825 650 884 c 0
 650 907 631 944 612 960 c 2
 595 974 l 1
 615 998 l 2
 626 1011 639 1023 643 1023 c 0
 686 1023 728 929 728 882 c 0
 728 843 713 807 683 779 c 0
 644 741 646 757 378 739 c 0
 303 734 217 591 217 513 c 0xff90
 217 481 235 461 271 461 c 0
 322 461 362 493 391 523 c 0
 437 570 492 610 573 610 c 0
 663 610 702 542 703 463 c 2
 703 459 l 2
 703 357 653 256 576 179 c 1
 577 179 l 1
 552 103 525 39 493 -12 c 0
 461 -63 428 -100 392 -120 c 0
 351 -144 302 -156 242 -156 c 0
 182 -156 118 -145 50 -123 c 1
 70 -62 l 1
 124 -80 176 -88 225 -88 c 0
 343 -88 391 -47 440 35 c 0
 454 59 467 79 479 104 c 1
 416 67 344 46 270 46 c 0
 155 46 3 106 3 212 c 0
 3 274 67 316 136 316 c 0
 221 316 287 252 287 183 c 0xff60
 287 158 276 138 255 120 c 1
 264 119 272 118 281 118 c 0
 452 118 617 315 617 467 c 0
 617 501 602 535 566 535 c 0
 525 535 494 508 470 484 c 0
 418 431 355 385 263 385 c 0
 176 385 127 443 127 516 c 0xffa0
 127 584 179 694 221 738 c 1
 0 738 l 1
 0 741 l 1
 -4 741 -7 741 -11 741 c 0
 -30 741 -49 741 -69 742 c 1
EndSplineSet
LCarets2: 1 0
Ligature2: "'vatu' Vattu Variants in Bengali lookup 7 subtable" u09a1 u09b0_u09cd.blwf
EndChar

StartChar: u09a2_u09b0_u09cd.blwf.vatu
Encoding: 65595 -1 74
GlifName: u09a2_u09b0_u09cd.blwf.vatu
Width: 883
GlyphClass: 3
Flags: W
HStem: -186 68<213.737 468.321> 55 84<96.8725 200.225> 97 106<433.37 618.46> 280 61<530.483 618.532> 444 110<540.333 628.341> 632 71<571.03 695.099> 749 70<304 794.209> 1008 20G<796 819>
VStem: 208 96<145.023 191 323.332 741> 344 82<430.236 575.993> 632 79<360.353 440.716> 771 73<360.132 503.122> 805 78<832.204 945.643>
AnchorPoint: "Anchor-0" 408 841 basechar 0
AnchorPoint: "Anchor-1" 750 121 basechar 0
LayerCount: 2
Fore
SplineSet
524 383 m 0x9fe0
 524 358 541 341 568 341 c 0
 609 345 632 363 632 407 c 0
 632 433 614 444 592 444 c 0
 561 444 524 422 524 383 c 0x9fe0
-69 742 m 1
 -69 742 -39 756 -20 775 c 0
 -15 780 -9 790 -4 800 c 1
 -4 819 l 1
 209 819 423 819 636 819 c 0
 795 819 805 825 805 890 c 0xdfe8
 805 913 786 949 767 965 c 2
 750 980 l 1
 771 1003 l 2xdff0
 782 1016 794 1028 798 1028 c 0
 840 1028 883 936 883 889 c 0xdfe8
 883 814 836 749 750 749 c 2
 304 749 l 1
 304 405 l 2
 307 275 429 203 530 203 c 0
 663 203 771 318 771 474 c 0
 771 563 679 625 670 632 c 1
 652 632 l 2
 645 633 645 635 638 636 c 0
 612 636 571 627 571 627 c 2
 491 616 426 599 426 505 c 0
 426 482 441 430 448 430 c 0
 451 430 453 439 457 454 c 0
 470 510 509 554 579 554 c 0
 645 554 711 511 711 437 c 0
 711 347 631 280 547 280 c 0
 441 280 350 372 344 479 c 1
 344 493 l 2
 344 601 435 703 544 703 c 0
 551 703 663 697 670 696 c 0
 711 696 844 533 844 404 c 0
 844 284 784 196 702 146 c 1
 677 71 651 8 619 -42 c 0
 587 -93 554 -130 518 -150 c 0
 477 -174 428 -186 368 -186 c 0
 308 -186 244 -175 176 -153 c 1
 196 -92 l 1
 250 -110 302 -118 351 -118 c 0
 469 -118 517 -77 566 5 c 0
 586 39 603 68 620 110 c 1
 590 101 559 97 529 97 c 0xbff0
 460 97 391 120 335 169 c 0
 321 181 308 191 305 191 c 1
 305 190 l 1
 281 119 253 55 149 55 c 0
 89 55 0 99 0 138 c 0
 0 142 46 184 53 184 c 0
 71 184 116 139 145 139 c 0xdff0
 199 139 208 149 208 230 c 2
 208 741 l 1
 135 741 62 741 -11 741 c 0
 -30 741 -49 741 -69 742 c 1
EndSplineSet
LCarets2: 1 0
Ligature2: "'vatu' Vattu Variants in Bengali lookup 7 subtable" u09a2 u09b0_u09cd.blwf
EndChar

StartChar: u09a3_u09b0_u09cd.blwf.vatu
Encoding: 65596 -1 75
GlifName: u09a3_u09b0_u09cd.blwf.vatu
Width: 704
GlyphClass: 3
Flags: W
HStem: -195 68<201.737 456.321> 49 78<503.6 586.334> 299 68<153.886 287.893> 517 81<218.5 302.699> 741 78<256 401 489 596.603> 1003 20G<617 640.5>
VStem: 7 82<444.058 630.779> 319 72<397.192 504.249> 401 88<205.023 741> 626 78<843.974 941.258>
AnchorPoint: "Anchor-0" 264 853 basechar 0
AnchorPoint: "Anchor-1" 648 -59 basechar 0
LayerCount: 2
Fore
SplineSet
7 536 m 0
 7 686 131 812 321 817 c 0
 350 818 391 819 448 819 c 2
 465 819 l 2
 557 822 626 830 626 884 c 0
 626 907 607 944 588 960 c 2
 571 974 l 1
 591 997 l 2
 602 1010 615 1023 619 1023 c 0
 662 1023 704 929 704 882 c 0
 704 794 599 746 489 742 c 1
 489 468 l 2
 489 389 488 327 488 280 c 0
 488 151 496 127 555 127 c 0
 578 127 615 146 631 165 c 2
 645 182 l 1
 669 162 l 2
 678 154 686 146 690 140 c 1
 691 140 l 1
 691 139 l 2
 692 137 693 135 693 134 c 0
 693 123 687 113 678 103 c 1
 657 43 634 -8 607 -51 c 0
 575 -102 542 -139 506 -159 c 0
 465 -183 416 -195 356 -195 c 0
 296 -195 232 -184 164 -162 c 1
 184 -101 l 1
 238 -119 290 -127 339 -127 c 0
 457 -127 505 -86 554 -4 c 0
 566 16 577 35 587 55 c 1
 574 52 563 49 553 49 c 0
 514 49 478 64 450 94 c 0
 411 134 410 161 401 458 c 1
 401 741 l 1
 256 741 l 1
 216 725 l 1
 146 692 89 635 89 540 c 0
 89 457 133 367 221 367 c 0
 275 367 319 397 319 454 c 0
 319 479 294 517 278 517 c 0
 277 517 277 516 277 516 c 2
 255 494 257 461 216 461 c 0
 184 461 156 487 156 525 c 0
 156 564 195 598 242 598 c 0
 313 598 391 534 391 447 c 0
 391 361 314 299 222 299 c 0
 91 299 7 411 7 536 c 0
EndSplineSet
LCarets2: 1 0
Ligature2: "'vatu' Vattu Variants in Bengali lookup 7 subtable" u09a3 u09b0_u09cd.blwf
EndChar

StartChar: u09a4_u09b0_u09cd
Encoding: 65597 -1 76
GlifName: u09a4_u09b0_u09cd.blwf.vatu
Width: 790
GlyphClass: 3
Flags: W
HStem: -201 68<135.737 390.321> 41 90<267.035 476.897> 384 95<129.606 196.641> 597 107<508.752 611.161> 610 95<131.177 193.861> 740 78<0 7 8 653.696> 1003 20G<703 727>
VStem: 0 100<286.427 482.61> 208 98<487.335 597.939> 385 107<504.291 580.036> 661 97<304.973 532.157> 712 78<828.058 941.758>
AnchorPoint: "Anchor-0" 336 841 basechar 0
AnchorPoint: "Anchor-1" 654 85 basechar 0
LayerCount: 2
Fore
SplineSet
116 544 m 0xefc0
 116 507 141 479 165 479 c 0
 191 479 208 512 208 541 c 0
 208 568 192 610 163 610 c 0
 139 610 116 579 116 544 c 0xefc0
0 420 m 0
 0 572 51 705 169 705 c 0xefe0
 243 705 306 635 306 544 c 0
 304 451 251 384 166 384 c 0
 143 384 120 394 104 394 c 0
 101 394 100 392 100 385 c 0
 100 234 235 131 360 131 c 0
 366 131 373 132 379 132 c 0
 554 145 661 255 661 428 c 0
 661 516 619 597 566 597 c 0
 535 597 492 579 492 542 c 0
 492 513 537 490 562 446 c 2
 575 423 l 1
 532 424 488 426 445 427 c 1
 428 444 l 2
 405 468 386 513 385 543 c 0
 385 632 463 704 557 704 c 0
 695 704 758 571 758 427 c 0xf7e0
 758 302 708 197 623 128 c 1
 599 55 572 -7 541 -57 c 0
 509 -108 476 -145 440 -165 c 0
 399 -189 350 -201 290 -201 c 0
 230 -201 166 -190 98 -168 c 1
 118 -107 l 1
 172 -125 224 -133 273 -133 c 0
 391 -133 439 -92 488 -10 c 0
 505 18 520 42 534 74 c 1
 490 56 441 45 388 42 c 0
 380 42 372 41 364 41 c 0
 145 41 0 200 0 420 c 0
-69 742 m 1
 -69 742 -39 756 -20 775 c 0
 -14 781 -6 794 0 805 c 1
 0 818 l 1
 7 818 l 1
 8 819 l 1
 8 818 l 1
 403 818 l 2
 480 818 538 817 581 817 c 0
 705 817 712 825 712 885 c 0
 712 908 693 945 674 961 c 2
 657 975 l 1
 677 998 l 2
 689 1012 701 1022 705 1023 c 0
 749 1023 790 929 790 882 c 0xe7d0
 790 843 775 808 745 780 c 0
 705 741 710 742 413 740 c 2
 0 740 l 1
 0 741 l 1
 -11 741 l 2
 -30 741 -49 741 -69 742 c 1
EndSplineSet
Ligature2: "'vatu' Vattu Variants in Bengali lookup 7 subtable" u09a4 u09b0_u09cd.blwf
LCarets2: 1 0
EndChar

StartChar: u09a5_u09b0_u09cd.blwf.vatu
Encoding: 65598 -1 77
GlifName: u09a5_u09b0_u09cd.blwf.vatu
Width: 951
VWidth: 1049
GlyphClass: 3
Flags: W
HStem: -213 68<231.737 486.321> 30 111<201.825 422.647> 58 94<734.729 850.327> 452 85<116.142 195.707> 619 51<115.132 202.874> 733 61<103.502 270.45> 741 78<710 822.993> 1003 20G<848 872>
VStem: 0 63<614.216 687.547> 9 110<207.619 296.35> 207 66<548.726 611.945> 428 103<556.934 642.795> 615 95<355 741> 856 79<840.146 943.161>
AnchorPoint: "Anchor-0" 330 829 basechar 0
AnchorPoint: "Anchor-1" 768 1 basechar 0
LayerCount: 2
Fore
SplineSet
108 577 m 0x993c
 108 555 135 537 160 537 c 0
 179 537 207 565 207 583 c 0
 207 605 182 619 157 619 c 0
 132 619 108 600 108 577 c 0x993c
0 641 m 2xddbc
 0 654 l 2xddbc
 0 727 74 794 164 794 c 0
 207 794 291 791 291 791 c 2
 317 791 480 724 498 713 c 0
 523 698 531 662 531 622 c 0
 531 461 426 388 269 349 c 0
 205 333 119 311 119 253 c 0
 119 201 204 141 295 141 c 0xdd7c
 422 141 533 196 589 311 c 1
 615 355 l 1
 615 819 l 1
 710 819 l 2
 814 819 823 822 823 823 c 2
 846 846 l 1
 846 846 856 874 856 885 c 0
 856 909 838 945 818 961 c 2
 801 975 l 1
 822 999 l 2
 833 1012 846 1023 850 1023 c 0
 894 1023 935 931 935 884 c 0
 935 845 890 781 890 781 c 2
 890 778 882 769 881 765 c 0
 879 759 867 744 864 742 c 0
 863 741 863 741 809 741 c 2
 710 741 l 1
 710 485 l 2
 710 188 711 184 752 163 c 0
 763 157 780 152 790 152 c 0
 815 152 862 175 882 197 c 2
 899 214 l 1
 925 189 l 2
 939 175 951 158 951 152 c 0
 951 116 851 58 787 58 c 0xbb7c
 760 58 731 65 705 77 c 1
 668 -24 614 -134 536 -177 c 0
 495 -201 446 -213 386 -213 c 0
 326 -213 262 -202 194 -180 c 1
 214 -119 l 1
 268 -137 320 -145 369 -145 c 0
 487 -145 535 -104 584 -22 c 0
 609 20 630 53 650 114 c 1
 632 131 621 151 621 170 c 0
 621 180 620 186 616 186 c 0
 611 186 602 176 588 157 c 0
 540 88 434 30 315 30 c 0
 166 30 9 102 9 248 c 0xd97c
 9 430 283 444 386 530 c 1
 386 530 428 574 428 607 c 0
 428 613 426 617 423 622 c 0
 387 678 323 695 273 707 c 2
 262 710 l 1
 250 715 l 2
 250 717 196 733 156 733 c 0
 104 733 66 677 66 626 c 0
 66 624 63 614 63 611 c 0
 63 610 64 610 64 610 c 2
 67 610 76 623 84 632 c 0
 106 657 130 670 158 670 c 0
 221 670 273 617 273 562 c 0
 273 507 216 452 147 452 c 0
 54 452 0 523 0 641 c 2xddbc
EndSplineSet
LCarets2: 1 0
Ligature2: "'vatu' Vattu Variants in Bengali lookup 7 subtable" u09a5 u09b0_u09cd.blwf
EndChar

StartChar: u09a6_u09b0_u09cd.blwf.vatu
Encoding: 65599 -1 78
GlifName: u09a6_u09b0_u09cd.blwf.vatu
Width: 562
VWidth: 1024
GlyphClass: 3
Flags: W
HStem: -204 68<48.7369 303.321> 58 84<242.338 434.069> 739 78<0 132 207 467.15> 1003 20G<459 497>
VStem: 124 98<163.329 236.46> 132 75<562.536 739> 288 78<361.347 442.207> 484 78<833.537 940.539>
AnchorPoint: "Anchor-0" 252 853 basechar 0
AnchorPoint: "Anchor-1" 462 -77 basechar 0
LayerCount: 2
Fore
SplineSet
-69 742 m 1xf7
 -69 742 -39 756 -20 775 c 0
 -13 781 -6 796 0 807 c 1
 0 817 l 1
 6 817 l 2
 7 818 7 819 8 819 c 1
 8 817 l 1
 419 817 l 2
 455 817 484 846 484 882 c 0
 484 920 457 952 432 973 c 1
 477 1023 l 1
 517 989 562 944 562 882 c 0
 562 804 497 739 419 739 c 2
 207 739 l 1
 207 568 l 1xf7
 286 548 366 485 366 402 c 0
 366 340 325 291 282 266 c 0
 258 251 222 226 222 194 c 0
 222 159 285 142 326 142 c 0
 390 142 450 167 496 194 c 1
 542 130 l 2
 540 128 538 127 536 125 c 0
 512 52 485 -10 454 -60 c 0
 422 -111 389 -148 353 -168 c 0
 312 -192 263 -204 203 -204 c 0
 143 -204 79 -193 11 -171 c 1
 31 -110 l 1
 85 -128 137 -136 186 -136 c 0
 304 -136 352 -95 401 -13 c 0
 419 17 435 43 450 78 c 1
 414 65 372 58 326 58 c 0
 233 58 124 108 124 194 c 0xfb
 124 287 220 314 268 362 c 0
 281 375 288 387 288 396 c 0
 288 456 200 486 132 486 c 1
 132 739 l 1
 0 739 l 1
 0 741 l 1
 -11 741 l 2
 -30 741 -49 741 -69 742 c 1xf7
EndSplineSet
LCarets2: 1 0
Ligature2: "'vatu' Vattu Variants in Bengali lookup 7 subtable" u09a6 u09b0_u09cd.blwf
EndChar

StartChar: u09a7_u09b0_u09cd.blwf.vatu
Encoding: 65600 -1 79
GlifName: u09a7_u09b0_u09cd.blwf.vatu
Width: 670
VWidth: 1024
GlyphClass: 3
Flags: W
HStem: -186 68<180.737 435.321> 58 93<138.589 301.838 487.958 565.322> 400 95<182.658 394> 557 78<187 217.61> 728 110<117.283 214.16> 741 76<468 544.795> 1003 20G<584 609>
VStem: 0 88<197.679 330.505 564.591 699.148> 224 74<639.873 716.447> 394 74<233.36 400 495 741> 593 79<851.467 940.699>
AnchorPoint: "Anchor-0" 197 840 basechar 0
AnchorPoint: "Anchor-1" 608 -54 basechar 0
LayerCount: 2
Fore
SplineSet
88 260 m 0xf3e0
 88 189 149 151 224 151 c 0
 299 151 353 207 394 257 c 1
 394 400 l 1
 253 395 88 398 88 260 c 0xf3e0
0 260 m 0
 0 346 47 421 107 448 c 1
 47 475 0 549 0 635 c 0
 0 734 62 838 157 838 c 0
 238 838 298 764 298 682 c 0
 298 617 250 557 187 557 c 1
 187 635 l 1
 209 635 224 659 224 682 c 0
 224 710 193 728 163 728 c 0xfbe0
 119 728 88 681 88 635 c 0
 88 497 253 500 394 495 c 1
 394 817 l 1
 436 819 593 823 593 884 c 0
 593 907 574 944 555 960 c 2
 538 974 l 1
 558 997 l 2
 569 1010 582 1023 586 1023 c 0
 632 1023 672 924 672 875 c 0
 672 857 596 741 557 741 c 2
 468 741 l 1xf7e0
 468 229 l 2
 468 190 493 151 530 151 c 0
 569 151 598 185 617 214 c 1
 666 151 l 2
 666 150 665 150 665 149 c 1
 670 149 l 1
 645 73 618 9 586 -42 c 0
 554 -93 521 -130 485 -150 c 0
 444 -174 395 -186 335 -186 c 0
 275 -186 211 -175 143 -153 c 1
 163 -92 l 1
 217 -110 269 -118 318 -118 c 0
 436 -118 484 -77 533 5 c 0
 545 25 556 44 566 64 c 1
 555 60 543 58 530 58 c 0
 478 58 436 96 413 142 c 1
 370 99 306 58 231 58 c 0
 100 58 0 132 0 260 c 0
EndSplineSet
LCarets2: 1 0
Ligature2: "'vatu' Vattu Variants in Bengali lookup 7 subtable" u09a7 u09b0_u09cd.blwf
EndChar

StartChar: u09a8_u09b0_u09cd.blwf.vatu
Encoding: 65601 -1 80
GlifName: u09a8_u09b0_u09cd.blwf.vatu
Width: 653
GlyphClass: 3
Flags: W
HStem: -189 68<99.7369 354.321> 83 98<410.695 496.702> 432 98<129.682 213.895> 734 85<0 361>
VStem: 3 98<196.59 400.804> 554 99<255.875 505.285> 564 84<835.953 948.441>
AnchorPoint: "Anchor-0" 287 837 basechar 0
AnchorPoint: "Anchor-1" 554 -6 basechar 0
LayerCount: 2
Fore
SplineSet
-69 742 m 1xfc
 -69 742 -39 756 -20 775 c 0
 -13 782 -7 800 0 811 c 1
 0 819 l 1
 245 819 l 2
 307 819 356 818 397 818 c 0
 538 818 564 826 564 890 c 0
 564 912 544 954 524 973 c 2
 509 987 l 1
 532 1011 l 2
 545 1024 559 1034 565 1034 c 0
 597 1034 648 945 648 888 c 0xfa
 648 821 576 740 526 740 c 0
 521 740 519 738 519 735 c 0
 519 725 543 703 566 686 c 0
 612 652 653 489 653 386 c 0
 653 299 634 206 587 146 c 1
 589 146 l 1
 564 70 537 6 505 -45 c 0
 473 -96 440 -133 404 -153 c 0
 363 -177 314 -189 254 -189 c 0
 194 -189 130 -178 62 -156 c 1
 82 -95 l 1
 136 -113 188 -121 237 -121 c 0
 355 -121 403 -82 452 0 c 0
 469 29 484 56 498 88 c 1
 485 85 472 83 457 83 c 0
 271 83 313 345 205 418 c 0
 192 427 181 432 171 432 c 0
 122 432 101 368 101 316 c 0
 101 229 132 144 183 93 c 2
 209 68 l 1
 173 41 l 2
 153 26 135 15 132 15 c 0
 75 15 3 233 3 309 c 0
 3 420 58 530 170 530 c 0
 255 530 334 448 367 314 c 0
 382 256 400 181 453 181 c 0
 500 181 548 256 553 338 c 0
 553 345 554 352 554 360 c 0
 554 481 497 664 401 711 c 2
 361 730 l 1
 241 731 120 733 0 734 c 1
 0 741 l 1
 -11 741 l 2
 -30 741 -49 741 -69 742 c 1xfc
EndSplineSet
LCarets2: 1 0
Ligature2: "'vatu' Vattu Variants in Bengali lookup 7 subtable" u09a8 u09b0_u09cd.blwf
EndChar

StartChar: u09aa_u09b0_u09cd.blwf.vatu
Encoding: 65602 -1 81
GlifName: u09aa_u09b0_u09cd.blwf.vatu
Width: 786
VWidth: 1024
GlyphClass: 3
Flags: W
HStem: -87 68<152.985 436.654> 161 91<178.696 382.493> 448 78<181.55 266> 720 91<170.721 377.692> 738 77<612 685.269> 1003 20G<685 708.5>
VStem: 28 94<297.975 398.858 577.161 678.102> 534 78<388.082 585.207 693 738> 546 66<125.848 248.917> 553 59<81.0774 188.921> 694 78<821.716 940.395>
AnchorPoint: "Anchor-0" 275 813 basechar 0
AnchorPoint: "Anchor-1" 611 -3 basechar 0
LayerCount: 2
Fore
SplineSet
122 344 m 0xf620
 122 283 210 252 278 252 c 0
 414 252 538 353 538 486 c 0
 538 622 406 720 266 720 c 0
 201 720 122 691 122 632 c 0
 122 567 197 526 266 526 c 1
 266 448 l 1
 198 448 122 408 122 344 c 0xf620
28 343 m 0
 28 415 84 469 144 485 c 1
 83 501 28 556 28 629 c 0
 28 739 147 811 262 811 c 0xf720
 381 811 477 761 534 693 c 1
 534 816 l 1
 559 816 l 2
 588 816 611 815 630 815 c 0
 676 815 694 823 694 883 c 0
 694 906 675 943 656 959 c 2
 639 973 l 1
 659 996 l 2
 670 1009 683 1023 687 1023 c 0
 730 1023 772 928 772 881 c 0
 771 776 718 739 612 738 c 1xef20
 612 189 l 1xeea0
 605 151 l 1
 606 152 l 2
 609 152 611 134 611 111 c 0
 611 75 604 25 578 3 c 0
 499 -65 393 -87 326 -87 c 0
 259 -87 187 -76 111 -54 c 1
 133 7 l 1
 193 -11 252 -19 307 -19 c 0
 439 -19 493 22 548 104 c 0
 552 110 553 117 553 125 c 0xee60
 553 143 547 167 546 190 c 2xeea0
 534 291 l 1xef20
 473 218 402 161 274 161 c 0
 155 161 28 231 28 343 c 0
EndSplineSet
LCarets2: 1 0
Ligature2: "'vatu' Vattu Variants in Bengali lookup 7 subtable" u09aa u09b0_u09cd.blwf
EndChar

StartChar: u09ab_u09b0_u09cd.blwf.vatu
Encoding: 65603 -1 82
GlifName: u09ab_u09b0_u09cd.blwf.vatu
Width: 1140
GlyphClass: 3
Flags: W
HStem: -159 68<219.737 474.321> 61 98<525.597 589.79> 97 106<188.841 361.113> 141 68<826.897 959.722> 359 81<812.563 896.5> 586 75<508 860> 742 75<3 70 159 501.828> 1003 20G<1048 1071.5>
VStem: 63 98<230.315 320.808> 226 78<475.945 576.036> 427 81<248.118 586> 724 72<239.192 345.756> 1026 80<283.914 461.46> 1057 78<845.035 941.258>
AnchorPoint: "Anchor-0" 494 828 basechar 0
AnchorPoint: "Anchor-1" 716 51 basechar 0
LayerCount: 2
Fore
SplineSet
-69 742 m 1xaff8
 -69 742 -39 756 -20 775 c 0
 -12 782 -4 801 3 812 c 1
 3 817 l 1
 6 817 l 2
 7 818 7 819 8 819 c 1
 8 817 l 1
 262 817 l 2
 545 817 1031 817 1049 851 c 0
 1054 860 1057 875 1057 884 c 0
 1057 907 1038 944 1019 960 c 2
 1002 974 l 1
 1022 997 l 2
 1033 1010 1046 1023 1050 1023 c 0
 1093 1023 1135 929 1135 882 c 0
 1135 743 970 742 814 742 c 2
 159 742 l 1
 237 711 304 621 304 528 c 0
 304 451 267 391 220 357 c 0
 194 338 161 305 161 268 c 0
 161 226 218 203 265 203 c 0xaff4
 329 203 384 232 427 262 c 1
 427 661 l 1
 866 661 l 1
 994 614 1106 491 1106 364 c 0
 1106 245 1017 141 893 141 c 0
 800 141 724 203 724 289 c 0
 724 376 802 440 873 440 c 0
 920 440 959 406 959 367 c 0
 959 329 931 303 899 303 c 0
 857 303 861 336 839 358 c 2
 839 358 839 359 838 359 c 0
 822 359 796 321 796 296 c 0
 796 239 840 209 894 209 c 0x9ff8
 982 209 1026 299 1026 382 c 0
 1026 476 969 534 900 567 c 2
 860 586 l 1
 508 586 l 1
 508 240 l 2
 508 199 528 159 568 159 c 0
 609 159 639 193 659 223 c 1
 703 176 l 1
 709 176 l 1
 708 174 708 173 707 171 c 2
 711 167 l 1
 708 163 704 159 701 154 c 0
 678 88 654 31 625 -15 c 0
 593 -66 560 -103 524 -123 c 0
 483 -147 434 -159 374 -159 c 0
 314 -159 250 -148 182 -126 c 1
 202 -65 l 1
 256 -83 308 -91 357 -91 c 0
 475 -91 523 -50 572 32 c 0
 578 43 584 53 590 63 c 1
 583 61 576 61 568 61 c 0xcff8
 512 61 463 104 442 154 c 1
 399 121 335 97 265 97 c 0
 161 97 63 167 63 268 c 0
 63 380 157 416 207 478 c 0
 220 494 226 507 226 519 c 0
 226 590 145 632 70 632 c 1
 70 738 l 1
 3 738 l 1
 3 741 l 1
 -11 741 l 2
 -30 741 -49 741 -69 742 c 1xaff8
EndSplineSet
LCarets2: 1 0
Ligature2: "'vatu' Vattu Variants in Bengali lookup 7 subtable" u09ab u09b0_u09cd.blwf
EndChar

StartChar: u09ac_u09b0_u09cd.blwf.vatu
Encoding: 65604 -1 83
GlifName: u09ac_u09b0_u09cd.blwf.vatu
Width: 870
GlyphClass: 3
Flags: W
HStem: -204 68<383.036 623.251> 47 83<685.125 764.42> 88 99<253.861 448.115> 604 97<270.65 452.162> 739 78<3 573 679 772.97> 1003 20G<780 803.5>
VStem: 34 98<300.678 486.308> 573 106<310.081 480.812 602 739> 789 78<835.709 941.258>
AnchorPoint: "Anchor-0" 360 816 basechar 0
AnchorPoint: "Anchor-1" 810 -54 basechar 0
LayerCount: 2
Fore
SplineSet
132 395 m 0xbf80
 132 259 244 187 349 187 c 0
 451 187 567 255 570 388 c 2
 570 400 l 2
 570 516 473 604 353 604 c 0
 242 604 132 527 132 395 c 0xbf80
-69 742 m 1
 -69 742 -39 756 -20 775 c 0
 -12 782 -4 801 3 812 c 1
 3 817 l 1
 6 817 l 2
 7 818 7 819 8 819 c 1
 8 817 l 1
 425 817 l 2
 502 817 563 816 612 816 c 0
 751 816 789 824 789 884 c 0
 789 907 770 944 751 960 c 2
 734 974 l 1
 754 997 l 2
 765 1010 778 1023 782 1023 c 0
 825 1023 867 929 867 882 c 0
 867 823 866 769 797 747 c 0
 778 741 697 742 679 741 c 1
 679 186 l 2
 679 143 694 130 732 130 c 0
 761 130 807 175 825 175 c 0
 832 175 879 133 879 129 c 0
 879 118 871 106 858 95 c 1
 835 34 811 -17 783 -60 c 0
 749 -111 715 -148 677 -168 c 0
 634 -192 582 -204 519 -204 c 0
 456 -204 172 -137 101 -115 c 1
 122 -54 l 1
 179 -72 449 -136 501 -136 c 0
 625 -136 675 -95 727 -13 c 0
 741 9 753 29 765 52 c 1
 752 49 740 47 729 47 c 0xdf80
 625 47 598 110 574 181 c 1
 574 181 574 182 573 182 c 0
 569 182 556 172 542 160 c 0
 486 111 417 88 348 88 c 0
 196 88 34 199 34 394 c 0
 34 573 155 651 323 696 c 0
 335 699 347 701 360 701 c 0
 433 701 515 653 543 628 c 2
 573 602 l 1
 573 739 l 1
 3 739 l 1
 3 741 l 1
 -11 741 l 2
 -30 741 -49 741 -69 742 c 1
EndSplineSet
LCarets2: 1 0
Ligature2: "'vatu' Vattu Variants in Bengali lookup 7 subtable" u09ac u09b0_u09cd.blwf
EndChar

StartChar: u09ad_u09b0_u09cd.blwf.vatu
Encoding: 65605 -1 84
GlifName: u09ad_u09b0_u09cd.blwf.vatu
Width: 711
VWidth: 1024
GlyphClass: 3
Flags: W
HStem: -145 68<51.7369 306.321> 55 78<259.332 365.31> 269 72<117.385 196.518> 414 80<230.677 334.386> 541 75<242.562 323.257> 571 80<483.238 569.578> 739 78<0 293 316 570.696> 1003 20G<620 643.5>
VStem: 30 84<192.302 263.972> 142 81<500.694 577.724> 209 76<185.271 257.458> 328 74<622.355 683.302> 582 78<386.781 560.866> 629 78<826.503 941.258>
AnchorPoint: "Anchor-0" 315 837 basechar 0
AnchorPoint: "Anchor-1" 552 72 basechar 0
LayerCount: 2
Fore
SplineSet
240 648 m 0xfb90
 240 629 262 616 284 616 c 0
 306 616 328 633 328 654 c 0
 328 674 305 690 281 690 c 0
 264 690 240 665 240 648 c 0xfb90
114 234 m 0
 114 204 140 181 170 181 c 0
 173 181 175 182 177 182 c 0
 194 185 209 198 209 218 c 0xf3b0
 209 245 182 269 155 269 c 0
 152 269 149 268 146 268 c 0
 130 265 114 253 114 234 c 0
-69 742 m 1
 -69 742 -39 756 -20 775 c 0
 -13 781 -6 796 0 807 c 1
 0 817 l 1
 6 817 l 2
 7 818 7 819 8 819 c 1
 8 817 l 1
 320 817 l 2
 397 817 455 816 498 816 c 0
 622 816 629 824 629 884 c 0
 629 907 610 944 591 960 c 2
 574 974 l 1
 594 997 l 2
 605 1010 618 1023 622 1023 c 0
 665 1023 707 929 707 882 c 0
 707 843 692 807 662 779 c 0
 622 740 627 741 330 739 c 2
 316 739 l 1
 365 730 402 685 402 639 c 0
 402 589 355 541 297 541 c 0
 272 541 250 551 231 572 c 0
 232 573 230 576 227 579 c 1
 224 568 223 556 223 545 c 0xfbd4
 224 514 240 494 271 494 c 0
 317 494 352 526 379 558 c 0
 419 607 472 651 543 651 c 0
 625 651 660 577 660 491 c 0
 660 382 612 272 539 190 c 1
 541 190 l 1
 516 114 489 51 457 0 c 0
 425 -51 392 -89 356 -109 c 0
 315 -133 266 -145 206 -145 c 0
 146 -145 82 -134 14 -112 c 1
 34 -51 l 1
 88 -69 140 -77 189 -77 c 0
 307 -77 355 -36 404 46 c 0
 416 67 427 85 438 106 c 1
 386 75 329 55 271 55 c 0
 169 55 30 121 30 232 c 0
 30 296 86 341 149 341 c 0
 226 341 285 274 285 202 c 0xf7b8
 285 176 276 154 257 135 c 1
 264 134 272 133 279 133 c 0
 431 133 582 338 582 498 c 0
 582 535 570 571 535 571 c 0
 499 571 472 542 450 517 c 0
 404 462 347 414 265 414 c 0
 187 414 142 474 142 552 c 0xf7d8
 142 641 217 730 293 739 c 1
 0 739 l 1
 0 741 l 1
 -11 741 l 2
 -30 741 -49 741 -69 742 c 1
EndSplineSet
LCarets2: 1 0
Ligature2: "'vatu' Vattu Variants in Bengali lookup 7 subtable" u09ad u09b0_u09cd.blwf
EndChar

StartChar: u09ae_u09b0_u09cd.blwf.vatu
Encoding: 65606 -1 85
GlifName: u09ae_u09b0_u09cd.blwf.vatu
Width: 715
VWidth: 1024
GlyphClass: 3
Flags: W
HStem: -249 68<30.7369 285.321> 25 78<164.568 241.611> 737 80<0 131.714 248 487.534 561 628.781> 1003 20G<627 650.5>
VStem: 65 91<109.196 218.849> 312 72<409 534.593> 546 78<165.447 380.059> 585 65<593.337 667.27> 636 78<827.381 941.258>
AnchorPoint: "Anchor-0" 342 852 basechar 0
AnchorPoint: "Anchor-1" 579 9 basechar 0
LayerCount: 2
Fore
SplineSet
248 739 m 1xfd
 325 662 384 556 384 409 c 1
 425 426 459 451 488 480 c 1
 488 481 l 1
 488 481 575 594 575 603 c 1
 582 617 585 628 585 636 c 0
 585 670 500 701 452 740 c 1
 420 740 382 739 337 739 c 2
 248 739 l 1xfd
156 155 m 0
 156 130 171 103 195 103 c 0
 268 103 305 230 312 311 c 1
 244 286 156 234 156 155 c 0
-69 742 m 1
 -69 742 -39 756 -20 775 c 0
 -13 781 -6 796 0 807 c 1
 0 817 l 1
 6 817 l 2
 7 818 7 819 8 819 c 1
 8 817 l 1
 327 817 l 2
 404 817 462 816 505 816 c 0
 629 816 636 824 636 884 c 0
 636 907 617 944 598 960 c 2
 581 974 l 1
 601 997 l 2
 612 1010 625 1023 629 1023 c 0
 672 1023 714 929 714 882 c 0xfe80
 714 797 665 747 561 742 c 1
 603 708 650 696 650 636 c 0xfd
 650 565 609 511 566 474 c 1
 599 404 624 327 624 233 c 0
 624 139 565 68 500 28 c 1
 465 -66 408 -172 335 -213 c 0
 294 -237 245 -249 185 -249 c 0
 125 -249 61 -238 -7 -216 c 1
 13 -155 l 1
 67 -173 119 -181 168 -181 c 0
 286 -181 334 -140 383 -58 c 0
 408 -15 429 18 449 81 c 1
 442 90 l 1
 490 119 546 167 546 233 c 0xfe
 546 309 538 379 514 428 c 1
 475 396 435 364 390 344 c 1
 390 203 323 25 195 25 c 0
 123 25 65 83 65 155 c 0
 65 268 211 346 312 383 c 1
 312 588 238 631 108 737 c 1
 0 737 l 1
 0 741 l 1
 -11 741 l 2
 -30 741 -49 741 -69 742 c 1
EndSplineSet
LCarets2: 1 0
Ligature2: "'vatu' Vattu Variants in Bengali lookup 7 subtable" u09ae u09b0_u09cd.blwf
EndChar

StartChar: u09af_u09b0_u09cd.blwf.vatu
Encoding: 65607 -1 86
GlifName: u09af_u09b0_u09cd.blwf.vatu
Width: 721
VWidth: 1024
GlyphClass: 3
Flags: W
HStem: -166 68<219.737 474.321> 68 98<524.523 598.946> 104 106<188.841 360.543> 739 78<3 70 159 425 503 617.333> 1003 20G<628 651.5>
VStem: 63 98<237.315 327.808> 226 78<482.945 582.937> 425 78<255.118 740> 637 78<835.203 941.258>
AnchorPoint: "Anchor-0" 321 822 basechar 0
AnchorPoint: "Anchor-1" 642 -15 basechar 0
LayerCount: 2
Fore
SplineSet
159 739 m 1xbf80
 238 708 304 629 304 535 c 0
 304 458 267 398 220 364 c 0
 194 345 161 312 161 275 c 0
 161 233 218 210 265 210 c 0
 329 210 382 239 425 269 c 1
 425 740 l 1
 386 739 336 739 272 739 c 2
 159 739 l 1xbf80
-69 742 m 1
 -69 742 -39 756 -20 775 c 0
 -12 782 -4 801 3 812 c 1
 3 817 l 1
 6 817 l 2
 7 818 7 819 8 819 c 1
 8 817 l 1
 262 817 l 2
 347 817 415 816 467 816 c 0
 598 816 637 824 637 884 c 0
 637 907 618 944 599 960 c 2
 582 974 l 1
 602 997 l 2
 613 1010 626 1023 630 1023 c 0
 673 1023 715 929 715 882 c 0
 715 769 630 749 503 742 c 1
 503 247 l 2
 503 206 528 166 568 166 c 0
 609 166 639 200 659 230 c 1
 711 174 l 2
 710 172 708 171 707 169 c 1
 709 169 l 1
 684 93 657 29 625 -22 c 0
 593 -73 560 -110 524 -130 c 0
 483 -154 434 -166 374 -166 c 0
 314 -166 250 -155 182 -133 c 1
 202 -72 l 1
 256 -90 308 -98 357 -98 c 0
 475 -98 523 -57 572 25 c 0
 582 42 591 57 600 73 c 1
 590 70 579 68 568 68 c 0xdf80
 512 68 463 111 442 161 c 1
 399 128 335 104 265 104 c 0
 161 104 63 174 63 275 c 0
 63 387 157 423 207 485 c 0
 220 501 226 514 226 526 c 0
 226 597 145 640 70 640 c 1
 70 738 l 1
 3 738 l 1
 3 741 l 1
 -11 741 l 2
 -30 741 -49 741 -69 742 c 1
EndSplineSet
LCarets2: 1 0
Ligature2: "'vatu' Vattu Variants in Bengali lookup 7 subtable" u09af u09b0_u09cd.blwf
EndChar

StartChar: u09b0_u09b0_u09cd.blwf.vatu
Encoding: 65608 -1 87
GlifName: u09b0_u09b0_u09cd.blwf.vatu
Width: 870
GlyphClass: 3
Flags: W
HStem: -195 68<384.737 639.321> -23 119<40.7523 124.083> 47 83<685.125 768.054> 88 99<253.861 448.115> 604 97<270.65 452.162> 739 78<3 573 679 772.97> 1003 20G<780 803.5>
VStem: 17 125<-4.48489 72.125> 34 98<300.678 486.308> 573 106<310.081 480.812 602 739> 789 78<835.709 941.258>
AnchorPoint: "Anchor-0" 360 843 basechar 0
AnchorPoint: "Anchor-1" 804 -69 basechar 0
LayerCount: 2
Fore
SplineSet
132 395 m 0x9ee0
 132 259 244 187 349 187 c 0
 451 187 567 255 570 388 c 2
 570 400 l 2
 570 516 473 604 353 604 c 0
 242 604 132 527 132 395 c 0x9ee0
17 19 m 0xcf60
 17 58 50 96 88 96 c 0
 122 96 142 68 142 40 c 0
 142 3 108 -21 73 -23 c 0
 45 -23 17 -10 17 19 c 0xcf60
-69 742 m 1
 -69 742 -39 756 -20 775 c 0
 -12 782 -4 801 3 812 c 1
 3 817 l 1
 6 817 l 2
 7 818 7 819 8 819 c 1
 8 817 l 1
 425 817 l 2
 502 817 563 816 612 816 c 0
 751 816 789 824 789 884 c 0
 789 907 770 944 751 960 c 2
 734 974 l 1
 754 997 l 2
 765 1010 778 1023 782 1023 c 0
 825 1023 867 929 867 882 c 0
 867 823 866 769 797 747 c 0
 778 741 697 742 679 741 c 1
 679 186 l 2
 679 143 694 130 732 130 c 0xaee0
 761 130 807 175 825 175 c 0
 830 175 855 154 869 140 c 1
 874 140 l 1
 874 139 873 138 873 137 c 0
 877 133 879 130 879 129 c 0
 879 118 871 107 859 96 c 1xcee0
 822 -5 767 -116 689 -159 c 0
 648 -183 599 -195 539 -195 c 0
 479 -195 415 -184 347 -162 c 1
 367 -101 l 1
 421 -119 473 -127 522 -127 c 0
 640 -127 688 -86 737 -4 c 0
 749 16 759 36 769 55 c 1
 755 51 741 47 729 47 c 0xaee0
 625 47 598 110 574 181 c 1
 574 181 574 182 573 182 c 0
 569 182 556 172 542 160 c 0
 486 111 417 88 348 88 c 0
 196 88 34 199 34 394 c 0x9ee0
 34 573 155 651 323 696 c 0
 335 699 347 701 360 701 c 0
 433 701 515 653 543 628 c 2
 573 602 l 1
 573 739 l 1
 3 739 l 1
 3 741 l 1
 -11 741 l 2
 -30 741 -49 741 -69 742 c 1
EndSplineSet
LCarets2: 1 0
Ligature2: "'vatu' Vattu Variants in Bengali lookup 7 subtable" u09b0 u09b0_u09cd.blwf
EndChar

StartChar: u09b2_u09b0_u09cd.blwf.vatu
Encoding: 65609 -1 88
GlifName: u09b2_u09b0_u09cd.blwf.vatu
Width: 1140
GlyphClass: 2
Flags: W
HStem: -228 68<493.178 768.996> 45 68<228.886 362.893> 70 98<885.003 933.611> 263 81<293.5 377.699> 487 98<602.535 687.858> 492 73<331 505 607.052 642.875> 730 89<0 835>
VStem: 82 82<190.058 374.615> 394 72<143.192 250.249> 477 98<251.59 457.178> 1028 99<266.255 544.081> 1056 84<838.79 948.441>
AnchorPoint: "Anchor-0" 552 831 basechar 0
AnchorPoint: "Anchor-1" 1020 -9 basechar 0
LayerCount: 2
Fore
SplineSet
-60 730 m 1xbbe0
 0 819 l 1
 719 819 l 2
 781 819 832 818 874 818 c 0
 1020 818 1056 826 1056 890 c 0
 1056 912 1036 954 1016 973 c 2
 1001 987 l 1
 1024 1011 l 2
 1037 1024 1051 1034 1057 1034 c 0
 1089 1034 1140 945 1140 888 c 0xbbd0
 1140 821 1050 740 1000 740 c 0
 995 740 993 738 993 735 c 0
 993 725 1017 703 1040 686 c 0
 1086 652 1127 544 1127 441 c 0
 1127 334 1100 178 1023 107 c 1
 1024 107 l 1
 997 31 968 -33 933 -84 c 0
 898 -135 862 -172 823 -192 c 0
 778 -216 725 -228 660 -228 c 0
 595 -228 526 -217 452 -195 c 1
 474 -134 l 1
 533 -152 589 -160 642 -160 c 0
 770 -160 822 -119 875 -37 c 0
 897 -2 917 27 935 70 c 1
 931 70 l 2
 745 70 787 400 679 473 c 0
 666 482 655 487 645 487 c 0
 596 487 575 423 575 371 c 0
 575 284 606 199 657 148 c 2
 683 123 l 1
 647 96 l 2
 627 81 609 70 606 70 c 0xbbe0
 549 70 477 288 477 364 c 0
 477 411 487 456 505 492 c 1
 331 492 l 1
 291 471 l 2
 221 438 164 381 164 286 c 0
 164 203 208 113 296 113 c 0
 350 113 394 143 394 200 c 0
 394 225 369 263 353 263 c 0
 352 263 352 262 352 262 c 2
 330 240 332 207 291 207 c 0
 259 207 231 233 231 271 c 0
 231 310 270 344 317 344 c 0
 388 344 466 280 466 193 c 0
 466 107 389 45 297 45 c 0
 166 45 82 157 82 282 c 0
 82 495 250 565 523 565 c 2
 572 565 l 1xd7e0
 596 579 620 585 644 585 c 0
 729 585 807 435 841 301 c 0
 856 243 874 168 927 168 c 0
 974 168 1022 243 1027 325 c 0
 1027 332 1028 407 1028 415 c 0
 1028 536 971 664 875 711 c 2
 835 730 l 1
 -60 730 l 1xbbe0
EndSplineSet
LCarets2: 1 0
Ligature2: "'vatu' Vattu Variants in Bengali lookup 7 subtable" u09b2 u09b0_u09cd.blwf
EndChar

StartChar: u09b6_u09b0_u09cd.blwf.vatu
Encoding: 65610 -1 89
GlifName: u09b6_u09b0_u09cd.blwf.vatu
Width: 1052
GlyphClass: 3
Flags: W
HStem: -60 68<276.665 624.996> 225 91<155.845 280.345 455.218 578.94> 524 91<155.63 280.759 454.455 579.155> 732 83<515 761 844 954.401> 1003 20G<957 991.5>
VStem: 23 91<357.845 482.37> 322 91<358.393 482.037> 335 65<563 655.329> 621 91<358.06 482.155> 761 83<149.006 732> 972 78<831.42 951.478>
AnchorPoint: "Anchor-0" 577 834 basechar 0
AnchorPoint: "Anchor-1" 607 -60 basechar 0
LayerCount: 2
Fore
SplineSet
413 420 m 0xfee0
 413 364 461 316 517 316 c 0
 573 316 621 364 621 420 c 0
 621 477 574 524 517 524 c 0
 460 524 413 477 413 420 c 0xfee0
114 420 m 0
 114 363 161 316 218 316 c 0
 275 316 322 363 322 420 c 0
 322 478 276 524 218 524 c 0
 160 524 114 478 114 420 c 0
23 420 m 0
 23 527 111 615 218 615 c 0
 266 615 304 589 335 563 c 1
 335 636 359 699 400 732 c 2
 515 815 l 1
 646 815 777 815 908 815 c 0
 944 815 972 844 972 880 c 0
 972 921 956 951 933 971 c 1
 972 1023 l 1
 1011 991 1050 942 1050 880 c 0
 1050 804 989 737 914 737 c 0
 891 737 867 737 844 737 c 1
 844 434 l 2
 843 345 841 282 841 237 c 0
 841 219 841 204 842 191 c 1
 829 163 805 107 789 84 c 0
 754 33 718 -4 679 -24 c 0
 634 -48 581 -60 516 -60 c 0
 451 -60 173 -49 99 -27 c 1
 121 34 l 1
 180 16 445 8 498 8 c 0
 626 8 678 49 731 131 c 0
 743 150 754 167 765 186 c 1
 762 230 761 301 761 424 c 2
 761 732 l 1
 504 732 l 1
 443 710 400 644 400 563 c 1xfde0
 431 589 469 615 517 615 c 0
 624 615 712 527 712 420 c 0
 712 313 624 225 517 225 c 0
 449 225 395 269 368 316 c 1
 341 268 287 225 218 225 c 0
 111 225 23 313 23 420 c 0
EndSplineSet
LCarets2: 1 0
Ligature2: "'vatu' Vattu Variants in Bengali lookup 7 subtable" u09b6 u09b0_u09cd.blwf
EndChar

StartChar: u09b7_u09b0_u09cd.blwf.vatu
Encoding: 65611 -1 90
GlifName: u09b7_u09b0_u09cd.blwf.vatu
Width: 721
VWidth: 1024
GlyphClass: 3
Flags: W
HStem: -147 68<216.737 471.321> 68 98<524.523 583.313> 104 106<188.841 360.543> 739 78<3 70 159 425 503 617.333> 1003 20G<628 651.5>
VStem: 63 98<237.315 330.733> 226 78<514.561 582.937> 425 78<255.118 382.901 490 740> 637 78<835.203 941.258>
AnchorPoint: "Anchor-0" 324 837 basechar 0
AnchorPoint: "Anchor-1" 642 -15 basechar 0
LayerCount: 2
Fore
SplineSet
161 275 m 0xbf80
 161 233 218 210 265 210 c 0
 329 210 382 239 425 269 c 1
 425 372 l 1
 400 377 383 408 353 419 c 0
 326 429 300 427 277 430 c 1
 249 379 161 343 161 275 c 0xbf80
159 739 m 1
 238 708 304 629 304 535 c 0
 304 528 304 522 303 515 c 1
 339 515 397 502 425 490 c 1
 425 740 l 1
 386 739 336 739 272 739 c 2
 159 739 l 1
3 738 m 1
 3 817 l 1
 262 817 l 2
 347 817 415 816 467 816 c 0
 598 816 637 824 637 884 c 0
 637 907 618 944 599 960 c 2
 582 974 l 1
 602 997 l 2
 613 1010 626 1023 630 1023 c 0
 673 1023 715 929 715 882 c 0
 715 769 630 749 503 742 c 1
 503 247 l 2
 503 206 528 166 568 166 c 0
 609 166 639 200 659 230 c 1
 698 188 l 1
 706 188 l 1
 705 186 705 184 704 182 c 2
 711 174 l 1
 705 166 699 157 692 148 c 0
 671 89 648 39 622 -3 c 0
 590 -54 557 -91 521 -111 c 0
 480 -135 431 -147 371 -147 c 0
 311 -147 247 -136 179 -114 c 1
 199 -53 l 1
 253 -71 305 -79 354 -79 c 0
 472 -79 520 -38 569 44 c 0
 574 53 579 61 584 69 c 1
 579 68 573 68 568 68 c 0xdf80
 512 68 463 111 442 161 c 1
 399 128 335 104 265 104 c 0
 161 104 63 174 63 275 c 0
 63 387 157 423 207 485 c 0
 220 501 226 514 226 526 c 0
 226 597 145 640 70 640 c 1
 70 738 l 1
 3 738 l 1
EndSplineSet
LCarets2: 1 0
Ligature2: "'vatu' Vattu Variants in Bengali lookup 7 subtable" u09b7 u09b0_u09cd.blwf
EndChar

StartChar: u09b8_u09b0_u09cd.blwf.vatu
Encoding: 65612 -1 91
GlifName: u09b8_u09b0_u09cd.blwf.vatu
Width: 776
VWidth: 1024
GlyphClass: 3
Flags: W
HStem: -186 68<273.737 528.321> 61 78<571.149 660.15> 157 78<186.004 356.378> 741 79<-1.55487 119 178.625 681.15> 1008 20G<678 717.5>
VStem: 39 91<550.758 676.906> 403 159<275.819 374.13> 481 82<145.744 271 382 740> 698 78<836.537 944.527>
AnchorPoint: "Anchor-0" 369 831 basechar 0
AnchorPoint: "Anchor-1" 702 -39 basechar 0
LayerCount: 2
Fore
SplineSet
-79 741 m 1xfe80
 -51 764 -16 764 0 820 c 1
 633 820 l 2
 669 820 698 849 698 885 c 0
 698 924 671 955 646 976 c 1
 698 1028 l 1
 737 995 776 949 776 885 c 0
 776 807 711 742 633 742 c 2
 213 742 l 1
 214 741 l 1
 170 740 130 640 130 599 c 0
 130 535 224 501 292 495 c 0
 376 488 449 446 481 382 c 1
 481 502 481 621 481 741 c 1
 483 740 l 1
 563 740 l 1
 563 448 l 2xfd80
 563 362 562 300 562 255 c 0
 562 146 570 139 626 139 c 0
 649 139 686 158 702 177 c 2
 716 194 l 1
 740 174 l 2
 751 165 764 154 764 146 c 0
 764 137 760 128 753 119 c 0
 731 56 707 2 679 -42 c 0
 647 -93 614 -130 578 -150 c 0
 537 -174 488 -186 428 -186 c 0
 368 -186 304 -175 236 -153 c 1
 256 -92 l 1
 310 -110 362 -118 411 -118 c 0
 529 -118 577 -77 626 5 c 0
 639 26 650 46 661 67 c 1
 647 63 634 61 624 61 c 0
 585 61 549 76 521 106 c 0
 492 137 485 141 483 271 c 1
 454 201 365 157 273 157 c 0
 150 157 57 239 0 320 c 1
 65 365 l 1
 109 303 181 235 273 235 c 0
 334 235 403 269 403 326 c 0
 403 381 335 412 279 417 c 0
 169 427 39 491 39 599 c 0
 39 668 59 724 119 741 c 1
 53 741 -13 741 -79 741 c 1xfe80
EndSplineSet
LCarets2: 1 0
Ligature2: "'vatu' Vattu Variants in Bengali lookup 7 subtable" u09b8 u09b0_u09cd.blwf
EndChar

StartChar: u09b9_u09b0_u09cd.blwf.vatu
Encoding: 65613 -1 92
GlifName: u09b9_u09b0_u09cd.blwf.vatu
Width: 693
GlyphClass: 3
Flags: W
HStem: -252 68<111.737 366.321> 90 99<117.652 330.211> 282 85<130.185 345.094> 628 95<342.911 465.498> 737 78<0 556.696>
VStem: 0 107<204.239 259.921> 512 109<350.941 576.023> 615 78<824.691 939.121>
AnchorPoint: "Anchor-0" 330 831 basechar 0
AnchorPoint: "Anchor-1" 600 -21 basechar 0
LayerCount: 2
Fore
SplineSet
107 228 m 0xfc
 107 197 176 189 226 189 c 2
 241 189 l 1
 290 193 373 222 373 236 c 0
 373 267 257 282 211 282 c 0
 173 282 107 264 107 228 c 0xfc
0 227 m 0
 0 321 128 367 227 367 c 0
 289 367 355 352 415 322 c 2
 458 301 l 1
 469 315 l 2
 496 347 512 404 512 471 c 0
 512 551 486 628 405 628 c 0
 355 628 293 573 280 542 c 1
 188 528 l 1
 218 615 l 1
 228 638 l 2
 232 638 245 657 246 658 c 0
 247 659 337 723 411 723 c 0
 549 723 621 598 621 472 c 0xfe
 621 399 601 321 560 265 c 0
 547 247 536 231 536 228 c 0
 536 225 544 210 555 195 c 0
 582 157 603 97 605 55 c 2
 605 20 l 1
 579 20 l 1
 543 -73 488 -176 416 -216 c 0
 375 -240 326 -252 266 -252 c 0
 206 -252 142 -241 74 -219 c 1
 94 -158 l 1
 148 -176 200 -184 249 -184 c 0
 367 -184 415 -143 464 -61 c 0
 480 -34 494 -10 508 20 c 1
 507 20 l 1
 495 72 l 2
 487 106 469 168 458 168 c 0
 456 168 438 159 419 148 c 0
 354 109 288 90 223 90 c 0
 123 90 0 146 0 227 c 0
-61 737 m 1
 0 815 l 1
 306 815 l 2
 383 815 441 814 484 814 c 0
 608 814 615 822 615 882 c 0
 615 905 596 942 577 958 c 2
 560 972 l 1
 580 995 l 2
 591 1008 604 1020 608 1020 c 0
 651 1020 693 927 693 880 c 0xfd
 693 841 677 806 648 777 c 0
 608 738 613 739 316 737 c 2
 -61 737 l 1
EndSplineSet
LCarets2: 1 0
Ligature2: "'vatu' Vattu Variants in Bengali lookup 7 subtable" u09b9 u09b0_u09cd.blwf
EndChar

StartChar: u099c_09cd_u09b0_u09cd
Encoding: 65614 -1 93
GlifName: janya_u09b0_u09cd.blwf.vatu
Width: 995
VWidth: 1024
GlyphClass: 3
Flags: W
HStem: -261 68<328.737 583.321> -4 84<256.923 368.278> 214 97<94.2908 181.852> 391 89<228.596 335.416> 566 88<510.867 603.448> 619 81<725.591 828.685> 735 80<0 222 328.549 580.751>
VStem: 4 86<132.164 207.922> 128 90<490.369 611.787> 195 93<122.878 199.745> 618 113<423.911 552.885> 665 66<189.026 310> 858 74<187.092 291.814 478.311 589.992> 905 78<840.177 938.309>
AnchorPoint: "Anchor-0" 441 840 basechar 0
AnchorPoint: "Anchor-1" 834 3 basechar 0
LayerCount: 2
Fore
SplineSet
731 209 m 1xf318
 760 188 766 163 784 163 c 0
 824 163 858 197 858 237 c 0
 858 297 792 341 731 347 c 1
 731 209 l 1xf318
724 604 m 1
 728 589 730 573 730 557 c 2
 730 423 l 1
 791 429 858 473 858 534 c 0
 858 579 822 619 777 619 c 0xf708
 760 619 743 614 726 605 c 0
 725 605 725 604 724 604 c 1
90 174 m 0
 90 143 119 118 150 118 c 0
 153 118 157 119 160 119 c 0
 180 122 195 135 195 158 c 0xf340
 195 189 167 214 135 214 c 0
 132 214 128 213 125 213 c 0
 106 210 90 196 90 174 c 0
0 735 m 1
 0 815 l 1
 342 815 l 2
 625 815 878 815 896 849 c 0
 901 858 905 872 905 881 c 0
 905 904 886 941 867 957 c 2
 850 971 l 1
 870 995 l 2
 881 1008 894 1019 898 1019 c 0
 902 1019 919 1006 936 989 c 0
 960 965 969 951 976 925 c 0
 980 909 983 894 983 879 c 0
 983 840 968 804 938 776 c 0
 899 738 649 738 379 736 c 1
 362 731 345 725 332 716 c 0
 295 689 264 655 239 611 c 0
 226 587 218 564 218 541 c 0
 218 504 236 480 272 480 c 0
 284 480 298 484 313 490 c 0
 341 502 368 523 392 552 c 0
 429 596 470 627 515 643 c 0
 536 650 556 654 574 654 c 0xfba4
 595 654 614 649 631 639 c 0
 634 637 638 636 641 636 c 0
 665 636 693 677 693 677 c 1
 719 692 747 700 777 700 c 0
 864 700 932 622 932 534 c 0
 932 458 880 406 822 385 c 1
 880 364 932 311 932 237 c 0
 932 165 885 99 820 81 c 1
 795 5 766 -66 734 -117 c 0
 702 -168 669 -205 633 -225 c 0
 592 -249 543 -261 483 -261 c 0
 423 -261 359 -250 291 -228 c 1
 311 -167 l 1
 365 -185 417 -193 466 -193 c 0
 584 -193 632 -152 681 -70 c 0
 706 -28 730 23 750 85 c 1
 738 91 725 100 710 111 c 0
 698 121 676 127 665 133 c 1
 665 192 665 251 665 310 c 1
 654 280 654 277 636 246 c 0
 569 130 487 54 389 18 c 0
 349 3 310 -4 271 -4 c 0
 213 -4 156 12 99 45 c 0
 59 68 31 100 15 138 c 0
 7 156 4 173 4 190 c 0
 4 253 53 293 101 306 c 0
 113 309 125 311 137 311 c 0
 160 311 183 305 205 292 c 0
 247 268 272 235 283 191 c 0
 286 179 288 167 288 156 c 0xf758
 288 127 277 103 256 82 c 1
 265 81 273 80 282 80 c 0
 323 80 367 96 412 127 c 0
 467 165 516 220 557 292 c 0
 591 351 610 406 616 459 c 0
 617 469 618 478 618 487 c 0
 618 524 607 549 585 561 c 0
 580 564 574 566 567 566 c 0
 557 566 546 563 533 557 c 0
 511 547 491 530 471 507 c 0
 429 457 382 422 331 404 c 0
 307 396 285 391 264 391 c 0
 177 391 128 459 128 544 c 0xfba0
 128 582 139 619 160 656 c 0
 178 687 199 711 222 735 c 1
 0 735 l 1
EndSplineSet
LCarets2: 3 0 0 0
Ligature2: "'vatu' Vattu Variants in Bengali lookup 7 subtable" u099c u09cd u099e u09b0_u09cd.blwf
EndChar

StartChar: bn_ka_ssa.akhn_bn_raphala.vatu
Encoding: 65615 -1 94
GlifName: bn_ka_ssa.akhn_bn_raphala.vatu
Width: 1153
VWidth: 1024
GlyphClass: 3
Flags: W
HStem: -268 68<309.737 564.321> 68 98<710.523 807.671> 104 106<374.274 546.543> 160 72<81.6759 145.626> 226 68<855.279 988.449> 368 68<155.5 249.98> 442 72<168.021 229.943> 444 81<841.404 925.5> 612 106<170.609 228.321> 738 79<58 256 345 611> 763 21G<983 1014.5> 1003 20G<1061 1084.5>
VStem: 10 60<243.444 322.025> 96 60<525.444 604.025> 152 76<236.263 322.779> 236 76<517.812 605.907> 249 102<232.533 333.223> 378 112<482.445 610.4> 611 78<255.118 671> 753 72<323.529 417.017> 1055 83<372.42 543.983> 1070 80<859.516 941.113>
AnchorPoint: "Anchor-0" 564 843 basechar 0
AnchorPoint: "Anchor-1" 840 9 basechar 0
LayerCount: 2
Fore
SplineSet
345 739 m 1xa498f0
 424 708 490 629 490 535 c 0
 490 458 453 398 406 364 c 0
 385 349 360 325 351 297 c 0
 351 290 352 281 352 270 c 0
 352 265 351 261 351 256 c 0
 365 226 412 210 451 210 c 0
 515 210 568 239 611 269 c 1
 611 740 l 1
 572 739 522 739 458 739 c 2
 345 739 l 1xa498f0
272 -235 m 1
 292 -174 l 1
 346 -192 398 -200 447 -200 c 0
 565 -200 613 -159 662 -77 c 0
 688 -33 709 1 730 67 c 1
 799 67 l 1
 774 -9 747 -73 715 -124 c 0
 683 -175 650 -212 614 -232 c 0
 573 -256 524 -268 464 -268 c 0
 404 -268 340 -257 272 -235 c 1
156 560 m 0x869d70
 156 541 184 514 202 514 c 0
 223 514 236 537 236 562 c 0
 236 587 219 612 196 612 c 0
 175 612 156 585 156 560 c 0x869d70
70 278 m 0
 70 259 98 232 116 232 c 0
 137 232 152 255 152 280 c 0x949a70
 152 305 133 330 110 330 c 0
 89 330 70 303 70 278 c 0
-14 742 m 1
 -14 742 16 756 35 775 c 0
 43 782 51 801 58 812 c 1
 58 817 l 1
 61 817 l 2
 62 818 62 819 63 819 c 1
 63 817 l 1
 448 817 l 2
 533 817 601 816 653 816 c 0
 784 816 1070 824 1070 884 c 0
 1070 907 1051 944 1032 960 c 2
 1015 974 l 1
 1035 997 l 2
 1046 1010 1059 1023 1063 1023 c 0
 1106 1023 1148 929 1148 882 c 0
 1148 869 1150 856 1150 844 c 0x96dd74
 1150 817 1141 793 1081 774 c 0
 1054 765 1027 763 1002 763 c 0
 964 763 932 769 925 769 c 0
 922 769 921 768 921 767 c 0
 921 761 955 741 955 741 c 1
 955 741 1138 589 1138 463 c 0
 1138 422 1127 380 1106 340 c 0
 1086 302 1038 257 1000 239 c 0
 974 227 965 226 922 226 c 0
 866 226 839 235 804 267 c 0
 771 297 753 334 753 374 c 0
 753 461 831 525 902 525 c 0
 949 525 988 491 988 452 c 0
 988 414 960 388 928 388 c 0
 906 388 885 400 876 423 c 0
 872 433 869 442 868 443 c 2
 868 443 868 444 867 444 c 0
 860 444 836 420 830 407 c 0
 827 400 825 391 825 381 c 0
 825 324 869 294 923 294 c 0
 940 294 957 298 972 305 c 0
 1023 330 1055 399 1055 467 c 0
 1055 496 1049 525 1037 550 c 0
 1016 592 977 629 929 652 c 2
 889 671 l 1
 822 671 756 671 689 671 c 1
 689 247 l 2
 689 206 714 166 754 166 c 0
 795 166 825 200 845 230 c 1
 897 174 l 1
 865 128 818 68 754 68 c 0xcdb878
 698 68 649 111 628 161 c 1
 585 128 521 104 451 104 c 0
 395 104 340 124 302 159 c 1
 256 178 l 1
 270 196 l 2
 270 197 271 196 271 197 c 0
 257 220 249 246 249 275 c 0
 249 299 254 320 261 338 c 1
 247 350 230 358 214 362 c 0
 199 366 190 368 184 368 c 0
 181 368 178 368 178 366 c 0
 178 363 184 358 192 350 c 0
 216 327 228 304 228 276 c 0xa49af8
 228 213 174 160 120 160 c 0
 65 160 10 217 10 288 c 0
 10 343 43 396 100 424 c 0
 123 435 135 436 176 436 c 0
 219 436 229 435 256 422 c 0
 271 415 285 405 298 394 c 1
 318 415 340 433 361 452 c 1
 342 460 l 1
 354 478 l 2
 370 500 378 525 378 550 c 0
 378 584 369 601 348 618 c 1
 325 630 296 638 269 640 c 1
 293 616 312 590 312 558 c 0
 312 495 258 442 204 442 c 0
 149 442 96 499 96 570 c 0
 96 625 129 678 186 706 c 0
 208 716 219 718 256 718 c 1
 256 738 l 1
 190 738 124 738 58 738 c 0x96dd70
 53 738 49 741 44 741 c 0
 25 741 6 741 -14 742 c 1
EndSplineSet
LCarets2: 1 0
Ligature2: "'vatu' Vattu Variants in Bengali lookup 7 subtable" u0995_u09cd_u09b7.akhn u09b0_u09cd.blwf
EndChar

StartChar: u09a4_u09cd_u09a4_u09b0_u09cd
Encoding: 65616 -1 95
GlifName: u09a4_u09cd.half_u09a4_u09b0_u09cd.blwf.vatu.pres
Width: 782
GlyphClass: 3
Flags: W
HStem: -228 63<63.363 314.343> 34 48<217.446 440.986> 219 22<138.408 195.31> 312 80<139.77 169> 361 49<250.08 369.475> 547 51<133.603 202.447> 661 58<420.973 518.018> 668 51<140.397 201.228> 736 78<-79 -69 -67 675.3>
VStem: 50 75<158.715 268.292 485.467 610.415> 205 74<251.013 308.683 599.57 664.93> 339 80<278.918 327.2 606.871 654.498> 545 73<167.357 307.037 495.037 634.884> 685 98<825.757 931.758>
AnchorPoint: "Anchor-0" 363 825 basechar 0
AnchorPoint: "Anchor-1" 567 24 basechar 0
LayerCount: 2
Fore
SplineSet
136 632 m 0xe5fc
 136 612 156 598 174 598 c 0
 194 598 205 617 205 632 c 0
 205 646 192 668 171 668 c 0
 153 668 136 651 136 632 c 0xe5fc
136 277 m 0
 136 257 156 241 174 241 c 0
 194 241 205 260 205 275 c 0
 205 289 192 312 171 312 c 0xf4fc
 153 312 136 296 136 277 c 0
125 219 m 0
 125 137 226 82 320 82 c 2
 334 82 l 1
 465 89 545 148 545 242 c 0
 545 290 514 333 474 333 c 0
 450 333 419 324 419 304 c 0
 419 289 452 275 471 252 c 2
 481 240 l 1
 464 241 447 241 430 241 c 0
 415 241 399 242 384 242 c 1
 370 252 l 2
 352 265 340 289 339 305 c 0
 339 327 352 348 373 363 c 1
 362 362 351 361 340 361 c 2
 323 361 l 2xecfc
 297 361 272 363 249 367 c 1
 268 352 279 331 279 306 c 0
 278 256 238 219 174 219 c 0
 156 219 140 224 128 224 c 0
 126 224 125 223 125 219 c 0
34 -198 m 1
 53 -141 l 1
 104 -158 154 -165 201 -165 c 0
 313 -165 358 -127 405 -51 c 0
 426 -16 444 11 461 55 c 1
 425 43 384 36 340 34 c 2
 323 34 l 2
 159 34 50 119 50 238 c 0
 50 318 85 388 169 392 c 1
 94 427 50 489 50 565 c 0
 50 647 87 719 176 719 c 0xf5fc
 231 719 279 682 279 632 c 0
 278 582 238 547 174 547 c 0
 156 547 140 552 128 552 c 0
 126 552 125 551 125 547 c 0
 125 465 226 410 320 410 c 2
 334 410 l 1
 465 417 545 476 545 570 c 0
 545 618 514 661 474 661 c 0
 450 661 419 652 419 632 c 0
 419 617 452 603 471 580 c 2
 481 567 l 1
 449 568 416 568 384 569 c 1
 370 579 l 2
 352 592 340 616 339 632 c 0
 339 680 398 719 468 719 c 0xeefc
 572 719 618 646 618 569 c 0
 618 491 567 427 484 391 c 1
 568 384 618 328 618 242 c 0
 618 216 612 192 602 170 c 0
 585 135 556 105 518 82 c 1
 536 82 l 1
 512 12 486 -48 456 -95 c 0
 401 -181 344 -228 217 -228 c 0
 160 -228 99 -218 34 -198 c 1
-164 738 m 1
 -164 738 -126 752 -102 771 c 0
 -94 777 -87 790 -79 801 c 1
 -79 814 l 1
 -69 814 l 1
 -67 815 l 1
 -67 814 l 1
 426 814 l 2
 522 814 467 813 521 813 c 0
 676 813 685 821 685 881 c 0
 685 904 662 941 638 957 c 2
 616 971 l 1
 641 994 l 2
 656 1008 671 1018 676 1019 c 0
 731 1019 783 925 783 878 c 0
 783 839 764 804 726 776 c 0
 676 737 810 738 439 736 c 2
 -79 736 l 1
 -79 737 l 1
 -83 737 -87 737 -91 737 c 0
 -115 737 -139 737 -164 738 c 1
EndSplineSet
LCarets2: 1 0
Ligature2: "'vatu' Vattu Variants in Bengali lookup 7 subtable" u09a4_u09cd_u09a4.cjct u09b0_u09cd.blwf
EndChar

StartChar: u0995_u09cd_u0995.cjct
Encoding: 65617 -1 96
GlifName: u0995_u09cd_u0995.cjct
Width: 1089
GlyphClass: 3
Flags: W
HStem: 12 37<653.183 780.826> 31 36<240.433 466.903> 84 31<792.698 936.73> 182 37<782.132 839.992> 255 51<227.754 483.107> 285 33<654 848.207> 396 36<240.433 466.903> 449 31<792.698 936.73> 547 37<782.132 839.992> 622 49<229.543 479.994> 650 33<654 848.207> 741 84<0 563 658 947.917 948 1000.66>
VStem: 78 82<116.831 209.122 481.831 574.122> 550 101<117.189 206.983 482.189 572.407> 563 88<261 285 318 437 626 650> 713 65<127.114 177.24 492.114 542.24> 984 75<147.644 235.406 512.644 600.406> 1005 79<829.835 890.98>
AnchorPoint: "Anchor-1" 708 -1 basechar 0
AnchorPoint: "Anchor-0" 610 849 basechar 0
LayerCount: 2
Fore
SplineSet
160 526 m 2x33dd
 160 466 259 432 352 432 c 0
 444 432 547 464 550 524 c 2
 550 530 l 2
 550 582 463 622 355 622 c 0
 262 622 160 589 160 533 c 2
 160 526 l 2x33dd
160 161 m 2
 160 101 259 67 352 67 c 0
 444 67 547 99 550 159 c 2
 550 165 l 2
 550 217 463 255 355 255 c 0x7b9d
 262 255 160 224 160 168 c 2
 160 161 l 2
-69 742 m 1
 -69 742 -39 756 -20 775 c 0
 -13 781 -6 796 0 807 c 1
 0 825 l 1
 945 825 l 2
 978 825 1005 827 1005 865 c 0
 1005 871 1002 876 1002 876 c 1
 1002 890 l 1
 995 891 l 2
 995 893 992 898 979 911 c 2
 965 925 l 1
 983 946 l 2
 993 958 1004 968 1008 968 c 0
 1047 968 1084 885 1084 842 c 0x7bdb40
 1084 758 1056 749 948 741 c 1
 948 741 834 742 748 742 c 0
 705 742 669 742 658 741 c 1
 658 741 655 701 654 683 c 1
 900 683 1059 654 1059 556 c 0
 1059 500 982 449 865 449 c 0
 781 449 713 478 713 516 c 0
 713 556 783 584 847 584 c 0
 890 584 924 568 924 550 c 0
 924 533 899 522 871 522 c 0
 833 522 836 537 816 547 c 1
 800 547 778 531 778 519 c 0
 778 493 817 480 865 480 c 0
 945 480 984 520 984 558 c 0
 984 600 933 626 871 641 c 2
 835 650 l 1
 651 650 l 1x33bb80
 651 555 l 2x33bd
 651 507 650 477 650 458 c 2
 650 444 l 2
 650 381 654 389 654 327 c 0
 654 324 654 321 654 318 c 1
 900 318 1059 289 1059 191 c 0
 1059 135 982 84 865 84 c 0
 781 84 713 113 713 151 c 0
 713 191 783 219 847 219 c 0
 890 219 924 203 924 185 c 0
 924 168 899 157 871 157 c 0
 833 157 836 172 816 182 c 1
 800 182 778 166 778 154 c 0
 778 128 817 115 865 115 c 0
 945 115 984 155 984 193 c 0
 984 235 933 261 871 276 c 2
 835 285 l 1
 651 285 l 1x37bb80
 651 190 l 2
 651 142 650 112 650 93 c 0
 650 56 658 49 707 49 c 0
 734 49 775 69 791 69 c 0
 797 69 839 51 839 49 c 0
 839 31 757 12 704 12 c 0xb7bd
 604 12 595 42 565 72 c 0
 562 72 549 69 537 63 c 0
 487 41 424 31 362 31 c 0
 226 31 78 81 78 169 c 0
 78 243 204 306 372 306 c 0
 438 306 512 284 537 273 c 2
 563 261 l 1
 563 377 l 2
 563 385 565 425 565 435 c 2
 565 437 l 1
 562 437 549 434 537 428 c 0
 487 406 424 396 362 396 c 0
 226 396 78 446 78 534 c 0
 78 608 204 671 372 671 c 0
 438 671 512 649 537 638 c 2
 563 626 l 1
 563 741 l 1x7bdb
 372 741 180 741 -11 741 c 0
 -30 741 -49 741 -69 742 c 1
EndSplineSet
LCarets2: 2 0 0
Ligature2: "'cjct' Conjunct Forms in Bengali2 lookup 13" u0995 u09cd u0995
EndChar

StartChar: u0995_u09cd_u099f.cjct
Encoding: 65618 -1 97
GlifName: u0995_u09cd_u099f.cjct
Width: 1242
GlyphClass: 3
Flags: W
HStem: 49 33<417.13 552.312> 65 42<730.617 1023.38> 138 30<861.595 960.52> 210 38<861.587 966.885> 280 27<831.418 923 923.029 1058.83> 390 42<223.276 469.099> 443 31<785.698 929.73> 541 37<775.132 832.992> 622 43<222.043 471.15> 644 33<654 853.543> 735 84<-7 335 335.018 556 654 750.009 864 940.917 941 1142.14> 974 57<795.582 883.002> 1113 78<802.288 882.764>
VStem: 71 81<482.587 574.439> 542 112<482.189 572.407> 556 98<153.406 373 373.001 410.999 411 431 622 644 677 733> 695 83<198.735 256.111> 706 65<486.114 536.24> 731 60<1037.37 1100.81> 938 69<953.548 1074> 967 96<173.138 208.235> 977 75<506.644 594.192> 1122 73<170.134 227.642> 1157 78<829.925 937.037>
AnchorPoint: "Anchor-0" 576 828 basechar 0
AnchorPoint: "Anchor-1" 639 39 basechar 0
LayerCount: 2
Fore
SplineSet
859 185 m 0x3f3c08
 859 175 876 168 904 168 c 0
 944 168 967 178 967 195 c 0
 967 205 950 210 927 210 c 0
 894 210 859 201 859 185 c 0x3f3c08
791 1067 m 0x3f3c20
 791 1045 816 1031 841 1031 c 0
 866 1031 890 1050 890 1073 c 0
 890 1094 863 1113 838 1113 c 0
 819 1113 791 1085 791 1067 c 0x3f3c20
152 526 m 2
 152 466 251 432 344 432 c 0
 436 432 539 464 542 524 c 2
 542 530 l 2
 542 582 455 622 347 622 c 0x3fbe
 254 622 152 589 152 533 c 2
 152 526 l 2
-76 736 m 1
 -76 736 -46 750 -27 769 c 0
 -20 775 -13 790 -7 801 c 1
 -7 819 l 1
 335 819 l 1
 335 820 l 1
 335 820 359 820 396 819 c 2
 721 819 l 1
 748 840 847 903 875 915 c 0
 906 928 938 975 938 1018 c 0
 938 1021 938 1023 936 1023 c 0
 933 1023 928 1018 920 1009 c 0
 898 985 874 974 846 974 c 0
 783 974 731 1027 731 1082 c 0
 731 1137 787 1191 857 1191 c 0
 936 1191 1007 1125 1007 1023 c 0
 1007 937 968 892 910 862 c 0
 903 859 877 834 864 819 c 1
 938 819 l 2
 943 819 953 817 966 814 c 0
 1157 827 1132 819 1148 849 c 0
 1153 858 1157 872 1157 881 c 0xbfbd31
 1157 904 1138 941 1119 957 c 2
 1102 971 l 1
 1122 995 l 2xbfbc02
 1133 1008 1146 1019 1150 1019 c 0
 1193 1019 1235 927 1235 880 c 0
 1235 809 1186 736 1102 736 c 2
 968 736 l 2
 960 736 951 736 941 735 c 2
 941 735 827 736 741 736 c 0
 701 736 668 735 654 735 c 1
 654 677 l 1
 896 676 1052 647 1052 550 c 0
 1052 494 975 443 858 443 c 0
 774 443 706 472 706 510 c 0
 706 550 776 578 840 578 c 0
 883 578 917 562 917 544 c 0
 917 527 892 516 864 516 c 0
 826 516 829 531 809 541 c 1
 793 541 771 525 771 513 c 0
 771 487 810 474 858 474 c 0
 938 474 977 514 977 552 c 0x3f7d45
 977 594 926 620 864 635 c 2
 828 644 l 1
 654 644 l 1
 654 411 l 1
 653 411 653 410 653 407 c 0
 653 400 655 384 655 377 c 0
 655 374 654 373 654 373 c 1
 654 188 l 2
 654 136 781 107 881 107 c 0
 1015 107 1122 153 1122 216 c 0
 1122 251 1030 278 1021 280 c 2
 1003 280 l 2
 996 280 996 281 989 281 c 0
 963 281 923 277 923 277 c 2
 842 272 778 266 778 228 c 0
 778 219 793 198 799 198 c 0
 802 198 806 202 809 208 c 0
 822 230 860 248 930 248 c 0
 996 248 1063 231 1063 201 c 0
 1063 165 981 138 898 138 c 0
 792 138 702 176 696 218 c 0
 696 220 695 221 695 223 c 0
 695 266 786 307 895 307 c 2
 1022 307 l 2
 1061 307 1195 239 1195 188 c 0
 1195 110 1033 65 881 65 c 0x7f7d8a
 812 65 743 74 687 94 c 0
 673 99 660 102 656 102 c 0
 632 74 604 49 500 49 c 0
 441 49 350 66 350 81 c 0
 350 83 397 100 404 100 c 0
 422 100 468 82 497 82 c 0
 550 82 556 88 556 118 c 2
 556 431 l 1
 551 430 540 427 530 422 c 0
 480 400 417 390 355 390 c 0
 219 390 71 440 71 528 c 0
 71 602 197 665 365 665 c 0
 431 665 505 643 530 632 c 2
 556 622 l 1
 556 733 l 1xbfbd8a
 335 733 l 1
 335 735 l 1
 217 735 100 735 -18 735 c 0
 -37 735 -56 735 -76 736 c 1
EndSplineSet
LCarets2: 2 0 0
Ligature2: "'cjct' Conjunct Forms in Bengali2 lookup 13" u0995 u09cd u099f
EndChar

StartChar: u0995_u09cd_u09a4.cjct
Encoding: 65619 -1 98
GlifName: u0995_u09cd_u09a4.cjct
Width: 1089
GlyphClass: 3
Flags: W
HStem: -3 54<456.968 665.212> 203 57<366.411 434.164> 330 84<654.176 748.698> 338 57<372.892 431.582> 383 51<763.13 831.98> 396 36<240.433 466.903> 449 31<792.698 936.73> 547 37<782.132 839.992> 622 49<229.543 479.994> 650 33<654 848.207> 741 84<0 563 658 947.917 948 1000.66>
VStem: 78 82<481.831 574.122> 282 75<136.03 274.417> 437 74<262.113 335.104> 550 101<482.189 572.407> 571 80<270.116 323.074> 713 65<492.114 542.24> 777 73<147.667 300.146> 984 75<512.644 600.406> 1005 79<829.835 890.98>
AnchorPoint: "Anchor-0" 558 834 basechar 0
AnchorPoint: "Anchor-1" 597 -3 basechar 0
LayerCount: 2
Fore
SplineSet
368 299 m 0xd33c
 368 277 388 260 406 260 c 0
 426 260 437 280 437 297 c 0
 437 313 425 338 404 338 c 0
 386 338 368 320 368 299 c 0xd33c
160 526 m 2
 160 466 259 432 352 432 c 0
 444 432 547 464 550 524 c 2
 550 530 l 2
 550 582 463 622 355 622 c 0xc7be
 262 622 160 589 160 533 c 2
 160 526 l 2
-69 742 m 1
 -69 742 -39 756 -20 775 c 0
 -13 781 -6 796 0 807 c 1
 0 825 l 1
 945 825 l 2
 978 825 1005 827 1005 865 c 0
 1005 871 1002 876 1002 876 c 1
 1002 890 l 1
 995 891 l 2
 995 893 992 898 979 911 c 2
 965 925 l 1
 983 946 l 2
 993 958 1004 968 1008 968 c 0
 1047 968 1084 885 1084 842 c 0xc7bd50
 1084 758 1056 749 948 741 c 1
 948 741 834 742 748 742 c 0
 705 742 669 742 658 741 c 1
 658 741 655 701 654 683 c 1
 900 683 1059 654 1059 556 c 0
 1059 500 982 449 865 449 c 0
 781 449 713 478 713 516 c 0
 713 556 783 584 847 584 c 0
 890 584 924 568 924 550 c 0
 924 533 899 522 871 522 c 0
 833 522 836 537 816 547 c 1
 800 547 778 531 778 519 c 0
 778 493 817 480 865 480 c 0
 945 480 984 520 984 558 c 0
 984 600 933 626 871 641 c 2
 835 650 l 1
 651 650 l 1xc37da0
 651 555 l 2
 651 507 650 477 650 458 c 0
 650 421 658 414 707 414 c 0xe37e
 734 414 775 434 791 434 c 0xcb3e
 797 434 839 416 839 414 c 0xe33e
 839 402 803 390 763 383 c 1xcb3e
 823 357 850 294 850 228 c 0
 850 98 736 4 572 -3 c 1
 555 -3 l 2
 391 -3 282 92 282 224 c 0
 282 315 319 395 408 395 c 0xd33e40
 463 395 511 354 511 299 c 0
 510 243 470 203 406 203 c 0
 388 203 372 209 360 209 c 0
 358 209 357 207 357 203 c 0
 357 112 458 51 552 51 c 2
 566 51 l 1
 697 59 777 125 777 229 c 0
 777 282 746 330 706 330 c 0xe33e40
 682 330 651 319 651 297 c 0
 651 280 685 266 704 240 c 2
 714 226 l 1
 682 227 648 227 616 228 c 1
 602 239 l 2
 584 253 572 280 571 298 c 0
 571 335 599 366 639 383 c 1xcb3d40
 597 393 587 415 565 437 c 0
 562 437 549 434 537 428 c 0
 487 406 424 396 362 396 c 0
 226 396 78 446 78 534 c 0
 78 608 204 671 372 671 c 0
 438 671 512 649 537 638 c 2
 563 626 l 1
 563 741 l 1
 372 741 180 741 -11 741 c 0
 -30 741 -49 741 -69 742 c 1
EndSplineSet
LCarets2: 2 0 0
Ligature2: "'cjct' Conjunct Forms in Bengali2 lookup 13" u0995 u09cd u09a4
EndChar

StartChar: u0995_u09cd_u09a8.cjct
Encoding: 65620 -1 99
GlifName: u0995_u09cd_u09a8.cjct
Width: 1089
GlyphClass: 3
Flags: W
HStem: 50 39<361.517 392> 84 49<606.091 723.279> 258 49<325.428 442.774> 385 49<776.132 835.078> 396 36<240.433 466.903> 449 31<792.698 936.73> 547 37<782.132 839.992> 622 49<229.543 479.994> 650 33<654 848.207> 741 84<0 563 658 947.917 948 1000.66>
VStem: 78 82<481.831 574.122> 212 98<140.647 242.713> 550 101<482.189 572.407> 713 65<492.114 542.24> 763 99<171.715 294.684> 984 75<512.644 600.406> 1005 79<829.835 890.98>
AnchorPoint: "Anchor-0" 510 837 basechar 0
AnchorPoint: "Anchor-1" 663 69 basechar 0
LayerCount: 2
Fore
SplineSet
160 526 m 2x2f78
 160 466 259 432 352 432 c 0
 444 432 547 464 550 524 c 2
 550 530 l 2
 550 582 463 622 355 622 c 0
 262 622 160 589 160 533 c 2
 160 526 l 2x2f78
-69 742 m 1
 -69 742 -39 756 -20 775 c 0
 -13 781 -6 796 0 807 c 1
 0 825 l 1
 945 825 l 2
 978 825 1005 827 1005 865 c 0
 1005 871 1002 876 1002 876 c 1
 1002 890 l 1
 995 891 l 2
 995 893 992 898 979 911 c 2
 965 925 l 1
 983 946 l 2
 993 958 1004 968 1008 968 c 0
 1047 968 1084 885 1084 842 c 0x6f7a80
 1084 758 1056 749 948 741 c 1
 948 741 834 742 748 742 c 0
 705 742 669 742 658 741 c 1
 658 741 655 701 654 683 c 1
 900 683 1059 654 1059 556 c 0
 1059 500 982 449 865 449 c 0
 781 449 713 478 713 516 c 0
 713 556 783 584 847 584 c 0
 890 584 924 568 924 550 c 0
 924 533 899 522 871 522 c 0
 833 522 836 537 816 547 c 1
 800 547 778 531 778 519 c 0x26fd
 778 493 817 480 865 480 c 0
 945 480 984 520 984 558 c 0
 984 600 933 626 871 641 c 2
 835 650 l 1
 651 650 l 1
 651 555 l 2
 651 507 650 477 650 458 c 0
 650 421 658 414 707 414 c 0
 734 414 775 434 791 434 c 0
 797 434 839 416 839 414 c 0
 839 403 810 392 775 385 c 1
 821 368 862 286 862 235 c 0
 862 164 813 84 666 84 c 0x76fb
 480 84 522 215 414 251 c 0
 401 255 390 258 380 258 c 0
 331 258 310 226 310 200 c 0
 310 156 341 115 392 89 c 2
 418 76 l 1
 382 63 l 2
 362 55 344 50 341 50 c 0xa67b
 284 50 212 159 212 197 c 0
 212 253 267 307 379 307 c 0
 464 307 543 266 576 199 c 0
 591 170 609 133 662 133 c 0
 709 133 757 170 762 211 c 0
 762 215 763 218 763 222 c 0x667b
 763 272 724 344 656 380 c 1
 600 388 589 413 565 437 c 0
 562 437 549 434 537 428 c 0
 487 406 424 396 362 396 c 0
 226 396 78 446 78 534 c 0
 78 608 204 671 372 671 c 0
 438 671 512 649 537 638 c 2
 563 626 l 1
 563 741 l 1
 372 741 180 741 -11 741 c 0
 -30 741 -49 741 -69 742 c 1
EndSplineSet
LCarets2: 2 0 0
Ligature2: "'cjct' Conjunct Forms in Bengali2 lookup 13" u0995 u09cd u09a8
EndChar

StartChar: u0995_u09cd_u09ae.cjct
Encoding: 65621 -1 100
GlifName: u0995_u09cd_u09ae.cjct
Width: 1243
VWidth: 1024
GlyphClass: 3
Flags: W
HStem: 9 69<599.962 694.357> 378 37<653.183 780.245> 397 35<242.307 466.903> 450 31<792.698 936.73> 548 37<782.132 839.992> 622 50<229.543 479.994> 651 33<654 848.207> 742 84<0 563 658 947.917 948 966.579 967 986.437> 1011 20G<1119.5 1124.5>
VStem: 78 82<482.831 571.917> 498 92<87.7138 185.628> 550 101<482.189 572.407> 713 65<493.114 543.24> 984 75<513.644 601.406> 1099 98<156.183 347.653> 1130 98<555.237 621.621 845.678 944> 1148 81<581.129 652.12>
AnchorPoint: "Anchor-0" 600 834 basechar 0
AnchorPoint: "Anchor-1" 1041 9 basechar 0
LayerCount: 2
Fore
SplineSet
650 459 m 0x9bdc80
 650 422 658 415 707 415 c 0
 734 415 775 435 791 435 c 0
 797 435 839 417 839 415 c 0
 839 413 838 412 837 410 c 1
 866 406 897 404 897 393 c 1
 948 410 991 435 1027 464 c 1
 1027 465 l 2
 1027 478 1135 574 1135 586 c 2
 1135 587 l 1
 1144 601 1148 614 1148 622 c 0xdddc80
 1148 633 1144 639 1134 647 c 0
 1132 649 1031 716 987 745 c 1
 975 744 962 743 948 742 c 2
 948 742 834 743 748 743 c 0
 705 743 669 743 658 742 c 1
 658 742 655 702 654 684 c 1
 900 684 1059 655 1059 557 c 0
 1059 501 982 450 865 450 c 0
 781 450 713 479 713 517 c 0
 713 557 783 585 847 585 c 0
 890 585 924 569 924 551 c 0
 924 534 899 523 871 523 c 0
 833 523 836 538 816 548 c 1
 800 548 778 532 778 520 c 0
 778 494 817 481 865 481 c 0
 945 481 984 521 984 559 c 0
 984 601 933 627 871 642 c 2
 835 651 l 1
 651 651 l 1
 651 556 l 2
 651 508 650 478 650 459 c 0x9bdc80
590 130 m 0x99ec
 590 105 609 78 639 78 c 0
 674 78 702 100 733 138 c 0
 766 178 780 227 786 286 c 1
 727 269 680 246 644 218 c 0
 608 190 590 160 590 130 c 0x99ec
160 526 m 2
 160 466 259 432 352 432 c 0
 444 432 547 464 550 524 c 2
 550 530 l 2
 550 582 463 622 355 622 c 0xbddc
 262 622 160 589 160 533 c 2
 160 526 l 2
-69 743 m 1
 -69 743 -39 757 -20 776 c 0
 -13 782 -6 797 0 808 c 1
 0 826 l 1
 945 826 l 2
 950 826 958 825 967 824 c 1
 967 827 l 1
 1100 829 1103 836 1120 860 c 0
 1126 869 1130 884 1130 893 c 0
 1130 916 1107 953 1083 969 c 2
 1062 983 l 1
 1087 1006 l 2
 1101 1019 1117 1031 1122 1031 c 0
 1127 1031 1148 1018 1169 1001 c 0
 1199 977 1210 963 1219 937 c 0
 1224 921 1228 906 1228 891 c 0xbded
 1228 852 1209 817 1172 788 c 0
 1152 772 1138 764 1106 758 c 1
 1132 743 1178 704 1192 693 c 0
 1217 673 1229 651 1229 622 c 0xbdcc80
 1229 551 1178 495 1124 458 c 1
 1165 388 1197 311 1197 217 c 0
 1197 120 1118 48 1034 9 c 1
 969 74 l 1
 1009 93 1040 115 1064 140 c 0
 1088 165 1099 191 1099 217 c 0
 1099 293 1089 363 1059 412 c 1
 1010 380 960 348 904 328 c 1
 904 240 881 165 833 103 c 0
 785 41 728 9 660 9 c 0
 570 9 498 67 498 139 c 0
 498 180 527 222 583 264 c 0
 639 306 715 340 807 367 c 1
 807 378 804 385 801 392 c 1
 773 384 734 378 704 378 c 0xddee
 604 378 595 408 565 438 c 0
 562 438 549 435 537 429 c 0
 487 407 424 397 362 397 c 0
 226 397 78 447 78 535 c 0
 78 609 204 672 372 672 c 0
 438 672 512 650 537 639 c 2
 563 627 l 1
 563 742 l 1
 372 742 180 742 -11 742 c 0
 -30 742 -49 742 -69 743 c 1
EndSplineSet
LCarets2: 2 0 0
Ligature2: "'cjct' Conjunct Forms in Bengali2 lookup 13" u0995 u09cd u09ae
EndChar

StartChar: u0995_u09cd_u09b2.cjct
Encoding: 65622 -1 101
GlifName: u0995_u09cd_u09b2.cjct
Width: 1089
GlyphClass: 3
Flags: W
HStem: 22 33<179.014 306.14> 34 49<708.741 803.507> 130 41<266.227 316.054> 242 50<480.529 575.648> 245 37<271 412 485.611 523.064> 377 37<653.183 720> 396 36<240.433 466.903> 449 31<792.698 936.73> 547 37<782.132 839.992> 622 49<229.543 479.994> 650 33<654 848.207> 741 84<0 563 658 947.917 948 1000.66>
VStem: 69 67<88.4239 192.569> 78 82<481.831 574.122> 322 58<67.6006 126.373> 389 80<117.128 231.073> 550 101<482.189 572.407> 713 65<492.114 542.24> 836 80<126.132 299.097> 984 75<512.644 600.406> 1005 79<829.835 890.98>
AnchorPoint: "Anchor-0" 543 828 basechar 0
AnchorPoint: "Anchor-1" 756 15 basechar 0
LayerCount: 2
Fore
SplineSet
160 526 m 2x23d7e0
 160 466 259 432 352 432 c 0
 444 432 547 464 550 524 c 2
 550 530 l 2
 550 582 463 622 355 622 c 0
 262 622 160 589 160 533 c 2
 160 526 l 2x23d7e0
-69 742 m 1
 -69 742 -39 756 -20 775 c 0
 -13 781 -6 796 0 807 c 1
 0 825 l 1
 945 825 l 2
 978 825 1005 827 1005 865 c 0
 1005 871 1002 876 1002 876 c 1
 1002 890 l 1
 995 891 l 2
 995 893 992 898 979 911 c 2
 965 925 l 1
 983 946 l 2
 993 958 1004 968 1008 968 c 0
 1047 968 1084 885 1084 842 c 0x23d7e8
 1084 758 1056 749 948 741 c 1
 948 741 834 742 748 742 c 0
 705 742 669 742 658 741 c 1
 658 741 655 701 654 683 c 1
 900 683 1059 654 1059 556 c 0
 1059 500 982 449 865 449 c 0
 781 449 713 478 713 516 c 0
 713 556 783 584 847 584 c 0
 890 584 924 568 924 550 c 0
 924 533 899 522 871 522 c 0
 833 522 836 537 816 547 c 1
 800 547 778 531 778 519 c 0
 778 493 817 480 865 480 c 0
 945 480 984 520 984 558 c 0
 984 600 933 626 871 641 c 2
 835 650 l 1
 651 650 l 1
 651 555 l 2
 651 507 650 477 650 458 c 0
 650 421 658 414 707 414 c 0
 711 414 716 414 720 415 c 1
 720 416 749 423 752 424 c 0
 768 429 783 434 791 434 c 0
 797 434 839 416 839 414 c 0
 839 413 839 411 838 410 c 1
 840 409 842 407 845 406 c 0
 882 389 916 272 916 220 c 0
 916 149 876 34 757 34 c 0
 607 34 640 200 553 236 c 0
 542 240 533 242 525 242 c 0
 485 242 469 210 469 184 c 0
 469 140 494 99 535 73 c 2
 556 60 l 1
 527 47 l 2
 511 39 497 34 494 34 c 0x75b3f0
 448 34 389 143 389 181 c 0
 389 205 398 227 412 245 c 1
 271 245 l 1
 238 234 l 2
 181 218 136 190 136 142 c 0
 136 100 172 55 243 55 c 0
 287 55 322 71 322 99 c 0
 322 111 302 130 289 130 c 2
 288 130 l 1
 270 119 271 102 238 102 c 0
 212 102 190 115 190 134 c 0
 190 154 222 171 260 171 c 0
 318 171 380 140 380 96 c 0
 380 53 319 22 244 22 c 0
 138 22 69 78 69 140 c 0
 69 246 205 282 426 282 c 2
 466 282 l 1xa99bf0
 486 289 504 292 524 292 c 0
 592 292 656 217 684 150 c 0
 697 121 711 83 754 83 c 0
 792 83 831 121 835 162 c 0
 835 166 836 202 836 206 c 0
 836 251 810 334 764 383 c 1
 744 379 722 377 704 377 c 0x759bf0
 604 377 595 407 565 437 c 0
 562 437 549 434 537 428 c 0
 487 406 424 396 362 396 c 0
 226 396 78 446 78 534 c 0
 78 608 204 671 372 671 c 0
 438 671 512 649 537 638 c 2
 563 626 l 1
 563 741 l 1
 372 741 180 741 -11 741 c 0
 -30 741 -49 741 -69 742 c 1
EndSplineSet
LCarets2: 2 0 0
Ligature2: "'cjct' Conjunct Forms in Bengali2 lookup 13" u0995 u09cd u09b2
EndChar

StartChar: u0995_u09cd_u09b8.cjct
Encoding: 65623 -1 102
GlifName: u0995_u09cd_u09b8.cjct
Width: 1371
GlyphClass: 3
Flags: W
HStem: 64 78<1163.15 1275.12> 74 78<778.469 948.124> 381 56<653.212 707.691> 399 33<242.807 462.728> 452 31<793.698 937.73> 550 37<783.132 840.992> 622 52<230.043 480.494> 653 33<655 849.207> 745 78<0 564 659 1072 1165 1272.98> 1011 20G<1270 1309.5>
VStem: 79 81<484.831 573.917> 550 102<482.189 572.407> 714 65<495.114 545.24> 985 75<515.644 603.406> 1072 93<300.159 744.988> 1072 82<148.969 188 299 506.125> 1290 78<839.593 947.527>
AnchorPoint: "Anchor-0" 660 828 basechar 0
AnchorPoint: "Anchor-1" 1218 45 basechar 0
LayerCount: 2
Fore
SplineSet
651 461 m 0x2dfe80
 651 429 656 419 689 417 c 1
 718 425 765 437 788 437 c 2
 792 437 l 2
 798 437 840 419 840 417 c 0
 840 415 839 413 837 411 c 1
 845 411 854 413 868 413 c 0
 873 413 878 413 884 412 c 0
 968 405 1040 363 1072 299 c 1x2dfd80
 1072 607 l 1
 1072 741 l 2
 1072 746 1052 748 1023 748 c 0
 981 748 920 745 869 745 c 0
 844 745 819 745 794 745 c 0
 735 745 666 745 659 744 c 1
 659 744 656 704 655 686 c 1
 901 686 1060 657 1060 559 c 0
 1060 503 983 452 866 452 c 0
 782 452 714 481 714 519 c 0
 714 559 784 587 848 587 c 0
 891 587 925 571 925 553 c 0
 925 536 900 525 872 525 c 0
 834 525 837 540 817 550 c 1
 801 550 779 534 779 522 c 0
 779 496 818 483 866 483 c 0
 946 483 985 523 985 561 c 0
 985 603 934 629 872 644 c 2
 836 653 l 1
 652 653 l 1
 652 558 l 2
 652 510 651 480 651 461 c 0x2dfe80
160 526 m 2
 160 466 259 432 352 432 c 0
 444 432 547 464 550 524 c 2
 550 530 l 2
 550 582 463 622 355 622 c 0x1efc80
 262 622 160 589 160 533 c 2
 160 526 l 2
-68 745 m 1
 -68 745 -38 759 -19 778 c 0
 -12 784 -6 799 0 810 c 1
 0 823 l 1
 1225 823 l 2
 1261 823 1290 852 1290 888 c 0
 1290 927 1263 958 1238 979 c 1
 1290 1031 l 1
 1329 998 1368 952 1368 888 c 0
 1368 810 1301 746 1225 745 c 2
 1165 745 l 1
 1165 451 l 2x1efe80
 1162 365 1154 303 1154 258 c 0
 1154 149 1162 142 1218 142 c 0
 1241 142 1278 161 1294 180 c 2
 1308 197 l 1
 1332 177 l 2
 1345 166 1356 153 1356 149 c 0
 1356 106 1263 64 1216 64 c 0x9efd80
 1177 64 1141 79 1113 109 c 0
 1108 115 1103 117 1099 117 c 0
 1092 117 1087 111 1083 111 c 0
 1078 111 1076 124 1075 188 c 1
 1047 119 963 74 869 74 c 2
 865 74 l 2
 742 76 649 156 592 237 c 1
 657 282 l 1
 701 220 773 152 865 152 c 0
 926 152 995 186 995 243 c 0
 995 298 927 329 871 334 c 0
 792 341 721 335 683 381 c 1x6cfd80
 603 385 594 412 566 440 c 0
 563 440 550 437 538 431 c 0
 488 409 425 399 363 399 c 0
 227 399 79 449 79 537 c 0
 79 611 205 674 373 674 c 0
 439 674 513 652 538 641 c 2
 564 629 l 1
 564 744 l 1
 373 744 181 744 -10 744 c 0
 -29 744 -48 744 -68 745 c 1
EndSplineSet
Ligature2: "'cjct' Conjunct Forms in Bengali2 lookup 13" u0995 u09cd u09b8
LCarets2: 2 0 0
EndChar

